G04 #@! TF.GenerationSoftware,KiCad,Pcbnew,7.0.6*
G04 #@! TF.CreationDate,2023-11-12T09:34:07+05:30*
G04 #@! TF.ProjectId,AVR-Miner,4156522d-4d69-46e6-9572-2e6b69636164,rev?*
G04 #@! TF.SameCoordinates,Original*
G04 #@! TF.FileFunction,Copper,L2,Bot*
G04 #@! TF.FilePolarity,Positive*
%FSLAX46Y46*%
G04 Gerber Fmt 4.6, Leading zero omitted, Abs format (unit mm)*
G04 Created by KiCad (PCBNEW 7.0.6) date 2023-11-12 09:34:07*
%MOMM*%
%LPD*%
G01*
G04 APERTURE LIST*
G04 Aperture macros list*
%AMFreePoly0*
4,1,19,0.550000,-0.750000,0.000000,-0.750000,0.000000,-0.744911,-0.071157,-0.744911,-0.207708,-0.704816,-0.327430,-0.627875,-0.420627,-0.520320,-0.479746,-0.390866,-0.500000,-0.250000,-0.500000,0.250000,-0.479746,0.390866,-0.420627,0.520320,-0.327430,0.627875,-0.207708,0.704816,-0.071157,0.744911,0.000000,0.744911,0.000000,0.750000,0.550000,0.750000,0.550000,-0.750000,0.550000,-0.750000,
$1*%
%AMFreePoly1*
4,1,19,0.000000,0.744911,0.071157,0.744911,0.207708,0.704816,0.327430,0.627875,0.420627,0.520320,0.479746,0.390866,0.500000,0.250000,0.500000,-0.250000,0.479746,-0.390866,0.420627,-0.520320,0.327430,-0.627875,0.207708,-0.704816,0.071157,-0.744911,0.000000,-0.744911,0.000000,-0.750000,-0.550000,-0.750000,-0.550000,0.750000,0.000000,0.750000,0.000000,0.744911,0.000000,0.744911,
$1*%
G04 Aperture macros list end*
G04 #@! TA.AperFunction,ComponentPad*
%ADD10R,1.700000X1.700000*%
G04 #@! TD*
G04 #@! TA.AperFunction,ComponentPad*
%ADD11O,1.700000X1.700000*%
G04 #@! TD*
G04 #@! TA.AperFunction,ComponentPad*
%ADD12C,1.651000*%
G04 #@! TD*
G04 #@! TA.AperFunction,SMDPad,CuDef*
%ADD13FreePoly0,0.000000*%
G04 #@! TD*
G04 #@! TA.AperFunction,SMDPad,CuDef*
%ADD14R,1.000000X1.500000*%
G04 #@! TD*
G04 #@! TA.AperFunction,SMDPad,CuDef*
%ADD15FreePoly1,0.000000*%
G04 #@! TD*
G04 #@! TA.AperFunction,ViaPad*
%ADD16C,0.800000*%
G04 #@! TD*
G04 #@! TA.AperFunction,Conductor*
%ADD17C,0.600000*%
G04 #@! TD*
G04 #@! TA.AperFunction,Conductor*
%ADD18C,0.400000*%
G04 #@! TD*
G04 #@! TA.AperFunction,Conductor*
%ADD19C,0.500000*%
G04 #@! TD*
G04 APERTURE END LIST*
D10*
G04 #@! TO.P,J2,1*
G04 #@! TO.N,MISO*
X142475000Y-79000000D03*
D11*
G04 #@! TO.P,J2,2*
G04 #@! TO.N,+5V*
X142475000Y-76460000D03*
G04 #@! TO.P,J2,3*
G04 #@! TO.N,LED*
X145015000Y-79000000D03*
G04 #@! TO.P,J2,4*
G04 #@! TO.N,MOSI*
X145015000Y-76460000D03*
G04 #@! TO.P,J2,5*
G04 #@! TO.N,RESET*
X147555000Y-79000000D03*
G04 #@! TO.P,J2,6*
G04 #@! TO.N,GND*
X147555000Y-76460000D03*
G04 #@! TD*
D12*
G04 #@! TO.P,Y1,1*
G04 #@! TO.N,XTAL1*
X142450000Y-95000000D03*
G04 #@! TO.P,Y1,2*
G04 #@! TO.N,XTAL2*
X147530000Y-95000000D03*
G04 #@! TD*
D10*
G04 #@! TO.P,J1,1*
G04 #@! TO.N,EXT_LED*
X139925000Y-100000000D03*
D11*
G04 #@! TO.P,J1,2*
G04 #@! TO.N,+5V*
X142465000Y-100000000D03*
G04 #@! TO.P,J1,3*
G04 #@! TO.N,SDA*
X145005000Y-100000000D03*
G04 #@! TO.P,J1,4*
G04 #@! TO.N,SCL*
X147545000Y-100000000D03*
G04 #@! TO.P,J1,5*
G04 #@! TO.N,GND*
X150085000Y-100000000D03*
G04 #@! TD*
D13*
G04 #@! TO.P,JP1,1*
G04 #@! TO.N,ON_BOARD_LED*
X150200000Y-79250000D03*
D14*
G04 #@! TO.P,JP1,2*
G04 #@! TO.N,LED*
X151500000Y-79250000D03*
D15*
G04 #@! TO.P,JP1,3*
G04 #@! TO.N,EXT_LED*
X152800000Y-79250000D03*
G04 #@! TD*
D16*
G04 #@! TO.N,Net-(C1-Pad2)*
X152000000Y-82250000D03*
X145750000Y-84000000D03*
G04 #@! TO.N,GND*
X142800000Y-88400000D03*
X144000000Y-84000000D03*
G04 #@! TO.N,RESET*
X138000000Y-78750000D03*
X138000000Y-86750000D03*
G04 #@! TO.N,+5V*
X147250000Y-87750000D03*
X152000000Y-91250000D03*
X140500000Y-81750000D03*
X139500000Y-92000000D03*
G04 #@! TO.N,SCL*
X142549406Y-86071961D03*
G04 #@! TO.N,SDA*
X142500000Y-84250000D03*
G04 #@! TO.N,LED*
X149000000Y-82250000D03*
G04 #@! TO.N,EXT_LED*
X152750000Y-97750000D03*
G04 #@! TO.N,ON_BOARD_LED*
X150500000Y-78000000D03*
G04 #@! TD*
D17*
G04 #@! TO.N,Net-(C1-Pad2)*
X152000000Y-83250000D02*
X151250000Y-84000000D01*
X151250000Y-84000000D02*
X145750000Y-84000000D01*
X152000000Y-82250000D02*
X152000000Y-83250000D01*
D18*
G04 #@! TO.N,RESET*
X146294999Y-77749999D02*
X139000001Y-77749999D01*
D17*
X138000000Y-85500000D02*
X138000000Y-86750000D01*
D18*
X139000001Y-77749999D02*
X138000000Y-78750000D01*
D17*
X138000000Y-78750000D02*
X138000000Y-85500000D01*
D18*
X147545000Y-79000000D02*
X146294999Y-77749999D01*
D17*
G04 #@! TO.N,+5V*
X142465000Y-98465000D02*
X140750000Y-96750000D01*
X139500000Y-92000000D02*
X139500000Y-90250000D01*
X151500000Y-87750000D02*
X152000000Y-88250000D01*
X142465000Y-100000000D02*
X142465000Y-98465000D01*
X152000000Y-88250000D02*
X152000000Y-91250000D01*
X139500000Y-95500000D02*
X140750000Y-96750000D01*
X140500000Y-89250000D02*
X140500000Y-82500000D01*
X139500000Y-92000000D02*
X139500000Y-95500000D01*
X139500000Y-90250000D02*
X140500000Y-89250000D01*
X140500000Y-82500000D02*
X140500000Y-81750000D01*
X147250000Y-87750000D02*
X151500000Y-87750000D01*
G04 #@! TO.N,SCL*
X147545000Y-98545000D02*
X145750000Y-96750000D01*
X145000000Y-91750000D02*
X145000000Y-87000000D01*
X145750000Y-96750000D02*
X145750000Y-92500000D01*
X147545000Y-100000000D02*
X147545000Y-98545000D01*
X145750000Y-92500000D02*
X145000000Y-91750000D01*
X144071961Y-86071961D02*
X142549406Y-86071961D01*
X145000000Y-87000000D02*
X144071961Y-86071961D01*
G04 #@! TO.N,SDA*
X142500000Y-84250000D02*
X141750000Y-84250000D01*
X144000000Y-92250000D02*
X144750000Y-93000000D01*
X144750000Y-99745000D02*
X145005000Y-100000000D01*
X141500000Y-84500000D02*
X141500000Y-86750000D01*
X142000000Y-87250000D02*
X143750000Y-87250000D01*
X141750000Y-84250000D02*
X141500000Y-84500000D01*
X143750000Y-87250000D02*
X144000000Y-87500000D01*
X141500000Y-86750000D02*
X142000000Y-87250000D01*
X144750000Y-93000000D02*
X144750000Y-99745000D01*
X144000000Y-87500000D02*
X144000000Y-92250000D01*
D19*
G04 #@! TO.N,LED*
X149000000Y-81750000D02*
X149000000Y-81250000D01*
D17*
X149125000Y-81125000D02*
X150875000Y-81125000D01*
X145005000Y-79000000D02*
X145005000Y-80505000D01*
X150875000Y-81125000D02*
X151500000Y-80500000D01*
X151500000Y-80500000D02*
X151500000Y-79250000D01*
D19*
X149000000Y-81250000D02*
X149125000Y-81125000D01*
D17*
X145005000Y-80505000D02*
X145625000Y-81125000D01*
D19*
X149000000Y-81750000D02*
X149000000Y-82250000D01*
D17*
X145625000Y-81125000D02*
X148375000Y-81125000D01*
X148375000Y-81125000D02*
X149125000Y-81125000D01*
G04 #@! TO.N,EXT_LED*
X152800000Y-79250000D02*
X154000000Y-80450000D01*
X154000000Y-96500000D02*
X152750000Y-97750000D01*
X154000000Y-80450000D02*
X154000000Y-96500000D01*
G04 #@! TO.N,ON_BOARD_LED*
X150200000Y-79250000D02*
X150200000Y-78300000D01*
X150200000Y-78300000D02*
X150500000Y-78000000D01*
G04 #@! TD*
G04 #@! TA.AperFunction,Conductor*
G04 #@! TO.N,GND*
G36*
X141309012Y-87408701D02*
G01*
X141315594Y-87414830D01*
X141544626Y-87643861D01*
X141550058Y-87650055D01*
X141566259Y-87671168D01*
X141571718Y-87678282D01*
X141633207Y-87725464D01*
X141697159Y-87774536D01*
X141843238Y-87835044D01*
X142000000Y-87855682D01*
X142000001Y-87855682D01*
X142035262Y-87851040D01*
X142043494Y-87850500D01*
X143273500Y-87850500D01*
X143341621Y-87870502D01*
X143388114Y-87924158D01*
X143399500Y-87976500D01*
X143399500Y-92206505D01*
X143398960Y-92214737D01*
X143394318Y-92249999D01*
X143394318Y-92250000D01*
X143399500Y-92289361D01*
X143414955Y-92406760D01*
X143468183Y-92535262D01*
X143475464Y-92552841D01*
X143571718Y-92678282D01*
X143591279Y-92693291D01*
X143599934Y-92699933D01*
X143606137Y-92705372D01*
X144112595Y-93211829D01*
X144146620Y-93274142D01*
X144149500Y-93300925D01*
X144149500Y-99181517D01*
X144129498Y-99249638D01*
X144124050Y-99257449D01*
X144022636Y-99391741D01*
X143927593Y-99582615D01*
X143869244Y-99787688D01*
X143869243Y-99787690D01*
X143869244Y-99787690D01*
X143860462Y-99882461D01*
X143834261Y-99948444D01*
X143776544Y-99989788D01*
X143705638Y-99993365D01*
X143644053Y-99958039D01*
X143611344Y-99895026D01*
X143609538Y-99882470D01*
X143600756Y-99787690D01*
X143542405Y-99582611D01*
X143447366Y-99391745D01*
X143318872Y-99221593D01*
X143161302Y-99077948D01*
X143125166Y-99055573D01*
X143077781Y-99002707D01*
X143065500Y-98948448D01*
X143065500Y-98508494D01*
X143066040Y-98500262D01*
X143070682Y-98465000D01*
X143070682Y-98464999D01*
X143050044Y-98308239D01*
X143012637Y-98217929D01*
X142989536Y-98162159D01*
X142917450Y-98068215D01*
X142893282Y-98036718D01*
X142893281Y-98036717D01*
X142865055Y-98015058D01*
X142858861Y-98009626D01*
X141146785Y-96297550D01*
X140137405Y-95288170D01*
X140103379Y-95225858D01*
X140100500Y-95199075D01*
X140100500Y-95000000D01*
X141319176Y-95000000D01*
X141338430Y-95207791D01*
X141395535Y-95408495D01*
X141395538Y-95408501D01*
X141488554Y-95595302D01*
X141488555Y-95595303D01*
X141614309Y-95761830D01*
X141768526Y-95902417D01*
X141768527Y-95902418D01*
X141945938Y-96012267D01*
X141945945Y-96012270D01*
X141945948Y-96012272D01*
X142140535Y-96087656D01*
X142345661Y-96126000D01*
X142345663Y-96126000D01*
X142554337Y-96126000D01*
X142554339Y-96126000D01*
X142759465Y-96087656D01*
X142954052Y-96012272D01*
X142954057Y-96012268D01*
X142954061Y-96012267D01*
X143079326Y-95934705D01*
X143131474Y-95902417D01*
X143285689Y-95761831D01*
X143411446Y-95595302D01*
X143504462Y-95408501D01*
X143561570Y-95207788D01*
X143580824Y-95000000D01*
X143561570Y-94792212D01*
X143561569Y-94792208D01*
X143504464Y-94591504D01*
X143504462Y-94591499D01*
X143411446Y-94404698D01*
X143365444Y-94343781D01*
X143285690Y-94238169D01*
X143131473Y-94097582D01*
X143131472Y-94097581D01*
X142954061Y-93987732D01*
X142954046Y-93987725D01*
X142759472Y-93912346D01*
X142759469Y-93912345D01*
X142759466Y-93912344D01*
X142759465Y-93912344D01*
X142554339Y-93874000D01*
X142345661Y-93874000D01*
X142140535Y-93912344D01*
X142140530Y-93912345D01*
X142140527Y-93912346D01*
X141945953Y-93987725D01*
X141945938Y-93987732D01*
X141768527Y-94097581D01*
X141768526Y-94097582D01*
X141614309Y-94238169D01*
X141488555Y-94404696D01*
X141395535Y-94591504D01*
X141338430Y-94792208D01*
X141319176Y-95000000D01*
X140100500Y-95000000D01*
X140100500Y-92402423D01*
X140120502Y-92334302D01*
X140122806Y-92330845D01*
X140123131Y-92330373D01*
X140124818Y-92327930D01*
X140185140Y-92168872D01*
X140205645Y-92000000D01*
X140199634Y-91950499D01*
X140185140Y-91831128D01*
X140124820Y-91672075D01*
X140124814Y-91672063D01*
X140122804Y-91669151D01*
X140121989Y-91666681D01*
X140121277Y-91665324D01*
X140121502Y-91665205D01*
X140100568Y-91601727D01*
X140100500Y-91597576D01*
X140100500Y-90550925D01*
X140120502Y-90482804D01*
X140137400Y-90461834D01*
X140893868Y-89705365D01*
X140900051Y-89699943D01*
X140928282Y-89678282D01*
X141024536Y-89552841D01*
X141085044Y-89406762D01*
X141085044Y-89406761D01*
X141085044Y-89406755D01*
X141085448Y-89404729D01*
X141085584Y-89402663D01*
X141105683Y-89250000D01*
X141105683Y-89249999D01*
X141101040Y-89214730D01*
X141100500Y-89206498D01*
X141100500Y-87503925D01*
X141120502Y-87435804D01*
X141174158Y-87389311D01*
X141244432Y-87379207D01*
X141309012Y-87408701D01*
G37*
G04 #@! TD.AperFunction*
G04 #@! TA.AperFunction,Conductor*
G36*
X153002058Y-72025634D02*
G01*
X153253604Y-72042122D01*
X153261759Y-72043194D01*
X153506989Y-72091973D01*
X153514943Y-72094104D01*
X153751698Y-72174473D01*
X153759308Y-72177624D01*
X153983558Y-72288212D01*
X153990676Y-72292322D01*
X154198563Y-72431228D01*
X154205101Y-72436245D01*
X154248017Y-72473881D01*
X154393074Y-72601092D01*
X154398907Y-72606925D01*
X154563753Y-72794896D01*
X154568773Y-72801438D01*
X154707674Y-73009318D01*
X154711789Y-73016446D01*
X154754090Y-73102222D01*
X154822371Y-73240683D01*
X154825528Y-73248305D01*
X154905892Y-73485047D01*
X154908027Y-73493016D01*
X154956802Y-73738222D01*
X154957878Y-73746401D01*
X154974365Y-73997937D01*
X154974500Y-74002058D01*
X154974500Y-99997940D01*
X154974365Y-100002061D01*
X154957878Y-100253598D01*
X154956802Y-100261777D01*
X154908027Y-100506983D01*
X154905892Y-100514952D01*
X154825528Y-100751694D01*
X154822371Y-100759316D01*
X154812956Y-100778408D01*
X154743136Y-100919991D01*
X154711796Y-100983542D01*
X154707671Y-100990686D01*
X154568774Y-101198559D01*
X154563753Y-101205103D01*
X154398907Y-101393074D01*
X154393074Y-101398907D01*
X154205103Y-101563753D01*
X154198559Y-101568774D01*
X153990686Y-101707671D01*
X153983546Y-101711793D01*
X153871429Y-101767083D01*
X153759316Y-101822371D01*
X153751694Y-101825528D01*
X153514952Y-101905892D01*
X153506983Y-101908027D01*
X153321223Y-101944977D01*
X153261774Y-101956802D01*
X153253598Y-101957878D01*
X153043176Y-101971670D01*
X153002058Y-101974365D01*
X152997940Y-101974500D01*
X137002060Y-101974500D01*
X136997941Y-101974365D01*
X136950819Y-101971276D01*
X136746401Y-101957878D01*
X136738227Y-101956802D01*
X136615619Y-101932414D01*
X136493016Y-101908027D01*
X136485047Y-101905892D01*
X136248305Y-101825528D01*
X136240683Y-101822371D01*
X136016446Y-101711789D01*
X136009318Y-101707674D01*
X135801438Y-101568773D01*
X135794896Y-101563753D01*
X135606925Y-101398907D01*
X135601092Y-101393074D01*
X135436246Y-101205103D01*
X135431225Y-101198559D01*
X135399113Y-101150500D01*
X135292322Y-100990676D01*
X135288212Y-100983558D01*
X135244470Y-100894859D01*
X138774500Y-100894859D01*
X138774501Y-100894866D01*
X138777414Y-100919990D01*
X138777416Y-100919994D01*
X138822793Y-101022765D01*
X138902232Y-101102204D01*
X138902234Y-101102205D01*
X138902235Y-101102206D01*
X139005009Y-101147585D01*
X139030135Y-101150500D01*
X140819864Y-101150499D01*
X140844991Y-101147585D01*
X140947765Y-101102206D01*
X141027206Y-101022765D01*
X141072585Y-100919991D01*
X141075500Y-100894865D01*
X141075499Y-100199306D01*
X141095501Y-100131188D01*
X141149157Y-100084695D01*
X141219430Y-100074591D01*
X141284011Y-100104084D01*
X141322395Y-100163811D01*
X141326961Y-100187681D01*
X141329243Y-100212307D01*
X141387593Y-100417384D01*
X141387594Y-100417386D01*
X141387595Y-100417389D01*
X141482634Y-100608255D01*
X141590955Y-100751694D01*
X141611129Y-100778408D01*
X141768699Y-100922053D01*
X141768701Y-100922054D01*
X141949974Y-101034294D01*
X141949975Y-101034294D01*
X141949981Y-101034298D01*
X142148802Y-101111321D01*
X142358390Y-101150500D01*
X142358393Y-101150500D01*
X142571607Y-101150500D01*
X142571610Y-101150500D01*
X142781198Y-101111321D01*
X142980019Y-101034298D01*
X143161302Y-100922052D01*
X143318872Y-100778407D01*
X143447366Y-100608255D01*
X143542405Y-100417389D01*
X143600756Y-100212310D01*
X143609537Y-100117538D01*
X143635739Y-100051555D01*
X143693456Y-100010211D01*
X143764362Y-100006634D01*
X143825946Y-100041960D01*
X143858656Y-100104973D01*
X143860461Y-100117529D01*
X143861873Y-100132758D01*
X143869244Y-100212311D01*
X143927593Y-100417384D01*
X143927594Y-100417386D01*
X143927595Y-100417389D01*
X144022634Y-100608255D01*
X144130955Y-100751694D01*
X144151129Y-100778408D01*
X144308699Y-100922053D01*
X144308701Y-100922054D01*
X144489974Y-101034294D01*
X144489975Y-101034294D01*
X144489981Y-101034298D01*
X144688802Y-101111321D01*
X144898390Y-101150500D01*
X144898393Y-101150500D01*
X145111607Y-101150500D01*
X145111610Y-101150500D01*
X145321198Y-101111321D01*
X145520019Y-101034298D01*
X145701302Y-100922052D01*
X145858872Y-100778407D01*
X145987366Y-100608255D01*
X146082405Y-100417389D01*
X146140756Y-100212310D01*
X146149537Y-100117536D01*
X146175738Y-100051556D01*
X146233454Y-100010211D01*
X146304360Y-100006634D01*
X146365945Y-100041959D01*
X146398654Y-100104971D01*
X146400461Y-100117538D01*
X146409243Y-100212306D01*
X146467593Y-100417384D01*
X146467594Y-100417386D01*
X146467595Y-100417389D01*
X146562634Y-100608255D01*
X146670955Y-100751694D01*
X146691129Y-100778408D01*
X146848699Y-100922053D01*
X146848701Y-100922054D01*
X147029974Y-101034294D01*
X147029975Y-101034294D01*
X147029981Y-101034298D01*
X147228802Y-101111321D01*
X147438390Y-101150500D01*
X147438393Y-101150500D01*
X147651607Y-101150500D01*
X147651610Y-101150500D01*
X147861198Y-101111321D01*
X148060019Y-101034298D01*
X148241302Y-100922052D01*
X148398872Y-100778407D01*
X148527366Y-100608255D01*
X148622405Y-100417389D01*
X148680756Y-100212310D01*
X148700429Y-100000000D01*
X148680756Y-99787690D01*
X148622405Y-99582611D01*
X148527366Y-99391745D01*
X148398872Y-99221593D01*
X148241302Y-99077948D01*
X148205166Y-99055573D01*
X148157781Y-99002707D01*
X148145500Y-98948448D01*
X148145500Y-98588494D01*
X148146040Y-98580262D01*
X148150682Y-98545000D01*
X148150682Y-98544999D01*
X148130044Y-98388239D01*
X148069537Y-98242161D01*
X148069536Y-98242160D01*
X148069536Y-98242159D01*
X148060240Y-98230044D01*
X148050943Y-98217927D01*
X147973283Y-98116719D01*
X147945055Y-98095058D01*
X147938861Y-98089626D01*
X146387405Y-96538170D01*
X146353379Y-96475858D01*
X146350500Y-96449075D01*
X146350500Y-95682484D01*
X146370502Y-95614363D01*
X146424158Y-95567870D01*
X146494432Y-95557766D01*
X146559012Y-95587260D01*
X146577047Y-95606549D01*
X146604755Y-95643240D01*
X146694309Y-95761830D01*
X146848526Y-95902417D01*
X146848527Y-95902418D01*
X147025938Y-96012267D01*
X147025945Y-96012270D01*
X147025948Y-96012272D01*
X147220535Y-96087656D01*
X147425661Y-96126000D01*
X147425663Y-96126000D01*
X147634337Y-96126000D01*
X147634339Y-96126000D01*
X147839465Y-96087656D01*
X148034052Y-96012272D01*
X148034057Y-96012268D01*
X148034061Y-96012267D01*
X148159326Y-95934705D01*
X148211474Y-95902417D01*
X148365689Y-95761831D01*
X148491446Y-95595302D01*
X148584462Y-95408501D01*
X148641570Y-95207788D01*
X148660824Y-95000000D01*
X148641570Y-94792212D01*
X148641569Y-94792208D01*
X148584464Y-94591504D01*
X148584462Y-94591499D01*
X148491446Y-94404698D01*
X148445444Y-94343781D01*
X148365690Y-94238169D01*
X148211473Y-94097582D01*
X148211472Y-94097581D01*
X148034061Y-93987732D01*
X148034046Y-93987725D01*
X147839472Y-93912346D01*
X147839469Y-93912345D01*
X147839466Y-93912344D01*
X147839465Y-93912344D01*
X147634339Y-93874000D01*
X147425661Y-93874000D01*
X147220535Y-93912344D01*
X147220530Y-93912345D01*
X147220527Y-93912346D01*
X147025953Y-93987725D01*
X147025938Y-93987732D01*
X146848527Y-94097581D01*
X146848526Y-94097582D01*
X146694309Y-94238169D01*
X146577050Y-94393447D01*
X146520036Y-94435755D01*
X146449200Y-94440522D01*
X146387031Y-94406236D01*
X146353268Y-94343781D01*
X146350500Y-94317515D01*
X146350500Y-92543494D01*
X146351040Y-92535262D01*
X146355682Y-92500000D01*
X146355682Y-92499999D01*
X146335044Y-92343239D01*
X146331500Y-92334681D01*
X146274536Y-92197159D01*
X146202450Y-92103215D01*
X146178282Y-92071718D01*
X146178281Y-92071717D01*
X146150055Y-92050058D01*
X146143861Y-92044626D01*
X145637405Y-91538170D01*
X145603379Y-91475858D01*
X145600500Y-91449075D01*
X145600500Y-87750002D01*
X146544355Y-87750002D01*
X146564859Y-87918871D01*
X146625179Y-88077925D01*
X146625181Y-88077929D01*
X146721816Y-88217928D01*
X146721818Y-88217930D01*
X146807112Y-88293494D01*
X146849148Y-88330734D01*
X146999775Y-88409790D01*
X146999776Y-88409790D01*
X146999778Y-88409791D01*
X147156461Y-88448409D01*
X147164944Y-88450500D01*
X147164947Y-88450500D01*
X147335053Y-88450500D01*
X147335056Y-88450500D01*
X147500225Y-88409790D01*
X147547588Y-88384931D01*
X147585693Y-88364933D01*
X147644248Y-88350500D01*
X151199075Y-88350500D01*
X151267196Y-88370502D01*
X151288170Y-88387405D01*
X151362595Y-88461830D01*
X151396621Y-88524142D01*
X151399500Y-88550925D01*
X151399500Y-90847576D01*
X151379498Y-90915697D01*
X151377196Y-90919151D01*
X151375185Y-90922063D01*
X151375179Y-90922075D01*
X151314859Y-91081128D01*
X151294355Y-91249997D01*
X151294355Y-91250002D01*
X151314859Y-91418871D01*
X151375179Y-91577925D01*
X151375181Y-91577929D01*
X151440163Y-91672070D01*
X151471817Y-91717929D01*
X151599148Y-91830734D01*
X151749775Y-91909790D01*
X151749776Y-91909790D01*
X151749778Y-91909791D01*
X151906461Y-91948409D01*
X151914944Y-91950500D01*
X151914947Y-91950500D01*
X152085053Y-91950500D01*
X152085056Y-91950500D01*
X152250225Y-91909790D01*
X152400852Y-91830734D01*
X152528183Y-91717929D01*
X152624818Y-91577930D01*
X152685140Y-91418872D01*
X152705645Y-91250000D01*
X152685140Y-91081128D01*
X152624818Y-90922070D01*
X152624816Y-90922067D01*
X152624814Y-90922063D01*
X152622804Y-90919151D01*
X152621989Y-90916681D01*
X152621277Y-90915324D01*
X152621502Y-90915205D01*
X152600568Y-90851727D01*
X152600500Y-90847576D01*
X152600500Y-88293494D01*
X152601040Y-88285262D01*
X152605682Y-88250000D01*
X152605682Y-88249999D01*
X152585044Y-88093239D01*
X152578703Y-88077929D01*
X152524536Y-87947159D01*
X152452450Y-87853215D01*
X152428282Y-87821718D01*
X152428281Y-87821717D01*
X152400055Y-87800058D01*
X152393861Y-87794626D01*
X151955367Y-87356132D01*
X151949940Y-87349944D01*
X151928282Y-87321718D01*
X151928280Y-87321717D01*
X151928280Y-87321716D01*
X151802842Y-87225465D01*
X151802841Y-87225464D01*
X151784653Y-87217930D01*
X151656760Y-87164955D01*
X151539361Y-87149500D01*
X151500000Y-87144318D01*
X151499999Y-87144318D01*
X151464738Y-87148960D01*
X151456506Y-87149500D01*
X147644248Y-87149500D01*
X147585693Y-87135067D01*
X147500229Y-87090212D01*
X147500221Y-87090208D01*
X147335059Y-87049500D01*
X147335056Y-87049500D01*
X147164944Y-87049500D01*
X147164940Y-87049500D01*
X146999778Y-87090208D01*
X146999774Y-87090210D01*
X146849148Y-87169265D01*
X146849142Y-87169270D01*
X146721818Y-87282069D01*
X146721816Y-87282071D01*
X146625181Y-87422070D01*
X146625179Y-87422074D01*
X146564859Y-87581128D01*
X146544355Y-87749997D01*
X146544355Y-87750002D01*
X145600500Y-87750002D01*
X145600500Y-87043494D01*
X145601040Y-87035262D01*
X145605682Y-87000000D01*
X145605682Y-86999999D01*
X145585044Y-86843239D01*
X145524536Y-86697160D01*
X145524536Y-86697159D01*
X145428282Y-86571718D01*
X145415962Y-86562265D01*
X145400055Y-86550058D01*
X145393861Y-86544626D01*
X144527328Y-85678093D01*
X144521901Y-85671905D01*
X144500243Y-85643679D01*
X144500241Y-85643678D01*
X144500241Y-85643677D01*
X144374803Y-85547426D01*
X144374802Y-85547425D01*
X144239129Y-85491227D01*
X144228721Y-85486916D01*
X144111322Y-85471461D01*
X144071961Y-85466279D01*
X144071960Y-85466279D01*
X144036699Y-85470921D01*
X144028467Y-85471461D01*
X142943654Y-85471461D01*
X142885099Y-85457028D01*
X142799635Y-85412173D01*
X142799627Y-85412169D01*
X142634465Y-85371461D01*
X142634462Y-85371461D01*
X142464350Y-85371461D01*
X142464346Y-85371461D01*
X142299184Y-85412169D01*
X142299181Y-85412171D01*
X142285053Y-85419586D01*
X142215439Y-85433531D01*
X142149337Y-85407626D01*
X142107734Y-85350096D01*
X142100500Y-85308017D01*
X142100500Y-85033824D01*
X142120502Y-84965703D01*
X142174158Y-84919210D01*
X142244432Y-84909106D01*
X142256644Y-84911483D01*
X142414944Y-84950500D01*
X142414947Y-84950500D01*
X142585053Y-84950500D01*
X142585056Y-84950500D01*
X142750225Y-84909790D01*
X142900852Y-84830734D01*
X143028183Y-84717929D01*
X143124818Y-84577930D01*
X143185140Y-84418872D01*
X143191974Y-84362581D01*
X143205645Y-84250002D01*
X143205645Y-84249997D01*
X143185140Y-84081128D01*
X143154374Y-84000002D01*
X145044355Y-84000002D01*
X145064859Y-84168871D01*
X145125179Y-84327925D01*
X145125181Y-84327929D01*
X145221816Y-84467928D01*
X145221818Y-84467930D01*
X145345981Y-84577929D01*
X145349148Y-84580734D01*
X145499775Y-84659790D01*
X145499776Y-84659790D01*
X145499778Y-84659791D01*
X145656461Y-84698409D01*
X145664944Y-84700500D01*
X145664947Y-84700500D01*
X145835053Y-84700500D01*
X145835056Y-84700500D01*
X146000225Y-84659790D01*
X146047588Y-84634931D01*
X146085693Y-84614933D01*
X146144248Y-84600500D01*
X151206506Y-84600500D01*
X151214738Y-84601040D01*
X151249999Y-84605682D01*
X151250000Y-84605682D01*
X151406762Y-84585044D01*
X151552841Y-84524536D01*
X151584817Y-84500000D01*
X151678282Y-84428282D01*
X151699940Y-84400054D01*
X151705361Y-84393872D01*
X152393872Y-83705361D01*
X152400054Y-83699940D01*
X152428282Y-83678282D01*
X152524536Y-83552841D01*
X152585044Y-83406762D01*
X152600500Y-83289361D01*
X152605682Y-83250000D01*
X152601040Y-83214737D01*
X152600500Y-83206505D01*
X152600500Y-82652423D01*
X152620502Y-82584302D01*
X152622806Y-82580845D01*
X152623131Y-82580373D01*
X152624818Y-82577930D01*
X152685140Y-82418872D01*
X152705645Y-82250000D01*
X152693292Y-82148269D01*
X152685140Y-82081128D01*
X152624820Y-81922074D01*
X152624818Y-81922070D01*
X152528183Y-81782071D01*
X152528181Y-81782069D01*
X152400857Y-81669270D01*
X152400851Y-81669265D01*
X152250225Y-81590210D01*
X152250221Y-81590208D01*
X152085059Y-81549500D01*
X152085056Y-81549500D01*
X151914944Y-81549500D01*
X151914940Y-81549500D01*
X151749778Y-81590208D01*
X151749774Y-81590210D01*
X151599148Y-81669265D01*
X151599142Y-81669270D01*
X151471818Y-81782069D01*
X151471816Y-81782071D01*
X151375181Y-81922070D01*
X151375179Y-81922074D01*
X151314859Y-82081128D01*
X151294355Y-82249997D01*
X151294355Y-82250002D01*
X151314859Y-82418871D01*
X151375183Y-82577932D01*
X151377194Y-82580845D01*
X151378009Y-82583317D01*
X151378725Y-82584681D01*
X151378498Y-82584799D01*
X151399432Y-82648269D01*
X151399500Y-82652423D01*
X151399500Y-82949075D01*
X151379498Y-83017196D01*
X151362595Y-83038170D01*
X151038170Y-83362595D01*
X150975858Y-83396621D01*
X150949075Y-83399500D01*
X146144248Y-83399500D01*
X146085693Y-83385067D01*
X146000229Y-83340212D01*
X146000221Y-83340208D01*
X145835059Y-83299500D01*
X145835056Y-83299500D01*
X145664944Y-83299500D01*
X145664940Y-83299500D01*
X145499778Y-83340208D01*
X145499774Y-83340210D01*
X145349148Y-83419265D01*
X145349142Y-83419270D01*
X145221818Y-83532069D01*
X145221816Y-83532071D01*
X145125181Y-83672070D01*
X145125179Y-83672074D01*
X145064859Y-83831128D01*
X145044355Y-83999997D01*
X145044355Y-84000002D01*
X143154374Y-84000002D01*
X143124820Y-83922074D01*
X143124818Y-83922070D01*
X143028183Y-83782071D01*
X143028181Y-83782069D01*
X142900857Y-83669270D01*
X142900851Y-83669265D01*
X142750225Y-83590210D01*
X142750221Y-83590208D01*
X142585059Y-83549500D01*
X142585056Y-83549500D01*
X142414944Y-83549500D01*
X142414940Y-83549500D01*
X142249778Y-83590208D01*
X142249770Y-83590212D01*
X142164307Y-83635067D01*
X142105752Y-83649500D01*
X141793494Y-83649500D01*
X141785262Y-83648960D01*
X141750001Y-83644318D01*
X141750000Y-83644318D01*
X141710639Y-83649500D01*
X141593239Y-83664955D01*
X141447160Y-83725463D01*
X141447152Y-83725468D01*
X141321719Y-83821717D01*
X141315876Y-83827560D01*
X141313395Y-83825079D01*
X141269107Y-83857409D01*
X141198235Y-83861620D01*
X141136337Y-83826846D01*
X141103066Y-83764129D01*
X141100500Y-83738831D01*
X141100500Y-82152423D01*
X141120502Y-82084302D01*
X141122806Y-82080845D01*
X141123131Y-82080373D01*
X141124818Y-82077930D01*
X141185140Y-81918872D01*
X141205645Y-81750000D01*
X141203299Y-81730682D01*
X141185140Y-81581128D01*
X141124820Y-81422074D01*
X141124818Y-81422070D01*
X141028183Y-81282071D01*
X141028181Y-81282069D01*
X140900857Y-81169270D01*
X140900851Y-81169265D01*
X140750225Y-81090210D01*
X140750221Y-81090208D01*
X140585059Y-81049500D01*
X140585056Y-81049500D01*
X140414944Y-81049500D01*
X140414940Y-81049500D01*
X140249778Y-81090208D01*
X140249774Y-81090210D01*
X140099148Y-81169265D01*
X140099142Y-81169270D01*
X139971818Y-81282069D01*
X139971816Y-81282071D01*
X139875181Y-81422070D01*
X139875179Y-81422074D01*
X139814859Y-81581128D01*
X139794355Y-81749997D01*
X139794355Y-81750002D01*
X139814859Y-81918871D01*
X139875183Y-82077932D01*
X139877194Y-82080845D01*
X139878009Y-82083317D01*
X139878725Y-82084681D01*
X139878498Y-82084799D01*
X139899432Y-82148269D01*
X139899500Y-82152423D01*
X139899500Y-88949073D01*
X139879498Y-89017194D01*
X139862595Y-89038169D01*
X139106135Y-89794628D01*
X139099934Y-89800066D01*
X139071718Y-89821717D01*
X139047550Y-89853215D01*
X138975465Y-89947157D01*
X138975463Y-89947160D01*
X138914955Y-90093239D01*
X138894318Y-90249999D01*
X138894318Y-90250000D01*
X138898960Y-90285262D01*
X138899500Y-90293494D01*
X138899500Y-91597576D01*
X138879498Y-91665697D01*
X138877196Y-91669151D01*
X138875185Y-91672063D01*
X138875179Y-91672075D01*
X138814859Y-91831128D01*
X138794355Y-91999997D01*
X138794355Y-92000002D01*
X138814859Y-92168871D01*
X138875183Y-92327932D01*
X138877194Y-92330845D01*
X138878009Y-92333317D01*
X138878725Y-92334681D01*
X138878498Y-92334799D01*
X138899432Y-92398269D01*
X138899500Y-92402423D01*
X138899500Y-95456505D01*
X138898960Y-95464737D01*
X138894318Y-95499999D01*
X138894318Y-95500000D01*
X138899500Y-95539361D01*
X138914955Y-95656760D01*
X138958477Y-95761830D01*
X138975464Y-95802841D01*
X139071718Y-95928282D01*
X139099944Y-95949940D01*
X139106132Y-95955367D01*
X139807526Y-96656760D01*
X140279825Y-97129059D01*
X140279830Y-97129066D01*
X141827595Y-98676830D01*
X141861620Y-98739142D01*
X141864500Y-98765925D01*
X141864500Y-98948448D01*
X141844498Y-99016569D01*
X141804833Y-99055573D01*
X141768698Y-99077948D01*
X141768696Y-99077949D01*
X141768697Y-99077949D01*
X141611129Y-99221591D01*
X141524293Y-99336580D01*
X141482634Y-99391745D01*
X141389130Y-99579526D01*
X141387593Y-99582615D01*
X141329243Y-99787693D01*
X141326961Y-99812320D01*
X141300759Y-99878305D01*
X141243041Y-99919648D01*
X141172135Y-99923224D01*
X141110551Y-99887897D01*
X141077843Y-99824884D01*
X141075499Y-99800693D01*
X141075499Y-99105140D01*
X141075499Y-99105136D01*
X141072585Y-99080009D01*
X141027206Y-98977235D01*
X141027206Y-98977234D01*
X140947767Y-98897795D01*
X140947765Y-98897794D01*
X140844989Y-98852414D01*
X140844990Y-98852414D01*
X140819868Y-98849500D01*
X139030140Y-98849500D01*
X139030133Y-98849501D01*
X139005009Y-98852414D01*
X139005005Y-98852416D01*
X138902234Y-98897793D01*
X138822795Y-98977232D01*
X138822794Y-98977234D01*
X138777414Y-99080009D01*
X138774500Y-99105129D01*
X138774500Y-100894859D01*
X135244470Y-100894859D01*
X135177624Y-100759308D01*
X135174471Y-100751694D01*
X135140790Y-100652473D01*
X135094104Y-100514943D01*
X135091972Y-100506983D01*
X135043194Y-100261759D01*
X135042122Y-100253604D01*
X135025634Y-100002058D01*
X135025500Y-99997940D01*
X135025500Y-86750002D01*
X137294355Y-86750002D01*
X137314859Y-86918871D01*
X137375179Y-87077925D01*
X137375181Y-87077929D01*
X137471816Y-87217928D01*
X137471818Y-87217930D01*
X137588968Y-87321716D01*
X137599148Y-87330734D01*
X137749775Y-87409790D01*
X137749776Y-87409790D01*
X137749778Y-87409791D01*
X137855319Y-87435804D01*
X137914944Y-87450500D01*
X137914947Y-87450500D01*
X138085053Y-87450500D01*
X138085056Y-87450500D01*
X138250225Y-87409790D01*
X138400852Y-87330734D01*
X138528183Y-87217929D01*
X138624818Y-87077930D01*
X138685140Y-86918872D01*
X138705645Y-86750000D01*
X138685140Y-86581128D01*
X138624818Y-86422070D01*
X138624816Y-86422067D01*
X138624814Y-86422063D01*
X138622804Y-86419151D01*
X138621989Y-86416681D01*
X138621277Y-86415324D01*
X138621502Y-86415205D01*
X138600568Y-86351727D01*
X138600500Y-86347576D01*
X138600500Y-79152423D01*
X138620502Y-79084302D01*
X138622806Y-79080845D01*
X138623131Y-79080373D01*
X138624818Y-79077930D01*
X138685140Y-78918872D01*
X138688036Y-78895026D01*
X138700104Y-78795631D01*
X138728170Y-78730418D01*
X138736079Y-78721733D01*
X139170410Y-78287403D01*
X139232723Y-78253378D01*
X139259506Y-78250499D01*
X141198500Y-78250499D01*
X141266621Y-78270501D01*
X141313114Y-78324157D01*
X141324500Y-78376499D01*
X141324500Y-79894859D01*
X141324501Y-79894866D01*
X141327414Y-79919990D01*
X141327416Y-79919994D01*
X141372793Y-80022765D01*
X141452232Y-80102204D01*
X141452234Y-80102205D01*
X141452235Y-80102206D01*
X141555009Y-80147585D01*
X141580135Y-80150500D01*
X143369864Y-80150499D01*
X143394991Y-80147585D01*
X143497765Y-80102206D01*
X143577206Y-80022765D01*
X143622585Y-79919991D01*
X143625500Y-79894865D01*
X143625499Y-79199306D01*
X143645501Y-79131187D01*
X143699157Y-79084694D01*
X143769430Y-79074590D01*
X143834011Y-79104083D01*
X143872395Y-79163810D01*
X143876961Y-79187680D01*
X143879243Y-79212307D01*
X143937593Y-79417384D01*
X143937594Y-79417386D01*
X143937595Y-79417389D01*
X144032634Y-79608255D01*
X144161128Y-79778407D01*
X144318698Y-79922052D01*
X144344829Y-79938232D01*
X144392217Y-79991096D01*
X144404500Y-80045359D01*
X144404500Y-80461505D01*
X144403960Y-80469737D01*
X144399318Y-80504999D01*
X144399318Y-80505000D01*
X144404500Y-80544361D01*
X144419955Y-80661760D01*
X144480463Y-80807839D01*
X144480465Y-80807842D01*
X144572879Y-80928280D01*
X144576718Y-80933282D01*
X144604944Y-80954940D01*
X144611132Y-80960367D01*
X145169625Y-81518860D01*
X145175058Y-81525055D01*
X145196716Y-81553280D01*
X145196720Y-81553284D01*
X145233008Y-81581129D01*
X145285509Y-81621413D01*
X145322159Y-81649536D01*
X145468238Y-81710044D01*
X145625000Y-81730682D01*
X145625001Y-81730682D01*
X145660262Y-81726040D01*
X145668494Y-81725500D01*
X148270791Y-81725500D01*
X148338912Y-81745502D01*
X148385405Y-81799158D01*
X148395509Y-81869432D01*
X148377730Y-81914797D01*
X148378724Y-81915319D01*
X148375182Y-81922066D01*
X148314859Y-82081128D01*
X148294355Y-82249997D01*
X148294355Y-82250002D01*
X148314859Y-82418871D01*
X148375179Y-82577925D01*
X148375181Y-82577929D01*
X148399500Y-82613160D01*
X148471817Y-82717929D01*
X148599148Y-82830734D01*
X148749775Y-82909790D01*
X148749776Y-82909790D01*
X148749778Y-82909791D01*
X148906461Y-82948409D01*
X148914944Y-82950500D01*
X148914947Y-82950500D01*
X149085053Y-82950500D01*
X149085056Y-82950500D01*
X149250225Y-82909790D01*
X149400852Y-82830734D01*
X149528183Y-82717929D01*
X149624818Y-82577930D01*
X149685140Y-82418872D01*
X149705645Y-82250000D01*
X149693292Y-82148269D01*
X149685140Y-82081128D01*
X149624817Y-81922066D01*
X149621276Y-81915319D01*
X149622707Y-81914567D01*
X149603277Y-81855654D01*
X149621023Y-81786911D01*
X149673117Y-81738674D01*
X149729209Y-81725500D01*
X150831506Y-81725500D01*
X150839738Y-81726040D01*
X150874999Y-81730682D01*
X150875000Y-81730682D01*
X151031762Y-81710044D01*
X151177841Y-81649536D01*
X151266992Y-81581128D01*
X151303282Y-81553282D01*
X151324937Y-81525058D01*
X151330365Y-81518868D01*
X151893872Y-80955362D01*
X151900055Y-80949940D01*
X151928282Y-80928282D01*
X151966649Y-80878282D01*
X152024536Y-80802841D01*
X152085044Y-80656762D01*
X152105682Y-80500000D01*
X152105682Y-80499999D01*
X152101040Y-80464737D01*
X152100500Y-80456505D01*
X152100500Y-80429494D01*
X152120502Y-80361373D01*
X152174158Y-80314880D01*
X152244432Y-80304776D01*
X152249632Y-80305636D01*
X152250000Y-80305705D01*
X152250004Y-80305705D01*
X152871886Y-80305705D01*
X152871889Y-80305705D01*
X152927126Y-80297763D01*
X152997399Y-80307867D01*
X153034147Y-80333382D01*
X153362597Y-80661832D01*
X153396620Y-80724141D01*
X153399500Y-80750924D01*
X153399500Y-96199073D01*
X153379498Y-96267194D01*
X153362595Y-96288169D01*
X152605272Y-97045491D01*
X152546333Y-97078733D01*
X152499781Y-97090207D01*
X152499774Y-97090210D01*
X152349148Y-97169265D01*
X152349142Y-97169270D01*
X152221818Y-97282069D01*
X152221816Y-97282071D01*
X152125181Y-97422070D01*
X152125179Y-97422074D01*
X152064859Y-97581128D01*
X152044355Y-97749997D01*
X152044355Y-97750002D01*
X152064859Y-97918871D01*
X152125179Y-98077925D01*
X152125181Y-98077929D01*
X152151956Y-98116719D01*
X152221817Y-98217929D01*
X152349148Y-98330734D01*
X152499775Y-98409790D01*
X152499776Y-98409790D01*
X152499778Y-98409791D01*
X152656461Y-98448409D01*
X152664944Y-98450500D01*
X152664947Y-98450500D01*
X152835053Y-98450500D01*
X152835056Y-98450500D01*
X153000225Y-98409790D01*
X153150852Y-98330734D01*
X153278183Y-98217929D01*
X153374818Y-98077930D01*
X153428470Y-97936459D01*
X153457183Y-97892050D01*
X154393872Y-96955361D01*
X154400054Y-96949940D01*
X154428282Y-96928282D01*
X154524536Y-96802841D01*
X154585044Y-96656762D01*
X154600500Y-96539361D01*
X154605682Y-96500000D01*
X154601040Y-96464737D01*
X154600500Y-96456505D01*
X154600500Y-80493494D01*
X154601040Y-80485262D01*
X154605682Y-80450000D01*
X154605682Y-80449999D01*
X154585044Y-80293239D01*
X154581265Y-80284114D01*
X154524536Y-80147159D01*
X154524531Y-80147152D01*
X154516176Y-80136263D01*
X154428283Y-80021719D01*
X154400060Y-80000062D01*
X154393858Y-79994623D01*
X153642609Y-79243373D01*
X153608584Y-79181061D01*
X153605705Y-79154278D01*
X153605705Y-79066638D01*
X153606987Y-79048709D01*
X153607735Y-79043505D01*
X153607735Y-78956492D01*
X153607734Y-78956487D01*
X153587275Y-78814190D01*
X153587274Y-78814187D01*
X153587273Y-78814178D01*
X153562759Y-78730690D01*
X153558663Y-78721722D01*
X153503033Y-78599909D01*
X153503030Y-78599904D01*
X153497728Y-78591654D01*
X153455990Y-78526707D01*
X153361836Y-78418046D01*
X153296074Y-78361063D01*
X153238647Y-78324157D01*
X153175121Y-78283331D01*
X153095970Y-78247184D01*
X152958024Y-78206680D01*
X152958017Y-78206678D01*
X152940790Y-78204201D01*
X152871889Y-78194295D01*
X152250000Y-78194295D01*
X152249996Y-78194295D01*
X152221788Y-78195599D01*
X152221787Y-78195599D01*
X152163846Y-78212085D01*
X152092852Y-78211488D01*
X152078474Y-78206160D01*
X152069993Y-78202415D01*
X152069990Y-78202414D01*
X152044870Y-78199500D01*
X152044865Y-78199500D01*
X151323646Y-78199500D01*
X151255525Y-78179498D01*
X151209032Y-78125842D01*
X151198565Y-78058312D01*
X151205645Y-78000002D01*
X151205645Y-77999997D01*
X151185140Y-77831128D01*
X151124820Y-77672074D01*
X151124818Y-77672070D01*
X151028183Y-77532071D01*
X151028181Y-77532069D01*
X150900857Y-77419270D01*
X150900851Y-77419265D01*
X150750225Y-77340210D01*
X150750221Y-77340208D01*
X150585059Y-77299500D01*
X150585056Y-77299500D01*
X150414944Y-77299500D01*
X150414940Y-77299500D01*
X150249778Y-77340208D01*
X150249774Y-77340210D01*
X150099148Y-77419265D01*
X150099142Y-77419270D01*
X149971818Y-77532069D01*
X149971816Y-77532071D01*
X149875181Y-77672070D01*
X149875179Y-77672074D01*
X149823553Y-77808203D01*
X149782451Y-77863481D01*
X149771719Y-77871716D01*
X149747550Y-77903215D01*
X149675465Y-77997157D01*
X149675463Y-77997160D01*
X149614955Y-78143239D01*
X149594318Y-78299999D01*
X149594318Y-78300000D01*
X149598960Y-78335262D01*
X149599500Y-78343494D01*
X149599500Y-78415671D01*
X149579498Y-78483792D01*
X149568726Y-78498181D01*
X149544016Y-78526698D01*
X149544012Y-78526703D01*
X149496969Y-78599904D01*
X149496966Y-78599909D01*
X149437241Y-78730687D01*
X149412729Y-78814169D01*
X149412724Y-78814190D01*
X149392265Y-78956487D01*
X149392265Y-79043505D01*
X149393013Y-79048709D01*
X149394295Y-79066638D01*
X149394295Y-79433362D01*
X149393013Y-79451290D01*
X149392265Y-79456492D01*
X149392265Y-79543512D01*
X149412724Y-79685809D01*
X149412729Y-79685830D01*
X149437241Y-79769312D01*
X149496966Y-79900090D01*
X149496969Y-79900095D01*
X149544010Y-79973293D01*
X149638164Y-80081954D01*
X149703926Y-80138937D01*
X149787690Y-80192768D01*
X149824878Y-80216668D01*
X149904029Y-80252815D01*
X149988453Y-80277604D01*
X150048179Y-80315988D01*
X150077673Y-80380568D01*
X150067569Y-80450842D01*
X150021076Y-80504498D01*
X149952955Y-80524500D01*
X145925925Y-80524500D01*
X145857804Y-80504498D01*
X145836834Y-80487599D01*
X145642404Y-80293169D01*
X145608379Y-80230857D01*
X145605500Y-80204074D01*
X145605500Y-80057743D01*
X145625502Y-79989622D01*
X145665167Y-79950617D01*
X145711302Y-79922052D01*
X145868872Y-79778407D01*
X145997366Y-79608255D01*
X146092405Y-79417389D01*
X146150756Y-79212310D01*
X146159537Y-79117538D01*
X146185739Y-79051555D01*
X146243456Y-79010211D01*
X146314362Y-79006634D01*
X146375946Y-79041960D01*
X146408656Y-79104973D01*
X146410461Y-79117529D01*
X146416962Y-79187680D01*
X146419244Y-79212311D01*
X146477593Y-79417384D01*
X146477594Y-79417386D01*
X146477595Y-79417389D01*
X146572634Y-79608255D01*
X146694258Y-79769310D01*
X146701129Y-79778408D01*
X146858699Y-79922053D01*
X146858701Y-79922054D01*
X147039974Y-80034294D01*
X147039975Y-80034294D01*
X147039981Y-80034298D01*
X147238802Y-80111321D01*
X147448390Y-80150500D01*
X147448393Y-80150500D01*
X147661607Y-80150500D01*
X147661610Y-80150500D01*
X147871198Y-80111321D01*
X148070019Y-80034298D01*
X148251302Y-79922052D01*
X148408872Y-79778407D01*
X148537366Y-79608255D01*
X148632405Y-79417389D01*
X148690756Y-79212310D01*
X148710429Y-79000000D01*
X148690756Y-78787690D01*
X148632405Y-78582611D01*
X148537366Y-78391745D01*
X148408872Y-78221593D01*
X148397788Y-78211488D01*
X148251300Y-78077946D01*
X148251298Y-78077945D01*
X148070025Y-77965705D01*
X148070021Y-77965703D01*
X148070019Y-77965702D01*
X147941335Y-77915850D01*
X147871199Y-77888679D01*
X147818801Y-77878884D01*
X147661610Y-77849500D01*
X147448390Y-77849500D01*
X147238802Y-77888679D01*
X147238800Y-77888679D01*
X147238788Y-77888682D01*
X147234254Y-77889972D01*
X147163260Y-77889369D01*
X147110689Y-77857874D01*
X146696534Y-77443719D01*
X146679628Y-77422740D01*
X146677142Y-77418871D01*
X146637958Y-77384918D01*
X146634678Y-77381864D01*
X146623592Y-77370778D01*
X146611035Y-77361378D01*
X146607543Y-77358564D01*
X146607542Y-77358563D01*
X146568372Y-77324622D01*
X146568370Y-77324621D01*
X146568369Y-77324620D01*
X146568366Y-77324618D01*
X146564177Y-77322705D01*
X146541023Y-77308967D01*
X146537331Y-77306204D01*
X146537330Y-77306203D01*
X146515290Y-77297982D01*
X146488756Y-77288085D01*
X146484602Y-77286364D01*
X146437461Y-77264835D01*
X146437454Y-77264833D01*
X146432882Y-77264176D01*
X146406807Y-77257520D01*
X146402487Y-77255909D01*
X146402479Y-77255907D01*
X146350777Y-77252208D01*
X146346310Y-77251728D01*
X146330798Y-77249499D01*
X146315129Y-77249499D01*
X146310633Y-77249338D01*
X146258926Y-77245640D01*
X146258925Y-77245640D01*
X146254426Y-77246619D01*
X146227641Y-77249499D01*
X146110614Y-77249499D01*
X146042493Y-77229497D01*
X145996000Y-77175841D01*
X145985896Y-77105567D01*
X145997821Y-77067339D01*
X146092405Y-76877389D01*
X146150756Y-76672310D01*
X146170429Y-76460000D01*
X146150756Y-76247690D01*
X146092405Y-76042611D01*
X145997366Y-75851745D01*
X145868872Y-75681593D01*
X145711302Y-75537948D01*
X145711300Y-75537946D01*
X145711298Y-75537945D01*
X145530025Y-75425705D01*
X145530021Y-75425703D01*
X145530019Y-75425702D01*
X145408221Y-75378517D01*
X145331199Y-75348679D01*
X145278801Y-75338884D01*
X145121610Y-75309500D01*
X144908390Y-75309500D01*
X144782637Y-75333007D01*
X144698800Y-75348679D01*
X144544754Y-75408356D01*
X144499981Y-75425702D01*
X144499980Y-75425702D01*
X144499979Y-75425703D01*
X144499974Y-75425705D01*
X144318701Y-75537945D01*
X144318699Y-75537946D01*
X144161129Y-75681591D01*
X144074292Y-75796580D01*
X144032634Y-75851745D01*
X143939130Y-76039526D01*
X143937593Y-76042615D01*
X143879244Y-76247688D01*
X143879243Y-76247690D01*
X143879244Y-76247690D01*
X143870462Y-76342461D01*
X143844261Y-76408444D01*
X143786544Y-76449788D01*
X143715638Y-76453365D01*
X143654053Y-76418039D01*
X143621344Y-76355026D01*
X143619538Y-76342470D01*
X143610756Y-76247690D01*
X143552405Y-76042611D01*
X143457366Y-75851745D01*
X143328872Y-75681593D01*
X143171302Y-75537948D01*
X143171300Y-75537946D01*
X143171298Y-75537945D01*
X142990025Y-75425705D01*
X142990021Y-75425703D01*
X142990019Y-75425702D01*
X142868222Y-75378517D01*
X142791199Y-75348679D01*
X142738801Y-75338884D01*
X142581610Y-75309500D01*
X142368390Y-75309500D01*
X142242637Y-75333007D01*
X142158800Y-75348679D01*
X142004754Y-75408356D01*
X141959981Y-75425702D01*
X141959980Y-75425702D01*
X141959979Y-75425703D01*
X141959974Y-75425705D01*
X141778701Y-75537945D01*
X141778699Y-75537946D01*
X141621129Y-75681591D01*
X141534292Y-75796580D01*
X141492634Y-75851745D01*
X141399130Y-76039526D01*
X141397593Y-76042615D01*
X141339244Y-76247688D01*
X141319571Y-76459999D01*
X141339244Y-76672311D01*
X141397593Y-76877384D01*
X141397594Y-76877386D01*
X141397595Y-76877389D01*
X141492177Y-77067337D01*
X141504635Y-77137231D01*
X141477328Y-77202766D01*
X141418925Y-77243135D01*
X141379386Y-77249499D01*
X139067359Y-77249499D01*
X139040574Y-77246619D01*
X139036074Y-77245640D01*
X139036073Y-77245640D01*
X138984367Y-77249338D01*
X138979871Y-77249499D01*
X138964202Y-77249499D01*
X138948691Y-77251728D01*
X138944224Y-77252208D01*
X138892517Y-77255908D01*
X138892513Y-77255908D01*
X138888187Y-77257522D01*
X138862118Y-77264175D01*
X138857549Y-77264832D01*
X138857545Y-77264833D01*
X138810390Y-77286368D01*
X138806245Y-77288085D01*
X138799863Y-77290465D01*
X138757671Y-77306201D01*
X138753976Y-77308968D01*
X138730820Y-77322706D01*
X138729970Y-77323095D01*
X138726626Y-77324622D01*
X138687455Y-77358563D01*
X138683956Y-77361383D01*
X138671412Y-77370774D01*
X138671409Y-77370777D01*
X138660318Y-77381865D01*
X138657032Y-77384924D01*
X138617860Y-77418867D01*
X138617857Y-77418872D01*
X138615362Y-77422754D01*
X138598467Y-77443717D01*
X138029591Y-78012595D01*
X137967278Y-78046620D01*
X137940495Y-78049500D01*
X137914940Y-78049500D01*
X137749778Y-78090208D01*
X137749774Y-78090210D01*
X137599148Y-78169265D01*
X137599142Y-78169270D01*
X137471818Y-78282069D01*
X137471816Y-78282071D01*
X137375181Y-78422070D01*
X137375179Y-78422074D01*
X137314859Y-78581128D01*
X137294355Y-78749997D01*
X137294355Y-78750002D01*
X137314859Y-78918871D01*
X137343111Y-78993365D01*
X137373915Y-79074590D01*
X137375183Y-79077932D01*
X137377194Y-79080845D01*
X137378009Y-79083317D01*
X137378725Y-79084681D01*
X137378498Y-79084799D01*
X137399432Y-79148269D01*
X137399500Y-79152423D01*
X137399500Y-86347576D01*
X137379498Y-86415697D01*
X137377196Y-86419151D01*
X137375185Y-86422063D01*
X137375179Y-86422075D01*
X137314859Y-86581128D01*
X137294355Y-86749997D01*
X137294355Y-86750002D01*
X135025500Y-86750002D01*
X135025500Y-74002058D01*
X135025635Y-73997937D01*
X135034201Y-73867242D01*
X135042122Y-73746393D01*
X135043194Y-73738242D01*
X135091974Y-73493007D01*
X135094103Y-73485060D01*
X135174474Y-73248295D01*
X135177622Y-73240696D01*
X135288216Y-73016434D01*
X135292318Y-73009329D01*
X135431233Y-72801428D01*
X135436238Y-72794905D01*
X135601102Y-72606914D01*
X135606914Y-72601102D01*
X135794905Y-72436238D01*
X135801428Y-72431233D01*
X136009329Y-72292318D01*
X136016434Y-72288216D01*
X136240696Y-72177622D01*
X136248295Y-72174474D01*
X136485060Y-72094103D01*
X136493007Y-72091974D01*
X136738242Y-72043194D01*
X136746393Y-72042122D01*
X136997941Y-72025634D01*
X137002060Y-72025500D01*
X137008285Y-72025500D01*
X152991715Y-72025500D01*
X152997940Y-72025500D01*
X153002058Y-72025634D01*
G37*
G04 #@! TD.AperFunction*
G04 #@! TD*
M02*
