G04 #@! TF.GenerationSoftware,KiCad,Pcbnew,7.0.6*
G04 #@! TF.CreationDate,2023-11-12T09:34:07+05:30*
G04 #@! TF.ProjectId,AVR-Miner,4156522d-4d69-46e6-9572-2e6b69636164,rev?*
G04 #@! TF.SameCoordinates,Original*
G04 #@! TF.FileFunction,Legend,Bot*
G04 #@! TF.FilePolarity,Positive*
%FSLAX46Y46*%
G04 Gerber Fmt 4.6, Leading zero omitted, Abs format (unit mm)*
G04 Created by KiCad (PCBNEW 7.0.6) date 2023-11-12 09:34:07*
%MOMM*%
%LPD*%
G01*
G04 APERTURE LIST*
%ADD10C,0.150000*%
%ADD11C,0.120000*%
%ADD12C,0.010000*%
G04 APERTURE END LIST*
D10*
X153083333Y-76954819D02*
X153083333Y-77669104D01*
X153083333Y-77669104D02*
X153130952Y-77811961D01*
X153130952Y-77811961D02*
X153226190Y-77907200D01*
X153226190Y-77907200D02*
X153369047Y-77954819D01*
X153369047Y-77954819D02*
X153464285Y-77954819D01*
X152607142Y-77954819D02*
X152607142Y-76954819D01*
X152607142Y-76954819D02*
X152226190Y-76954819D01*
X152226190Y-76954819D02*
X152130952Y-77002438D01*
X152130952Y-77002438D02*
X152083333Y-77050057D01*
X152083333Y-77050057D02*
X152035714Y-77145295D01*
X152035714Y-77145295D02*
X152035714Y-77288152D01*
X152035714Y-77288152D02*
X152083333Y-77383390D01*
X152083333Y-77383390D02*
X152130952Y-77431009D01*
X152130952Y-77431009D02*
X152226190Y-77478628D01*
X152226190Y-77478628D02*
X152607142Y-77478628D01*
X151083333Y-77954819D02*
X151654761Y-77954819D01*
X151369047Y-77954819D02*
X151369047Y-76954819D01*
X151369047Y-76954819D02*
X151464285Y-77097676D01*
X151464285Y-77097676D02*
X151559523Y-77192914D01*
X151559523Y-77192914D02*
X151654761Y-77240533D01*
X153016666Y-80562295D02*
X152521428Y-80562295D01*
X152521428Y-80562295D02*
X152788094Y-80867057D01*
X152788094Y-80867057D02*
X152673809Y-80867057D01*
X152673809Y-80867057D02*
X152597618Y-80905152D01*
X152597618Y-80905152D02*
X152559523Y-80943247D01*
X152559523Y-80943247D02*
X152521428Y-81019438D01*
X152521428Y-81019438D02*
X152521428Y-81209914D01*
X152521428Y-81209914D02*
X152559523Y-81286104D01*
X152559523Y-81286104D02*
X152597618Y-81324200D01*
X152597618Y-81324200D02*
X152673809Y-81362295D01*
X152673809Y-81362295D02*
X152902380Y-81362295D01*
X152902380Y-81362295D02*
X152978571Y-81324200D01*
X152978571Y-81324200D02*
X153016666Y-81286104D01*
X150021428Y-81362295D02*
X150478571Y-81362295D01*
X150249999Y-81362295D02*
X150249999Y-80562295D01*
X150249999Y-80562295D02*
X150326190Y-80676580D01*
X150326190Y-80676580D02*
X150402380Y-80752771D01*
X150402380Y-80752771D02*
X150478571Y-80790866D01*
D11*
G04 #@! TO.C,JP1*
X149450000Y-78950000D02*
X149450000Y-79550000D01*
X150100000Y-80250000D02*
X152900000Y-80250000D01*
X152900000Y-78250000D02*
X150100000Y-78250000D01*
X153550000Y-79550000D02*
X153550000Y-78950000D01*
X150150000Y-78250000D02*
G75*
G03*
X149450000Y-78950000I-1J-699999D01*
G01*
X149450000Y-79550000D02*
G75*
G03*
X150150000Y-80250000I699999J-1D01*
G01*
X153550000Y-78950000D02*
G75*
G03*
X152850000Y-78250000I-700000J0D01*
G01*
X152850000Y-80250000D02*
G75*
G03*
X153550000Y-79550000I0J700000D01*
G01*
G04 #@! TO.C,G\u002A\u002A\u002A*
D12*
X148744390Y-92853374D02*
X148763543Y-92891461D01*
X148792037Y-92950164D01*
X148827672Y-93024779D01*
X148868249Y-93110600D01*
X148911568Y-93202922D01*
X148955430Y-93297040D01*
X148997633Y-93388249D01*
X149035979Y-93471844D01*
X149068268Y-93543119D01*
X149092300Y-93597369D01*
X149105876Y-93629889D01*
X149109121Y-93643759D01*
X149100590Y-93649599D01*
X149073295Y-93646396D01*
X149020771Y-93634500D01*
X148993532Y-93628204D01*
X148931565Y-93614408D01*
X148847238Y-93595987D01*
X148746242Y-93574174D01*
X148634264Y-93550203D01*
X148516996Y-93525306D01*
X148108748Y-93439005D01*
X148418673Y-93139882D01*
X148497618Y-93063944D01*
X148573440Y-92991539D01*
X148638451Y-92930011D01*
X148689472Y-92882349D01*
X148723330Y-92851541D01*
X148736847Y-92840573D01*
X148744390Y-92853374D01*
G36*
X148744390Y-92853374D02*
G01*
X148763543Y-92891461D01*
X148792037Y-92950164D01*
X148827672Y-93024779D01*
X148868249Y-93110600D01*
X148911568Y-93202922D01*
X148955430Y-93297040D01*
X148997633Y-93388249D01*
X149035979Y-93471844D01*
X149068268Y-93543119D01*
X149092300Y-93597369D01*
X149105876Y-93629889D01*
X149109121Y-93643759D01*
X149100590Y-93649599D01*
X149073295Y-93646396D01*
X149020771Y-93634500D01*
X148993532Y-93628204D01*
X148931565Y-93614408D01*
X148847238Y-93595987D01*
X148746242Y-93574174D01*
X148634264Y-93550203D01*
X148516996Y-93525306D01*
X148108748Y-93439005D01*
X148418673Y-93139882D01*
X148497618Y-93063944D01*
X148573440Y-92991539D01*
X148638451Y-92930011D01*
X148689472Y-92882349D01*
X148723330Y-92851541D01*
X148736847Y-92840573D01*
X148744390Y-92853374D01*
G37*
X141270626Y-92850125D02*
X141303278Y-92879211D01*
X141352922Y-92925718D01*
X141416469Y-92986711D01*
X141490830Y-93059256D01*
X141572915Y-93140417D01*
X141653434Y-93220681D01*
X141726748Y-93294054D01*
X141788683Y-93356342D01*
X141836266Y-93404547D01*
X141866526Y-93435670D01*
X141876489Y-93446710D01*
X141870536Y-93447666D01*
X141837547Y-93454116D01*
X141780399Y-93465729D01*
X141704230Y-93481429D01*
X141614177Y-93500138D01*
X141515380Y-93520780D01*
X141412975Y-93542276D01*
X141312101Y-93563551D01*
X141217894Y-93583526D01*
X141135494Y-93601125D01*
X141070038Y-93615270D01*
X141026663Y-93624884D01*
X141006392Y-93629439D01*
X140948784Y-93641515D01*
X140907284Y-93648894D01*
X140889778Y-93650122D01*
X140891322Y-93644500D01*
X140903692Y-93614049D01*
X140926489Y-93561333D01*
X140957578Y-93491040D01*
X140994822Y-93407861D01*
X141036087Y-93316486D01*
X141079236Y-93221606D01*
X141122133Y-93127911D01*
X141162643Y-93040089D01*
X141198629Y-92962833D01*
X141227956Y-92900831D01*
X141248488Y-92858774D01*
X141258088Y-92841353D01*
X141270626Y-92850125D01*
G36*
X141270626Y-92850125D02*
G01*
X141303278Y-92879211D01*
X141352922Y-92925718D01*
X141416469Y-92986711D01*
X141490830Y-93059256D01*
X141572915Y-93140417D01*
X141653434Y-93220681D01*
X141726748Y-93294054D01*
X141788683Y-93356342D01*
X141836266Y-93404547D01*
X141866526Y-93435670D01*
X141876489Y-93446710D01*
X141870536Y-93447666D01*
X141837547Y-93454116D01*
X141780399Y-93465729D01*
X141704230Y-93481429D01*
X141614177Y-93500138D01*
X141515380Y-93520780D01*
X141412975Y-93542276D01*
X141312101Y-93563551D01*
X141217894Y-93583526D01*
X141135494Y-93601125D01*
X141070038Y-93615270D01*
X141026663Y-93624884D01*
X141006392Y-93629439D01*
X140948784Y-93641515D01*
X140907284Y-93648894D01*
X140889778Y-93650122D01*
X140891322Y-93644500D01*
X140903692Y-93614049D01*
X140926489Y-93561333D01*
X140957578Y-93491040D01*
X140994822Y-93407861D01*
X141036087Y-93316486D01*
X141079236Y-93221606D01*
X141122133Y-93127911D01*
X141162643Y-93040089D01*
X141198629Y-92962833D01*
X141227956Y-92900831D01*
X141248488Y-92858774D01*
X141258088Y-92841353D01*
X141270626Y-92850125D01*
G37*
X148539555Y-90846002D02*
X148556993Y-90878273D01*
X148584552Y-90933120D01*
X148620228Y-91006254D01*
X148662019Y-91093382D01*
X148707920Y-91190213D01*
X148755928Y-91292456D01*
X148804039Y-91395820D01*
X148850251Y-91496014D01*
X148892560Y-91588746D01*
X148928962Y-91669725D01*
X148957454Y-91734660D01*
X148976032Y-91779260D01*
X148982693Y-91799233D01*
X148981221Y-91801755D01*
X148961991Y-91823641D01*
X148922024Y-91865837D01*
X148863263Y-91926380D01*
X148787649Y-92003308D01*
X148697127Y-92094658D01*
X148593637Y-92198466D01*
X148479122Y-92312771D01*
X148355526Y-92435609D01*
X148224790Y-92565019D01*
X148177384Y-92611821D01*
X148048550Y-92738707D01*
X147927099Y-92857881D01*
X147815016Y-92967421D01*
X147714286Y-93065405D01*
X147626894Y-93149911D01*
X147554825Y-93219018D01*
X147500063Y-93270804D01*
X147464595Y-93303347D01*
X147450405Y-93314725D01*
X147436390Y-93313493D01*
X147393963Y-93308098D01*
X147329230Y-93299147D01*
X147247839Y-93287425D01*
X147155437Y-93273716D01*
X147068109Y-93261047D01*
X146940366Y-93243548D01*
X146801204Y-93225369D01*
X146662307Y-93208028D01*
X146535356Y-93193047D01*
X146502996Y-93189345D01*
X146403984Y-93177661D01*
X146317985Y-93166983D01*
X146249889Y-93157950D01*
X146204589Y-93151205D01*
X146186975Y-93147388D01*
X146189384Y-93144058D01*
X146210837Y-93121165D01*
X146252881Y-93078184D01*
X146313613Y-93016988D01*
X146391129Y-92939447D01*
X146483526Y-92847435D01*
X146588900Y-92742823D01*
X146705347Y-92627483D01*
X146830963Y-92503286D01*
X146963845Y-92372105D01*
X147102089Y-92235812D01*
X147243791Y-92096278D01*
X147387049Y-91955375D01*
X147529957Y-91814975D01*
X147670612Y-91676951D01*
X147807111Y-91543173D01*
X147937550Y-91415514D01*
X148060025Y-91295846D01*
X148172632Y-91186040D01*
X148273469Y-91087968D01*
X148360630Y-91003503D01*
X148432213Y-90934516D01*
X148486314Y-90882879D01*
X148521029Y-90850464D01*
X148534454Y-90839143D01*
X148539555Y-90846002D01*
G36*
X148539555Y-90846002D02*
G01*
X148556993Y-90878273D01*
X148584552Y-90933120D01*
X148620228Y-91006254D01*
X148662019Y-91093382D01*
X148707920Y-91190213D01*
X148755928Y-91292456D01*
X148804039Y-91395820D01*
X148850251Y-91496014D01*
X148892560Y-91588746D01*
X148928962Y-91669725D01*
X148957454Y-91734660D01*
X148976032Y-91779260D01*
X148982693Y-91799233D01*
X148981221Y-91801755D01*
X148961991Y-91823641D01*
X148922024Y-91865837D01*
X148863263Y-91926380D01*
X148787649Y-92003308D01*
X148697127Y-92094658D01*
X148593637Y-92198466D01*
X148479122Y-92312771D01*
X148355526Y-92435609D01*
X148224790Y-92565019D01*
X148177384Y-92611821D01*
X148048550Y-92738707D01*
X147927099Y-92857881D01*
X147815016Y-92967421D01*
X147714286Y-93065405D01*
X147626894Y-93149911D01*
X147554825Y-93219018D01*
X147500063Y-93270804D01*
X147464595Y-93303347D01*
X147450405Y-93314725D01*
X147436390Y-93313493D01*
X147393963Y-93308098D01*
X147329230Y-93299147D01*
X147247839Y-93287425D01*
X147155437Y-93273716D01*
X147068109Y-93261047D01*
X146940366Y-93243548D01*
X146801204Y-93225369D01*
X146662307Y-93208028D01*
X146535356Y-93193047D01*
X146502996Y-93189345D01*
X146403984Y-93177661D01*
X146317985Y-93166983D01*
X146249889Y-93157950D01*
X146204589Y-93151205D01*
X146186975Y-93147388D01*
X146189384Y-93144058D01*
X146210837Y-93121165D01*
X146252881Y-93078184D01*
X146313613Y-93016988D01*
X146391129Y-92939447D01*
X146483526Y-92847435D01*
X146588900Y-92742823D01*
X146705347Y-92627483D01*
X146830963Y-92503286D01*
X146963845Y-92372105D01*
X147102089Y-92235812D01*
X147243791Y-92096278D01*
X147387049Y-91955375D01*
X147529957Y-91814975D01*
X147670612Y-91676951D01*
X147807111Y-91543173D01*
X147937550Y-91415514D01*
X148060025Y-91295846D01*
X148172632Y-91186040D01*
X148273469Y-91087968D01*
X148360630Y-91003503D01*
X148432213Y-90934516D01*
X148486314Y-90882879D01*
X148521029Y-90850464D01*
X148534454Y-90839143D01*
X148539555Y-90846002D01*
G37*
X141467780Y-90838659D02*
X141492970Y-90861011D01*
X141538366Y-90903537D01*
X141602072Y-90964363D01*
X141682190Y-91041616D01*
X141776822Y-91133422D01*
X141884071Y-91237909D01*
X142002039Y-91353202D01*
X142128830Y-91477430D01*
X142262545Y-91608718D01*
X142401287Y-91745193D01*
X142543158Y-91884981D01*
X142686262Y-92026211D01*
X142828700Y-92167008D01*
X142968576Y-92305499D01*
X143103991Y-92439810D01*
X143233049Y-92568069D01*
X143353851Y-92688403D01*
X143464501Y-92798937D01*
X143563101Y-92897799D01*
X143647754Y-92983116D01*
X143716562Y-93053013D01*
X143767627Y-93105618D01*
X143799052Y-93139058D01*
X143808940Y-93151459D01*
X143806074Y-93152672D01*
X143777342Y-93158469D01*
X143722574Y-93166729D01*
X143646760Y-93176780D01*
X143554890Y-93187949D01*
X143451953Y-93199564D01*
X143340421Y-93212206D01*
X143210048Y-93228007D01*
X143081346Y-93244535D01*
X142964629Y-93260461D01*
X142870211Y-93274458D01*
X142838299Y-93279443D01*
X142752013Y-93292441D01*
X142676422Y-93303161D01*
X142618744Y-93310605D01*
X142586196Y-93313773D01*
X142575749Y-93312185D01*
X142559783Y-93304866D01*
X142537632Y-93290175D01*
X142507595Y-93266534D01*
X142467969Y-93232367D01*
X142417052Y-93186095D01*
X142353143Y-93126141D01*
X142274539Y-93050930D01*
X142179538Y-92958883D01*
X142066438Y-92848423D01*
X141933536Y-92717973D01*
X141779131Y-92565956D01*
X141730163Y-92517661D01*
X141601519Y-92390441D01*
X141480733Y-92270503D01*
X141369748Y-92159803D01*
X141270508Y-92060301D01*
X141184955Y-91973955D01*
X141115032Y-91902721D01*
X141062681Y-91848560D01*
X141029846Y-91813429D01*
X141018469Y-91799286D01*
X141021775Y-91789002D01*
X141036902Y-91752368D01*
X141062478Y-91693779D01*
X141096508Y-91617556D01*
X141136999Y-91528017D01*
X141181958Y-91429483D01*
X141229390Y-91326271D01*
X141277303Y-91222701D01*
X141323703Y-91123092D01*
X141366596Y-91031764D01*
X141403990Y-90953035D01*
X141433890Y-90891226D01*
X141454303Y-90850654D01*
X141463235Y-90835640D01*
X141467780Y-90838659D01*
G36*
X141467780Y-90838659D02*
G01*
X141492970Y-90861011D01*
X141538366Y-90903537D01*
X141602072Y-90964363D01*
X141682190Y-91041616D01*
X141776822Y-91133422D01*
X141884071Y-91237909D01*
X142002039Y-91353202D01*
X142128830Y-91477430D01*
X142262545Y-91608718D01*
X142401287Y-91745193D01*
X142543158Y-91884981D01*
X142686262Y-92026211D01*
X142828700Y-92167008D01*
X142968576Y-92305499D01*
X143103991Y-92439810D01*
X143233049Y-92568069D01*
X143353851Y-92688403D01*
X143464501Y-92798937D01*
X143563101Y-92897799D01*
X143647754Y-92983116D01*
X143716562Y-93053013D01*
X143767627Y-93105618D01*
X143799052Y-93139058D01*
X143808940Y-93151459D01*
X143806074Y-93152672D01*
X143777342Y-93158469D01*
X143722574Y-93166729D01*
X143646760Y-93176780D01*
X143554890Y-93187949D01*
X143451953Y-93199564D01*
X143340421Y-93212206D01*
X143210048Y-93228007D01*
X143081346Y-93244535D01*
X142964629Y-93260461D01*
X142870211Y-93274458D01*
X142838299Y-93279443D01*
X142752013Y-93292441D01*
X142676422Y-93303161D01*
X142618744Y-93310605D01*
X142586196Y-93313773D01*
X142575749Y-93312185D01*
X142559783Y-93304866D01*
X142537632Y-93290175D01*
X142507595Y-93266534D01*
X142467969Y-93232367D01*
X142417052Y-93186095D01*
X142353143Y-93126141D01*
X142274539Y-93050930D01*
X142179538Y-92958883D01*
X142066438Y-92848423D01*
X141933536Y-92717973D01*
X141779131Y-92565956D01*
X141730163Y-92517661D01*
X141601519Y-92390441D01*
X141480733Y-92270503D01*
X141369748Y-92159803D01*
X141270508Y-92060301D01*
X141184955Y-91973955D01*
X141115032Y-91902721D01*
X141062681Y-91848560D01*
X141029846Y-91813429D01*
X141018469Y-91799286D01*
X141021775Y-91789002D01*
X141036902Y-91752368D01*
X141062478Y-91693779D01*
X141096508Y-91617556D01*
X141136999Y-91528017D01*
X141181958Y-91429483D01*
X141229390Y-91326271D01*
X141277303Y-91222701D01*
X141323703Y-91123092D01*
X141366596Y-91031764D01*
X141403990Y-90953035D01*
X141433890Y-90891226D01*
X141454303Y-90850654D01*
X141463235Y-90835640D01*
X141467780Y-90838659D01*
G37*
X148313360Y-88799506D02*
X148330361Y-88831307D01*
X148358300Y-88887132D01*
X148395483Y-88963491D01*
X148440217Y-89056895D01*
X148490809Y-89163857D01*
X148545566Y-89280886D01*
X148772211Y-89767807D01*
X146894689Y-91640033D01*
X146734317Y-91799892D01*
X146531961Y-92001426D01*
X146336750Y-92195650D01*
X146149916Y-92381345D01*
X145972695Y-92557291D01*
X145806318Y-92722270D01*
X145652022Y-92875060D01*
X145511039Y-93014443D01*
X145384603Y-93139198D01*
X145273949Y-93248107D01*
X145180309Y-93339949D01*
X145104920Y-93413505D01*
X145049013Y-93467555D01*
X145013823Y-93500879D01*
X145000584Y-93512258D01*
X144998688Y-93511077D01*
X144977791Y-93492442D01*
X144934937Y-93451884D01*
X144871066Y-93390333D01*
X144787119Y-93308720D01*
X144684036Y-93207973D01*
X144562760Y-93089023D01*
X144424229Y-92952798D01*
X144269387Y-92800229D01*
X144099173Y-92632245D01*
X143914528Y-92449776D01*
X143716393Y-92253752D01*
X143505710Y-92045101D01*
X143283418Y-91824754D01*
X143050460Y-91593641D01*
X142807775Y-91352691D01*
X142556306Y-91102833D01*
X142296992Y-90844997D01*
X142030774Y-90580114D01*
X141758595Y-90309112D01*
X141228720Y-89781350D01*
X141476548Y-89285907D01*
X141521349Y-89196891D01*
X141577387Y-89087166D01*
X141627872Y-88990130D01*
X141671017Y-88909125D01*
X141705036Y-88847492D01*
X141728142Y-88808576D01*
X141738550Y-88795716D01*
X141744632Y-88801016D01*
X141772380Y-88827299D01*
X141821253Y-88874401D01*
X141889907Y-88941009D01*
X141976997Y-89025806D01*
X142081179Y-89127477D01*
X142201110Y-89244708D01*
X142335444Y-89376184D01*
X142482837Y-89520588D01*
X142641946Y-89676606D01*
X142811426Y-89842923D01*
X142989932Y-90018224D01*
X143176121Y-90201194D01*
X143368648Y-90390517D01*
X143495836Y-90515605D01*
X143684294Y-90700860D01*
X143865504Y-90878884D01*
X144038124Y-91048363D01*
X144200813Y-91207983D01*
X144352228Y-91356431D01*
X144491028Y-91492392D01*
X144615869Y-91614554D01*
X144725411Y-91721602D01*
X144818311Y-91812222D01*
X144893227Y-91885101D01*
X144948816Y-91938925D01*
X144983738Y-91972380D01*
X144996650Y-91984153D01*
X145004086Y-91978325D01*
X145033599Y-91951489D01*
X145084262Y-91904040D01*
X145154735Y-91837268D01*
X145243676Y-91752461D01*
X145349744Y-91650911D01*
X145471597Y-91533907D01*
X145607894Y-91402738D01*
X145757294Y-91258695D01*
X145918456Y-91103068D01*
X146090037Y-90937145D01*
X146270698Y-90762218D01*
X146459096Y-90579576D01*
X146653890Y-90390508D01*
X146798721Y-90249893D01*
X146988878Y-90065393D01*
X147171617Y-89888229D01*
X147345599Y-89719694D01*
X147509482Y-89561081D01*
X147661929Y-89413683D01*
X147801598Y-89278793D01*
X147927151Y-89157703D01*
X148037247Y-89051706D01*
X148130546Y-88962096D01*
X148205710Y-88890164D01*
X148261398Y-88837204D01*
X148296270Y-88804508D01*
X148308987Y-88793370D01*
X148313360Y-88799506D01*
G36*
X148313360Y-88799506D02*
G01*
X148330361Y-88831307D01*
X148358300Y-88887132D01*
X148395483Y-88963491D01*
X148440217Y-89056895D01*
X148490809Y-89163857D01*
X148545566Y-89280886D01*
X148772211Y-89767807D01*
X146894689Y-91640033D01*
X146734317Y-91799892D01*
X146531961Y-92001426D01*
X146336750Y-92195650D01*
X146149916Y-92381345D01*
X145972695Y-92557291D01*
X145806318Y-92722270D01*
X145652022Y-92875060D01*
X145511039Y-93014443D01*
X145384603Y-93139198D01*
X145273949Y-93248107D01*
X145180309Y-93339949D01*
X145104920Y-93413505D01*
X145049013Y-93467555D01*
X145013823Y-93500879D01*
X145000584Y-93512258D01*
X144998688Y-93511077D01*
X144977791Y-93492442D01*
X144934937Y-93451884D01*
X144871066Y-93390333D01*
X144787119Y-93308720D01*
X144684036Y-93207973D01*
X144562760Y-93089023D01*
X144424229Y-92952798D01*
X144269387Y-92800229D01*
X144099173Y-92632245D01*
X143914528Y-92449776D01*
X143716393Y-92253752D01*
X143505710Y-92045101D01*
X143283418Y-91824754D01*
X143050460Y-91593641D01*
X142807775Y-91352691D01*
X142556306Y-91102833D01*
X142296992Y-90844997D01*
X142030774Y-90580114D01*
X141758595Y-90309112D01*
X141228720Y-89781350D01*
X141476548Y-89285907D01*
X141521349Y-89196891D01*
X141577387Y-89087166D01*
X141627872Y-88990130D01*
X141671017Y-88909125D01*
X141705036Y-88847492D01*
X141728142Y-88808576D01*
X141738550Y-88795716D01*
X141744632Y-88801016D01*
X141772380Y-88827299D01*
X141821253Y-88874401D01*
X141889907Y-88941009D01*
X141976997Y-89025806D01*
X142081179Y-89127477D01*
X142201110Y-89244708D01*
X142335444Y-89376184D01*
X142482837Y-89520588D01*
X142641946Y-89676606D01*
X142811426Y-89842923D01*
X142989932Y-90018224D01*
X143176121Y-90201194D01*
X143368648Y-90390517D01*
X143495836Y-90515605D01*
X143684294Y-90700860D01*
X143865504Y-90878884D01*
X144038124Y-91048363D01*
X144200813Y-91207983D01*
X144352228Y-91356431D01*
X144491028Y-91492392D01*
X144615869Y-91614554D01*
X144725411Y-91721602D01*
X144818311Y-91812222D01*
X144893227Y-91885101D01*
X144948816Y-91938925D01*
X144983738Y-91972380D01*
X144996650Y-91984153D01*
X145004086Y-91978325D01*
X145033599Y-91951489D01*
X145084262Y-91904040D01*
X145154735Y-91837268D01*
X145243676Y-91752461D01*
X145349744Y-91650911D01*
X145471597Y-91533907D01*
X145607894Y-91402738D01*
X145757294Y-91258695D01*
X145918456Y-91103068D01*
X146090037Y-90937145D01*
X146270698Y-90762218D01*
X146459096Y-90579576D01*
X146653890Y-90390508D01*
X146798721Y-90249893D01*
X146988878Y-90065393D01*
X147171617Y-89888229D01*
X147345599Y-89719694D01*
X147509482Y-89561081D01*
X147661929Y-89413683D01*
X147801598Y-89278793D01*
X147927151Y-89157703D01*
X148037247Y-89051706D01*
X148130546Y-88962096D01*
X148205710Y-88890164D01*
X148261398Y-88837204D01*
X148296270Y-88804508D01*
X148308987Y-88793370D01*
X148313360Y-88799506D01*
G37*
X142771727Y-97927181D02*
X142598546Y-97927181D01*
X142598546Y-97107454D01*
X142771727Y-97107454D01*
X142771727Y-97927181D01*
G36*
X142771727Y-97927181D02*
G01*
X142598546Y-97927181D01*
X142598546Y-97107454D01*
X142771727Y-97107454D01*
X142771727Y-97927181D01*
G37*
X142720867Y-96774411D02*
X142722272Y-96774809D01*
X142762330Y-96796775D01*
X142787449Y-96831635D01*
X142796419Y-96873857D01*
X142788029Y-96917907D01*
X142761070Y-96958251D01*
X142740122Y-96975112D01*
X142694350Y-96992110D01*
X142646384Y-96988523D01*
X142602076Y-96964136D01*
X142584762Y-96946715D01*
X142572727Y-96921426D01*
X142569682Y-96884247D01*
X142571549Y-96859393D01*
X142588547Y-96813096D01*
X142620973Y-96782139D01*
X142666017Y-96768563D01*
X142720867Y-96774411D01*
G36*
X142720867Y-96774411D02*
G01*
X142722272Y-96774809D01*
X142762330Y-96796775D01*
X142787449Y-96831635D01*
X142796419Y-96873857D01*
X142788029Y-96917907D01*
X142761070Y-96958251D01*
X142740122Y-96975112D01*
X142694350Y-96992110D01*
X142646384Y-96988523D01*
X142602076Y-96964136D01*
X142584762Y-96946715D01*
X142572727Y-96921426D01*
X142569682Y-96884247D01*
X142571549Y-96859393D01*
X142588547Y-96813096D01*
X142620973Y-96782139D01*
X142666017Y-96768563D01*
X142720867Y-96774411D01*
G37*
X144000873Y-97688675D02*
X144043094Y-97708657D01*
X144073150Y-97741548D01*
X144090239Y-97782783D01*
X144093558Y-97827796D01*
X144082303Y-97872022D01*
X144055673Y-97910894D01*
X144012864Y-97939848D01*
X143994446Y-97944988D01*
X143952589Y-97945640D01*
X143909777Y-97936563D01*
X143877602Y-97919501D01*
X143855445Y-97895537D01*
X143832381Y-97849313D01*
X143828281Y-97801726D01*
X143841470Y-97757126D01*
X143870273Y-97719866D01*
X143913012Y-97694297D01*
X143968011Y-97684770D01*
X144000873Y-97688675D01*
G36*
X144000873Y-97688675D02*
G01*
X144043094Y-97708657D01*
X144073150Y-97741548D01*
X144090239Y-97782783D01*
X144093558Y-97827796D01*
X144082303Y-97872022D01*
X144055673Y-97910894D01*
X144012864Y-97939848D01*
X143994446Y-97944988D01*
X143952589Y-97945640D01*
X143909777Y-97936563D01*
X143877602Y-97919501D01*
X143855445Y-97895537D01*
X143832381Y-97849313D01*
X143828281Y-97801726D01*
X143841470Y-97757126D01*
X143870273Y-97719866D01*
X143913012Y-97694297D01*
X143968011Y-97684770D01*
X144000873Y-97688675D01*
G37*
X144226834Y-97108200D02*
X144291425Y-97117954D01*
X144339964Y-97139989D01*
X144375712Y-97175556D01*
X144392959Y-97196192D01*
X144409566Y-97203851D01*
X144419454Y-97189455D01*
X144422727Y-97152954D01*
X144422727Y-97107454D01*
X144584364Y-97107454D01*
X144584364Y-97927181D01*
X144424238Y-97927181D01*
X144420596Y-97652977D01*
X144419861Y-97600728D01*
X144418486Y-97524700D01*
X144416785Y-97466863D01*
X144414494Y-97424087D01*
X144411348Y-97393243D01*
X144407080Y-97371201D01*
X144401424Y-97354831D01*
X144394116Y-97341004D01*
X144382865Y-97325019D01*
X144338151Y-97287931D01*
X144276640Y-97265241D01*
X144199719Y-97257545D01*
X144122546Y-97257545D01*
X144122546Y-97107454D01*
X144197962Y-97107454D01*
X144226834Y-97108200D01*
G36*
X144226834Y-97108200D02*
G01*
X144291425Y-97117954D01*
X144339964Y-97139989D01*
X144375712Y-97175556D01*
X144392959Y-97196192D01*
X144409566Y-97203851D01*
X144419454Y-97189455D01*
X144422727Y-97152954D01*
X144422727Y-97107454D01*
X144584364Y-97107454D01*
X144584364Y-97927181D01*
X144424238Y-97927181D01*
X144420596Y-97652977D01*
X144419861Y-97600728D01*
X144418486Y-97524700D01*
X144416785Y-97466863D01*
X144414494Y-97424087D01*
X144411348Y-97393243D01*
X144407080Y-97371201D01*
X144401424Y-97354831D01*
X144394116Y-97341004D01*
X144382865Y-97325019D01*
X144338151Y-97287931D01*
X144276640Y-97265241D01*
X144199719Y-97257545D01*
X144122546Y-97257545D01*
X144122546Y-97107454D01*
X144197962Y-97107454D01*
X144226834Y-97108200D01*
G37*
X146420091Y-97927181D02*
X146258455Y-97927181D01*
X146258455Y-97754000D01*
X146258433Y-97734594D01*
X146257837Y-97671218D01*
X146256224Y-97627159D01*
X146253314Y-97599410D01*
X146248833Y-97584965D01*
X146242502Y-97580818D01*
X146240434Y-97581494D01*
X146223861Y-97593787D01*
X146194743Y-97619646D01*
X146155699Y-97656609D01*
X146109347Y-97702214D01*
X146058306Y-97754000D01*
X145890063Y-97927181D01*
X145671745Y-97927181D01*
X145884991Y-97716693D01*
X146098236Y-97506204D01*
X145892595Y-97307408D01*
X145686955Y-97108612D01*
X145796791Y-97108033D01*
X145906628Y-97107454D01*
X146067955Y-97269090D01*
X146075266Y-97276400D01*
X146124971Y-97325299D01*
X146169401Y-97367678D01*
X146205839Y-97401040D01*
X146231568Y-97422889D01*
X146243868Y-97430727D01*
X146243935Y-97430726D01*
X146248317Y-97425815D01*
X146251782Y-97409975D01*
X146254420Y-97381179D01*
X146256317Y-97337401D01*
X146257564Y-97276614D01*
X146258247Y-97196792D01*
X146258455Y-97095909D01*
X146258455Y-96761090D01*
X146420091Y-96761090D01*
X146420091Y-97927181D01*
G36*
X146420091Y-97927181D02*
G01*
X146258455Y-97927181D01*
X146258455Y-97754000D01*
X146258433Y-97734594D01*
X146257837Y-97671218D01*
X146256224Y-97627159D01*
X146253314Y-97599410D01*
X146248833Y-97584965D01*
X146242502Y-97580818D01*
X146240434Y-97581494D01*
X146223861Y-97593787D01*
X146194743Y-97619646D01*
X146155699Y-97656609D01*
X146109347Y-97702214D01*
X146058306Y-97754000D01*
X145890063Y-97927181D01*
X145671745Y-97927181D01*
X145884991Y-97716693D01*
X146098236Y-97506204D01*
X145892595Y-97307408D01*
X145686955Y-97108612D01*
X145796791Y-97108033D01*
X145906628Y-97107454D01*
X146067955Y-97269090D01*
X146075266Y-97276400D01*
X146124971Y-97325299D01*
X146169401Y-97367678D01*
X146205839Y-97401040D01*
X146231568Y-97422889D01*
X146243868Y-97430727D01*
X146243935Y-97430726D01*
X146248317Y-97425815D01*
X146251782Y-97409975D01*
X146254420Y-97381179D01*
X146256317Y-97337401D01*
X146257564Y-97276614D01*
X146258247Y-97196792D01*
X146258455Y-97095909D01*
X146258455Y-96761090D01*
X146420091Y-96761090D01*
X146420091Y-97927181D01*
G37*
X143222133Y-97454244D02*
X143254207Y-97556204D01*
X143280588Y-97637915D01*
X143301810Y-97700798D01*
X143318487Y-97746537D01*
X143331231Y-97776815D01*
X143340658Y-97793315D01*
X143347380Y-97797722D01*
X143354782Y-97791091D01*
X143369240Y-97763511D01*
X143387692Y-97716002D01*
X143409494Y-97650090D01*
X143419065Y-97619455D01*
X143441263Y-97548674D01*
X143466720Y-97467760D01*
X143492990Y-97384483D01*
X143517627Y-97306613D01*
X143580758Y-97107454D01*
X143667771Y-97107454D01*
X143684279Y-97107553D01*
X143724916Y-97109422D01*
X143746232Y-97114037D01*
X143751049Y-97121886D01*
X143746966Y-97134784D01*
X143736308Y-97167255D01*
X143719960Y-97216612D01*
X143698770Y-97280297D01*
X143673592Y-97355754D01*
X143645275Y-97440424D01*
X143614670Y-97531750D01*
X143482027Y-97927181D01*
X143212376Y-97927181D01*
X143117399Y-97641431D01*
X143099337Y-97587236D01*
X143070434Y-97501060D01*
X143042242Y-97417603D01*
X143016392Y-97341667D01*
X142994513Y-97278054D01*
X142978237Y-97231568D01*
X142934051Y-97107454D01*
X143113997Y-97107454D01*
X143222133Y-97454244D01*
G36*
X143222133Y-97454244D02*
G01*
X143254207Y-97556204D01*
X143280588Y-97637915D01*
X143301810Y-97700798D01*
X143318487Y-97746537D01*
X143331231Y-97776815D01*
X143340658Y-97793315D01*
X143347380Y-97797722D01*
X143354782Y-97791091D01*
X143369240Y-97763511D01*
X143387692Y-97716002D01*
X143409494Y-97650090D01*
X143419065Y-97619455D01*
X143441263Y-97548674D01*
X143466720Y-97467760D01*
X143492990Y-97384483D01*
X143517627Y-97306613D01*
X143580758Y-97107454D01*
X143667771Y-97107454D01*
X143684279Y-97107553D01*
X143724916Y-97109422D01*
X143746232Y-97114037D01*
X143751049Y-97121886D01*
X143746966Y-97134784D01*
X143736308Y-97167255D01*
X143719960Y-97216612D01*
X143698770Y-97280297D01*
X143673592Y-97355754D01*
X143645275Y-97440424D01*
X143614670Y-97531750D01*
X143482027Y-97927181D01*
X143212376Y-97927181D01*
X143117399Y-97641431D01*
X143099337Y-97587236D01*
X143070434Y-97501060D01*
X143042242Y-97417603D01*
X143016392Y-97341667D01*
X142994513Y-97278054D01*
X142978237Y-97231568D01*
X142934051Y-97107454D01*
X143113997Y-97107454D01*
X143222133Y-97454244D01*
G37*
X141987986Y-97108822D02*
X141993332Y-97110008D01*
X142032324Y-97122598D01*
X142066399Y-97143510D01*
X142104559Y-97178095D01*
X142105695Y-97179230D01*
X142134307Y-97207093D01*
X142155994Y-97226910D01*
X142166141Y-97234454D01*
X142168289Y-97228803D01*
X142170505Y-97205739D01*
X142171364Y-97170954D01*
X142171364Y-97107454D01*
X142344546Y-97107454D01*
X142344546Y-97927181D01*
X142171364Y-97927181D01*
X142171364Y-97423322D01*
X142139614Y-97360638D01*
X142112919Y-97317728D01*
X142066164Y-97273935D01*
X142007048Y-97248799D01*
X141933620Y-97241189D01*
X141905100Y-97242294D01*
X141859179Y-97250346D01*
X141820772Y-97268136D01*
X141801558Y-97280560D01*
X141781739Y-97296428D01*
X141766516Y-97315044D01*
X141755230Y-97339315D01*
X141747222Y-97372147D01*
X141741832Y-97416446D01*
X141738401Y-97475118D01*
X141736270Y-97551068D01*
X141734780Y-97647204D01*
X141731150Y-97927181D01*
X141571000Y-97927181D01*
X141571000Y-97646413D01*
X141571261Y-97557748D01*
X141572589Y-97471393D01*
X141575596Y-97402546D01*
X141580888Y-97348182D01*
X141589071Y-97305275D01*
X141600749Y-97270801D01*
X141616529Y-97241734D01*
X141637015Y-97215050D01*
X141662814Y-97187722D01*
X141668862Y-97181811D01*
X141734495Y-97133182D01*
X141808753Y-97105003D01*
X141892846Y-97096981D01*
X141987986Y-97108822D01*
G36*
X141987986Y-97108822D02*
G01*
X141993332Y-97110008D01*
X142032324Y-97122598D01*
X142066399Y-97143510D01*
X142104559Y-97178095D01*
X142105695Y-97179230D01*
X142134307Y-97207093D01*
X142155994Y-97226910D01*
X142166141Y-97234454D01*
X142168289Y-97228803D01*
X142170505Y-97205739D01*
X142171364Y-97170954D01*
X142171364Y-97107454D01*
X142344546Y-97107454D01*
X142344546Y-97927181D01*
X142171364Y-97927181D01*
X142171364Y-97423322D01*
X142139614Y-97360638D01*
X142112919Y-97317728D01*
X142066164Y-97273935D01*
X142007048Y-97248799D01*
X141933620Y-97241189D01*
X141905100Y-97242294D01*
X141859179Y-97250346D01*
X141820772Y-97268136D01*
X141801558Y-97280560D01*
X141781739Y-97296428D01*
X141766516Y-97315044D01*
X141755230Y-97339315D01*
X141747222Y-97372147D01*
X141741832Y-97416446D01*
X141738401Y-97475118D01*
X141736270Y-97551068D01*
X141734780Y-97647204D01*
X141731150Y-97927181D01*
X141571000Y-97927181D01*
X141571000Y-97646413D01*
X141571261Y-97557748D01*
X141572589Y-97471393D01*
X141575596Y-97402546D01*
X141580888Y-97348182D01*
X141589071Y-97305275D01*
X141600749Y-97270801D01*
X141616529Y-97241734D01*
X141637015Y-97215050D01*
X141662814Y-97187722D01*
X141668862Y-97181811D01*
X141734495Y-97133182D01*
X141808753Y-97105003D01*
X141892846Y-97096981D01*
X141987986Y-97108822D01*
G37*
X141353097Y-97575288D02*
X141341728Y-97651941D01*
X141322512Y-97715997D01*
X141285971Y-97781402D01*
X141226488Y-97846192D01*
X141151127Y-97897354D01*
X141062720Y-97932527D01*
X140996047Y-97943937D01*
X140914587Y-97944904D01*
X140831551Y-97934859D01*
X140756279Y-97914358D01*
X140707638Y-97891083D01*
X140639689Y-97840282D01*
X140583107Y-97775375D01*
X140543226Y-97701687D01*
X140528715Y-97653102D01*
X140517053Y-97573414D01*
X140516020Y-97517318D01*
X140682129Y-97517318D01*
X140683056Y-97546469D01*
X140687701Y-97594460D01*
X140694939Y-97632734D01*
X140695634Y-97635131D01*
X140718933Y-97681840D01*
X140757028Y-97727454D01*
X140802878Y-97764934D01*
X140849447Y-97787242D01*
X140924211Y-97799328D01*
X140999205Y-97792584D01*
X141065975Y-97766180D01*
X141121527Y-97720847D01*
X141127921Y-97713499D01*
X141163656Y-97658615D01*
X141183726Y-97595074D01*
X141190000Y-97517318D01*
X141189487Y-97492769D01*
X141179479Y-97419944D01*
X141155316Y-97360454D01*
X141115188Y-97309267D01*
X141085530Y-97283754D01*
X141021496Y-97249429D01*
X140952100Y-97234674D01*
X140881719Y-97239503D01*
X140814735Y-97263934D01*
X140755527Y-97307980D01*
X140729800Y-97337152D01*
X140701909Y-97385763D01*
X140686722Y-97443812D01*
X140682129Y-97517318D01*
X140516020Y-97517318D01*
X140515481Y-97488028D01*
X140524013Y-97405739D01*
X140542663Y-97335343D01*
X140583028Y-97259967D01*
X140641686Y-97194612D01*
X140714628Y-97143142D01*
X140798643Y-97107332D01*
X140890517Y-97088957D01*
X140987041Y-97089790D01*
X141061629Y-97103669D01*
X141151132Y-97138262D01*
X141225917Y-97190019D01*
X141284889Y-97257890D01*
X141326949Y-97340825D01*
X141350999Y-97437776D01*
X141355653Y-97495484D01*
X141354953Y-97517318D01*
X141353097Y-97575288D01*
G36*
X141353097Y-97575288D02*
G01*
X141341728Y-97651941D01*
X141322512Y-97715997D01*
X141285971Y-97781402D01*
X141226488Y-97846192D01*
X141151127Y-97897354D01*
X141062720Y-97932527D01*
X140996047Y-97943937D01*
X140914587Y-97944904D01*
X140831551Y-97934859D01*
X140756279Y-97914358D01*
X140707638Y-97891083D01*
X140639689Y-97840282D01*
X140583107Y-97775375D01*
X140543226Y-97701687D01*
X140528715Y-97653102D01*
X140517053Y-97573414D01*
X140516020Y-97517318D01*
X140682129Y-97517318D01*
X140683056Y-97546469D01*
X140687701Y-97594460D01*
X140694939Y-97632734D01*
X140695634Y-97635131D01*
X140718933Y-97681840D01*
X140757028Y-97727454D01*
X140802878Y-97764934D01*
X140849447Y-97787242D01*
X140924211Y-97799328D01*
X140999205Y-97792584D01*
X141065975Y-97766180D01*
X141121527Y-97720847D01*
X141127921Y-97713499D01*
X141163656Y-97658615D01*
X141183726Y-97595074D01*
X141190000Y-97517318D01*
X141189487Y-97492769D01*
X141179479Y-97419944D01*
X141155316Y-97360454D01*
X141115188Y-97309267D01*
X141085530Y-97283754D01*
X141021496Y-97249429D01*
X140952100Y-97234674D01*
X140881719Y-97239503D01*
X140814735Y-97263934D01*
X140755527Y-97307980D01*
X140729800Y-97337152D01*
X140701909Y-97385763D01*
X140686722Y-97443812D01*
X140682129Y-97517318D01*
X140516020Y-97517318D01*
X140515481Y-97488028D01*
X140524013Y-97405739D01*
X140542663Y-97335343D01*
X140583028Y-97259967D01*
X140641686Y-97194612D01*
X140714628Y-97143142D01*
X140798643Y-97107332D01*
X140890517Y-97088957D01*
X140987041Y-97089790D01*
X141061629Y-97103669D01*
X141151132Y-97138262D01*
X141225917Y-97190019D01*
X141284889Y-97257890D01*
X141326949Y-97340825D01*
X141350999Y-97437776D01*
X141355653Y-97495484D01*
X141354953Y-97517318D01*
X141353097Y-97575288D01*
G37*
X140331779Y-97571310D02*
X140327521Y-97609298D01*
X140303260Y-97704912D01*
X140261426Y-97787262D01*
X140203162Y-97854892D01*
X140129610Y-97906349D01*
X140041916Y-97940177D01*
X140021892Y-97943972D01*
X139966844Y-97946533D01*
X139904681Y-97941966D01*
X139845247Y-97931271D01*
X139798385Y-97915448D01*
X139786724Y-97909271D01*
X139746320Y-97881812D01*
X139713042Y-97851352D01*
X139702553Y-97839977D01*
X139680543Y-97819741D01*
X139666353Y-97811727D01*
X139662097Y-97815517D01*
X139656598Y-97836352D01*
X139654455Y-97869454D01*
X139654455Y-97927181D01*
X139481059Y-97927181D01*
X139483174Y-97517318D01*
X139654962Y-97517318D01*
X139655928Y-97550246D01*
X139669101Y-97630966D01*
X139698233Y-97695760D01*
X139743996Y-97745797D01*
X139807061Y-97782251D01*
X139821157Y-97787569D01*
X139891749Y-97800291D01*
X139965833Y-97793639D01*
X140036626Y-97768035D01*
X140075643Y-97744472D01*
X140104911Y-97715800D01*
X140130308Y-97674353D01*
X140146027Y-97641419D01*
X140156353Y-97608616D01*
X140161130Y-97570767D01*
X140162201Y-97518886D01*
X140158115Y-97457766D01*
X140138164Y-97379908D01*
X140102375Y-97317698D01*
X140051595Y-97272085D01*
X139986672Y-97244020D01*
X139908455Y-97234454D01*
X139854757Y-97238777D01*
X139785305Y-97260890D01*
X139729672Y-97300836D01*
X139688785Y-97357579D01*
X139663572Y-97430085D01*
X139654962Y-97517318D01*
X139483174Y-97517318D01*
X139484053Y-97347022D01*
X139487046Y-96766863D01*
X139570750Y-96763471D01*
X139654455Y-96760079D01*
X139654455Y-96991494D01*
X139654646Y-97044658D01*
X139655895Y-97121759D01*
X139658283Y-97177560D01*
X139661779Y-97211473D01*
X139666353Y-97222909D01*
X139671238Y-97221235D01*
X139689719Y-97207107D01*
X139713042Y-97183284D01*
X139746146Y-97150966D01*
X139802497Y-97116300D01*
X139870661Y-97096579D01*
X139954637Y-97090265D01*
X140007035Y-97091304D01*
X140046525Y-97095816D01*
X140080590Y-97105545D01*
X140118127Y-97122230D01*
X140155204Y-97142972D01*
X140224761Y-97200189D01*
X140277677Y-97272641D01*
X140313473Y-97359319D01*
X140331667Y-97459212D01*
X140331727Y-97518886D01*
X140331779Y-97571310D01*
G36*
X140331779Y-97571310D02*
G01*
X140327521Y-97609298D01*
X140303260Y-97704912D01*
X140261426Y-97787262D01*
X140203162Y-97854892D01*
X140129610Y-97906349D01*
X140041916Y-97940177D01*
X140021892Y-97943972D01*
X139966844Y-97946533D01*
X139904681Y-97941966D01*
X139845247Y-97931271D01*
X139798385Y-97915448D01*
X139786724Y-97909271D01*
X139746320Y-97881812D01*
X139713042Y-97851352D01*
X139702553Y-97839977D01*
X139680543Y-97819741D01*
X139666353Y-97811727D01*
X139662097Y-97815517D01*
X139656598Y-97836352D01*
X139654455Y-97869454D01*
X139654455Y-97927181D01*
X139481059Y-97927181D01*
X139483174Y-97517318D01*
X139654962Y-97517318D01*
X139655928Y-97550246D01*
X139669101Y-97630966D01*
X139698233Y-97695760D01*
X139743996Y-97745797D01*
X139807061Y-97782251D01*
X139821157Y-97787569D01*
X139891749Y-97800291D01*
X139965833Y-97793639D01*
X140036626Y-97768035D01*
X140075643Y-97744472D01*
X140104911Y-97715800D01*
X140130308Y-97674353D01*
X140146027Y-97641419D01*
X140156353Y-97608616D01*
X140161130Y-97570767D01*
X140162201Y-97518886D01*
X140158115Y-97457766D01*
X140138164Y-97379908D01*
X140102375Y-97317698D01*
X140051595Y-97272085D01*
X139986672Y-97244020D01*
X139908455Y-97234454D01*
X139854757Y-97238777D01*
X139785305Y-97260890D01*
X139729672Y-97300836D01*
X139688785Y-97357579D01*
X139663572Y-97430085D01*
X139654962Y-97517318D01*
X139483174Y-97517318D01*
X139484053Y-97347022D01*
X139487046Y-96766863D01*
X139570750Y-96763471D01*
X139654455Y-96760079D01*
X139654455Y-96991494D01*
X139654646Y-97044658D01*
X139655895Y-97121759D01*
X139658283Y-97177560D01*
X139661779Y-97211473D01*
X139666353Y-97222909D01*
X139671238Y-97221235D01*
X139689719Y-97207107D01*
X139713042Y-97183284D01*
X139746146Y-97150966D01*
X139802497Y-97116300D01*
X139870661Y-97096579D01*
X139954637Y-97090265D01*
X140007035Y-97091304D01*
X140046525Y-97095816D01*
X140080590Y-97105545D01*
X140118127Y-97122230D01*
X140155204Y-97142972D01*
X140224761Y-97200189D01*
X140277677Y-97272641D01*
X140313473Y-97359319D01*
X140331667Y-97459212D01*
X140331727Y-97518886D01*
X140331779Y-97571310D01*
G37*
X145598357Y-97508931D02*
X145589085Y-97614727D01*
X145586880Y-97626018D01*
X145557227Y-97718599D01*
X145510373Y-97798031D01*
X145448125Y-97862396D01*
X145372289Y-97909775D01*
X145284668Y-97938249D01*
X145204995Y-97947522D01*
X145110891Y-97942226D01*
X145023578Y-97919811D01*
X144948288Y-97881166D01*
X144941363Y-97876184D01*
X144909673Y-97848949D01*
X144878483Y-97816407D01*
X144852020Y-97783678D01*
X144834511Y-97755880D01*
X144830183Y-97738133D01*
X144838726Y-97729258D01*
X144862662Y-97712249D01*
X144895940Y-97692106D01*
X144899419Y-97690150D01*
X144934614Y-97672154D01*
X144954747Y-97666603D01*
X144963215Y-97672506D01*
X144967589Y-97682160D01*
X144989896Y-97712421D01*
X145022283Y-97744832D01*
X145057550Y-97772684D01*
X145088495Y-97789264D01*
X145112750Y-97794522D01*
X145156456Y-97798414D01*
X145202950Y-97798035D01*
X145238231Y-97793631D01*
X145306849Y-97769994D01*
X145361872Y-97728568D01*
X145401383Y-97671085D01*
X145423461Y-97599274D01*
X145430203Y-97557727D01*
X144789198Y-97557727D01*
X144797392Y-97474576D01*
X144803345Y-97429221D01*
X144805299Y-97418810D01*
X144965364Y-97418810D01*
X144969031Y-97421536D01*
X144993266Y-97425515D01*
X145039713Y-97428392D01*
X145107823Y-97430138D01*
X145197051Y-97430727D01*
X145428738Y-97430727D01*
X145420725Y-97404750D01*
X145414473Y-97386591D01*
X145378575Y-97321897D01*
X145327624Y-97274116D01*
X145263476Y-97244601D01*
X145187985Y-97234708D01*
X145165092Y-97236102D01*
X145109135Y-97248498D01*
X145057967Y-97270846D01*
X145020645Y-97299632D01*
X145019261Y-97301244D01*
X145002164Y-97327143D01*
X144984601Y-97361582D01*
X144970894Y-97395244D01*
X144965364Y-97418810D01*
X144805299Y-97418810D01*
X144812880Y-97378423D01*
X144823285Y-97338917D01*
X144831413Y-97317154D01*
X144873558Y-97242182D01*
X144930697Y-97181016D01*
X144999541Y-97134364D01*
X145076803Y-97102934D01*
X145159193Y-97087432D01*
X145243422Y-97088567D01*
X145326202Y-97107045D01*
X145404244Y-97143576D01*
X145474259Y-97198865D01*
X145506350Y-97235026D01*
X145556283Y-97316522D01*
X145587188Y-97408676D01*
X145589645Y-97430727D01*
X145598357Y-97508931D01*
G36*
X145598357Y-97508931D02*
G01*
X145589085Y-97614727D01*
X145586880Y-97626018D01*
X145557227Y-97718599D01*
X145510373Y-97798031D01*
X145448125Y-97862396D01*
X145372289Y-97909775D01*
X145284668Y-97938249D01*
X145204995Y-97947522D01*
X145110891Y-97942226D01*
X145023578Y-97919811D01*
X144948288Y-97881166D01*
X144941363Y-97876184D01*
X144909673Y-97848949D01*
X144878483Y-97816407D01*
X144852020Y-97783678D01*
X144834511Y-97755880D01*
X144830183Y-97738133D01*
X144838726Y-97729258D01*
X144862662Y-97712249D01*
X144895940Y-97692106D01*
X144899419Y-97690150D01*
X144934614Y-97672154D01*
X144954747Y-97666603D01*
X144963215Y-97672506D01*
X144967589Y-97682160D01*
X144989896Y-97712421D01*
X145022283Y-97744832D01*
X145057550Y-97772684D01*
X145088495Y-97789264D01*
X145112750Y-97794522D01*
X145156456Y-97798414D01*
X145202950Y-97798035D01*
X145238231Y-97793631D01*
X145306849Y-97769994D01*
X145361872Y-97728568D01*
X145401383Y-97671085D01*
X145423461Y-97599274D01*
X145430203Y-97557727D01*
X144789198Y-97557727D01*
X144797392Y-97474576D01*
X144803345Y-97429221D01*
X144805299Y-97418810D01*
X144965364Y-97418810D01*
X144969031Y-97421536D01*
X144993266Y-97425515D01*
X145039713Y-97428392D01*
X145107823Y-97430138D01*
X145197051Y-97430727D01*
X145428738Y-97430727D01*
X145420725Y-97404750D01*
X145414473Y-97386591D01*
X145378575Y-97321897D01*
X145327624Y-97274116D01*
X145263476Y-97244601D01*
X145187985Y-97234708D01*
X145165092Y-97236102D01*
X145109135Y-97248498D01*
X145057967Y-97270846D01*
X145020645Y-97299632D01*
X145019261Y-97301244D01*
X145002164Y-97327143D01*
X144984601Y-97361582D01*
X144970894Y-97395244D01*
X144965364Y-97418810D01*
X144805299Y-97418810D01*
X144812880Y-97378423D01*
X144823285Y-97338917D01*
X144831413Y-97317154D01*
X144873558Y-97242182D01*
X144930697Y-97181016D01*
X144999541Y-97134364D01*
X145076803Y-97102934D01*
X145159193Y-97087432D01*
X145243422Y-97088567D01*
X145326202Y-97107045D01*
X145404244Y-97143576D01*
X145474259Y-97198865D01*
X145506350Y-97235026D01*
X145556283Y-97316522D01*
X145587188Y-97408676D01*
X145589645Y-97430727D01*
X145598357Y-97508931D01*
G37*
X148457349Y-97100390D02*
X148524929Y-97123842D01*
X148582978Y-97166351D01*
X148602038Y-97183974D01*
X148624969Y-97200861D01*
X148638079Y-97204811D01*
X148640060Y-97202734D01*
X148645981Y-97183469D01*
X148648364Y-97152954D01*
X148648364Y-97107454D01*
X148810000Y-97107454D01*
X148810000Y-97927181D01*
X148650168Y-97927181D01*
X148646379Y-97647204D01*
X148645473Y-97584525D01*
X148644060Y-97509802D01*
X148642318Y-97452949D01*
X148639983Y-97410861D01*
X148636796Y-97380430D01*
X148632494Y-97358551D01*
X148626816Y-97342118D01*
X148619500Y-97328025D01*
X148613860Y-97318809D01*
X148575498Y-97273480D01*
X148529069Y-97248122D01*
X148470311Y-97240227D01*
X148467734Y-97240236D01*
X148405291Y-97247881D01*
X148359083Y-97270494D01*
X148326993Y-97309091D01*
X148326312Y-97310360D01*
X148320327Y-97325043D01*
X148315619Y-97345517D01*
X148311985Y-97374664D01*
X148309225Y-97415368D01*
X148307136Y-97470513D01*
X148305517Y-97542982D01*
X148304166Y-97635659D01*
X148300559Y-97927181D01*
X148140364Y-97927181D01*
X148140364Y-97653736D01*
X148140306Y-97590791D01*
X148139904Y-97517432D01*
X148138908Y-97461618D01*
X148137077Y-97420075D01*
X148134170Y-97389532D01*
X148129946Y-97366713D01*
X148124162Y-97348346D01*
X148116579Y-97331157D01*
X148094409Y-97297262D01*
X148052610Y-97262482D01*
X148002654Y-97242561D01*
X147949487Y-97237744D01*
X147898051Y-97248278D01*
X147853290Y-97274410D01*
X147820148Y-97316385D01*
X147817411Y-97323985D01*
X147813055Y-97350021D01*
X147809783Y-97392564D01*
X147807518Y-97453256D01*
X147806187Y-97533740D01*
X147805716Y-97635659D01*
X147805546Y-97927181D01*
X147630435Y-97927181D01*
X147634566Y-97612568D01*
X147635347Y-97556850D01*
X147636866Y-97472014D01*
X147638683Y-97405771D01*
X147640997Y-97355220D01*
X147644004Y-97317461D01*
X147647904Y-97289593D01*
X147652895Y-97268716D01*
X147659173Y-97251930D01*
X147687064Y-97202991D01*
X147738519Y-97150726D01*
X147804814Y-97116007D01*
X147885528Y-97099117D01*
X147934258Y-97097265D01*
X147999737Y-97106830D01*
X148056040Y-97133513D01*
X148108910Y-97179378D01*
X148110910Y-97181488D01*
X148138268Y-97209223D01*
X148158548Y-97227764D01*
X148167490Y-97233196D01*
X148168492Y-97231827D01*
X148179079Y-97216761D01*
X148196136Y-97192152D01*
X148209595Y-97176646D01*
X148242776Y-97149202D01*
X148281255Y-97125766D01*
X148310880Y-97112980D01*
X148384560Y-97096576D01*
X148457349Y-97100390D01*
G36*
X148457349Y-97100390D02*
G01*
X148524929Y-97123842D01*
X148582978Y-97166351D01*
X148602038Y-97183974D01*
X148624969Y-97200861D01*
X148638079Y-97204811D01*
X148640060Y-97202734D01*
X148645981Y-97183469D01*
X148648364Y-97152954D01*
X148648364Y-97107454D01*
X148810000Y-97107454D01*
X148810000Y-97927181D01*
X148650168Y-97927181D01*
X148646379Y-97647204D01*
X148645473Y-97584525D01*
X148644060Y-97509802D01*
X148642318Y-97452949D01*
X148639983Y-97410861D01*
X148636796Y-97380430D01*
X148632494Y-97358551D01*
X148626816Y-97342118D01*
X148619500Y-97328025D01*
X148613860Y-97318809D01*
X148575498Y-97273480D01*
X148529069Y-97248122D01*
X148470311Y-97240227D01*
X148467734Y-97240236D01*
X148405291Y-97247881D01*
X148359083Y-97270494D01*
X148326993Y-97309091D01*
X148326312Y-97310360D01*
X148320327Y-97325043D01*
X148315619Y-97345517D01*
X148311985Y-97374664D01*
X148309225Y-97415368D01*
X148307136Y-97470513D01*
X148305517Y-97542982D01*
X148304166Y-97635659D01*
X148300559Y-97927181D01*
X148140364Y-97927181D01*
X148140364Y-97653736D01*
X148140306Y-97590791D01*
X148139904Y-97517432D01*
X148138908Y-97461618D01*
X148137077Y-97420075D01*
X148134170Y-97389532D01*
X148129946Y-97366713D01*
X148124162Y-97348346D01*
X148116579Y-97331157D01*
X148094409Y-97297262D01*
X148052610Y-97262482D01*
X148002654Y-97242561D01*
X147949487Y-97237744D01*
X147898051Y-97248278D01*
X147853290Y-97274410D01*
X147820148Y-97316385D01*
X147817411Y-97323985D01*
X147813055Y-97350021D01*
X147809783Y-97392564D01*
X147807518Y-97453256D01*
X147806187Y-97533740D01*
X147805716Y-97635659D01*
X147805546Y-97927181D01*
X147630435Y-97927181D01*
X147634566Y-97612568D01*
X147635347Y-97556850D01*
X147636866Y-97472014D01*
X147638683Y-97405771D01*
X147640997Y-97355220D01*
X147644004Y-97317461D01*
X147647904Y-97289593D01*
X147652895Y-97268716D01*
X147659173Y-97251930D01*
X147687064Y-97202991D01*
X147738519Y-97150726D01*
X147804814Y-97116007D01*
X147885528Y-97099117D01*
X147934258Y-97097265D01*
X147999737Y-97106830D01*
X148056040Y-97133513D01*
X148108910Y-97179378D01*
X148110910Y-97181488D01*
X148138268Y-97209223D01*
X148158548Y-97227764D01*
X148167490Y-97233196D01*
X148168492Y-97231827D01*
X148179079Y-97216761D01*
X148196136Y-97192152D01*
X148209595Y-97176646D01*
X148242776Y-97149202D01*
X148281255Y-97125766D01*
X148310880Y-97112980D01*
X148384560Y-97096576D01*
X148457349Y-97100390D01*
G37*
X147435576Y-97703085D02*
X147424298Y-97778675D01*
X147420697Y-97789708D01*
X147391145Y-97839174D01*
X147343579Y-97883230D01*
X147282137Y-97918699D01*
X147210955Y-97942408D01*
X147181596Y-97946965D01*
X147114476Y-97947487D01*
X147041989Y-97937314D01*
X147034440Y-97935619D01*
X146996444Y-97923082D01*
X146963557Y-97902373D01*
X146926715Y-97868042D01*
X146897550Y-97839715D01*
X146873674Y-97819456D01*
X146860335Y-97811727D01*
X146851594Y-97819792D01*
X146845153Y-97842335D01*
X146833829Y-97874358D01*
X146803863Y-97900702D01*
X146754573Y-97917548D01*
X146684857Y-97925467D01*
X146593273Y-97929626D01*
X146593273Y-97788636D01*
X146638041Y-97788636D01*
X146645462Y-97788445D01*
X146676139Y-97783579D01*
X146694601Y-97774204D01*
X146698494Y-97759445D01*
X146702438Y-97724605D01*
X146706008Y-97673271D01*
X146708681Y-97615133D01*
X146881909Y-97615133D01*
X146885453Y-97652251D01*
X146908109Y-97710273D01*
X146950587Y-97758075D01*
X147011582Y-97793858D01*
X147026381Y-97799361D01*
X147083521Y-97810195D01*
X147141260Y-97807503D01*
X147194038Y-97792657D01*
X147236292Y-97767028D01*
X147262463Y-97731987D01*
X147263035Y-97730579D01*
X147270862Y-97682449D01*
X147257479Y-97636826D01*
X147224491Y-97599311D01*
X147217898Y-97594663D01*
X147201093Y-97585927D01*
X147179065Y-97579887D01*
X147147347Y-97575875D01*
X147101472Y-97573223D01*
X147036973Y-97571264D01*
X146881909Y-97567483D01*
X146881909Y-97615133D01*
X146708681Y-97615133D01*
X146708971Y-97608822D01*
X146711096Y-97534636D01*
X146711986Y-97495705D01*
X146714774Y-97414513D01*
X146719065Y-97351358D01*
X146725675Y-97302646D01*
X146735422Y-97264785D01*
X146749123Y-97234183D01*
X146767594Y-97207246D01*
X146791652Y-97180381D01*
X146834175Y-97144099D01*
X146893770Y-97113612D01*
X146966118Y-97096381D01*
X147055091Y-97091095D01*
X147133668Y-97095330D01*
X147205243Y-97110451D01*
X147265267Y-97138176D01*
X147318762Y-97180205D01*
X147324537Y-97185982D01*
X147351498Y-97218311D01*
X147376278Y-97255211D01*
X147394417Y-97289472D01*
X147401455Y-97313884D01*
X147396158Y-97320142D01*
X147374142Y-97332107D01*
X147340841Y-97344890D01*
X147316317Y-97352991D01*
X147284975Y-97363473D01*
X147267446Y-97369510D01*
X147266270Y-97369786D01*
X147253325Y-97361542D01*
X147240046Y-97338912D01*
X147230703Y-97319967D01*
X147192958Y-97274893D01*
X147142666Y-97243487D01*
X147085011Y-97226780D01*
X147025177Y-97225802D01*
X146968348Y-97241587D01*
X146919708Y-97275164D01*
X146907303Y-97288093D01*
X146890783Y-97311277D01*
X146883525Y-97337850D01*
X146881909Y-97377618D01*
X146881909Y-97442272D01*
X147041450Y-97442272D01*
X147062018Y-97442347D01*
X147150294Y-97445067D01*
X147220185Y-97452264D01*
X147275373Y-97464714D01*
X147319540Y-97483190D01*
X147356368Y-97508466D01*
X147362071Y-97513461D01*
X147403299Y-97565850D01*
X147428189Y-97630601D01*
X147433473Y-97682449D01*
X147435576Y-97703085D01*
G36*
X147435576Y-97703085D02*
G01*
X147424298Y-97778675D01*
X147420697Y-97789708D01*
X147391145Y-97839174D01*
X147343579Y-97883230D01*
X147282137Y-97918699D01*
X147210955Y-97942408D01*
X147181596Y-97946965D01*
X147114476Y-97947487D01*
X147041989Y-97937314D01*
X147034440Y-97935619D01*
X146996444Y-97923082D01*
X146963557Y-97902373D01*
X146926715Y-97868042D01*
X146897550Y-97839715D01*
X146873674Y-97819456D01*
X146860335Y-97811727D01*
X146851594Y-97819792D01*
X146845153Y-97842335D01*
X146833829Y-97874358D01*
X146803863Y-97900702D01*
X146754573Y-97917548D01*
X146684857Y-97925467D01*
X146593273Y-97929626D01*
X146593273Y-97788636D01*
X146638041Y-97788636D01*
X146645462Y-97788445D01*
X146676139Y-97783579D01*
X146694601Y-97774204D01*
X146698494Y-97759445D01*
X146702438Y-97724605D01*
X146706008Y-97673271D01*
X146708681Y-97615133D01*
X146881909Y-97615133D01*
X146885453Y-97652251D01*
X146908109Y-97710273D01*
X146950587Y-97758075D01*
X147011582Y-97793858D01*
X147026381Y-97799361D01*
X147083521Y-97810195D01*
X147141260Y-97807503D01*
X147194038Y-97792657D01*
X147236292Y-97767028D01*
X147262463Y-97731987D01*
X147263035Y-97730579D01*
X147270862Y-97682449D01*
X147257479Y-97636826D01*
X147224491Y-97599311D01*
X147217898Y-97594663D01*
X147201093Y-97585927D01*
X147179065Y-97579887D01*
X147147347Y-97575875D01*
X147101472Y-97573223D01*
X147036973Y-97571264D01*
X146881909Y-97567483D01*
X146881909Y-97615133D01*
X146708681Y-97615133D01*
X146708971Y-97608822D01*
X146711096Y-97534636D01*
X146711986Y-97495705D01*
X146714774Y-97414513D01*
X146719065Y-97351358D01*
X146725675Y-97302646D01*
X146735422Y-97264785D01*
X146749123Y-97234183D01*
X146767594Y-97207246D01*
X146791652Y-97180381D01*
X146834175Y-97144099D01*
X146893770Y-97113612D01*
X146966118Y-97096381D01*
X147055091Y-97091095D01*
X147133668Y-97095330D01*
X147205243Y-97110451D01*
X147265267Y-97138176D01*
X147318762Y-97180205D01*
X147324537Y-97185982D01*
X147351498Y-97218311D01*
X147376278Y-97255211D01*
X147394417Y-97289472D01*
X147401455Y-97313884D01*
X147396158Y-97320142D01*
X147374142Y-97332107D01*
X147340841Y-97344890D01*
X147316317Y-97352991D01*
X147284975Y-97363473D01*
X147267446Y-97369510D01*
X147266270Y-97369786D01*
X147253325Y-97361542D01*
X147240046Y-97338912D01*
X147230703Y-97319967D01*
X147192958Y-97274893D01*
X147142666Y-97243487D01*
X147085011Y-97226780D01*
X147025177Y-97225802D01*
X146968348Y-97241587D01*
X146919708Y-97275164D01*
X146907303Y-97288093D01*
X146890783Y-97311277D01*
X146883525Y-97337850D01*
X146881909Y-97377618D01*
X146881909Y-97442272D01*
X147041450Y-97442272D01*
X147062018Y-97442347D01*
X147150294Y-97445067D01*
X147220185Y-97452264D01*
X147275373Y-97464714D01*
X147319540Y-97483190D01*
X147356368Y-97508466D01*
X147362071Y-97513461D01*
X147403299Y-97565850D01*
X147428189Y-97630601D01*
X147433473Y-97682449D01*
X147435576Y-97703085D01*
G37*
X150151992Y-97604360D02*
X150137651Y-97673811D01*
X150103916Y-97761492D01*
X150055673Y-97832328D01*
X149993710Y-97885503D01*
X149918814Y-97920203D01*
X149831773Y-97935613D01*
X149805167Y-97936845D01*
X149764676Y-97935712D01*
X149732497Y-97928491D01*
X149699000Y-97913584D01*
X149688002Y-97907355D01*
X149648784Y-97877338D01*
X149619134Y-97843477D01*
X149599771Y-97817746D01*
X149579408Y-97802238D01*
X149565563Y-97806003D01*
X149560455Y-97829570D01*
X149558205Y-97845208D01*
X149539113Y-97878703D01*
X149505209Y-97906146D01*
X149462159Y-97922200D01*
X149429495Y-97925366D01*
X149383235Y-97926008D01*
X149334181Y-97923879D01*
X149289529Y-97918507D01*
X149217534Y-97897480D01*
X149160510Y-97860577D01*
X149115752Y-97805738D01*
X149080557Y-97730909D01*
X149074380Y-97709537D01*
X149065339Y-97657420D01*
X149058800Y-97591870D01*
X149055024Y-97518974D01*
X149054271Y-97444823D01*
X149056802Y-97375505D01*
X149062875Y-97317109D01*
X149067583Y-97289714D01*
X149101080Y-97166737D01*
X149152402Y-97058415D01*
X149221330Y-96964997D01*
X149307649Y-96886735D01*
X149411142Y-96823877D01*
X149531591Y-96776674D01*
X149575826Y-96767001D01*
X149642640Y-96759357D01*
X149720267Y-96755461D01*
X149802299Y-96755308D01*
X149882326Y-96758889D01*
X149953939Y-96766197D01*
X150010727Y-96777225D01*
X150104563Y-96809527D01*
X150212849Y-96866953D01*
X150306140Y-96941174D01*
X150383270Y-97031016D01*
X150443070Y-97135309D01*
X150484375Y-97252881D01*
X150495076Y-97308505D01*
X150503456Y-97388728D01*
X150507205Y-97477907D01*
X150506237Y-97568637D01*
X150500469Y-97653515D01*
X150489813Y-97725136D01*
X150488860Y-97729604D01*
X150452555Y-97845471D01*
X150397196Y-97949404D01*
X150324123Y-98040247D01*
X150234677Y-98116846D01*
X150130198Y-98178045D01*
X150012026Y-98222687D01*
X149881501Y-98249618D01*
X149860970Y-98251702D01*
X149812901Y-98254827D01*
X149751123Y-98257496D01*
X149681406Y-98259476D01*
X149609523Y-98260535D01*
X149410364Y-98262000D01*
X149410364Y-98115033D01*
X149644159Y-98108757D01*
X149676791Y-98107807D01*
X149772814Y-98103860D01*
X149848389Y-98098645D01*
X149905540Y-98091995D01*
X149946287Y-98083743D01*
X149966344Y-98077909D01*
X150071285Y-98034650D01*
X150160556Y-97974605D01*
X150233554Y-97898380D01*
X150289678Y-97806581D01*
X150328324Y-97699813D01*
X150336205Y-97658283D01*
X150342597Y-97591167D01*
X150344983Y-97514853D01*
X150343366Y-97436908D01*
X150337751Y-97364899D01*
X150328139Y-97306392D01*
X150315076Y-97259030D01*
X150272217Y-97158789D01*
X150212726Y-97074329D01*
X150137158Y-97006090D01*
X150046065Y-96954510D01*
X149940004Y-96920030D01*
X149819527Y-96903089D01*
X149726381Y-96901716D01*
X149609391Y-96915174D01*
X149506464Y-96946181D01*
X149418102Y-96994442D01*
X149344808Y-97059662D01*
X149287086Y-97141546D01*
X149245439Y-97239798D01*
X149243589Y-97245750D01*
X149233484Y-97282767D01*
X149226674Y-97319776D01*
X149222573Y-97362547D01*
X149220595Y-97416850D01*
X149220152Y-97488454D01*
X149220492Y-97537982D01*
X149222194Y-97598350D01*
X149225657Y-97642438D01*
X149231260Y-97674367D01*
X149239380Y-97698261D01*
X149268657Y-97743126D01*
X149309277Y-97769318D01*
X149360413Y-97774954D01*
X149404591Y-97771318D01*
X149406682Y-97544794D01*
X149578417Y-97544794D01*
X149583299Y-97604102D01*
X149594741Y-97650090D01*
X149609156Y-97681476D01*
X149646940Y-97736170D01*
X149692188Y-97769661D01*
X149751089Y-97789456D01*
X149815864Y-97792591D01*
X149873844Y-97774788D01*
X149922752Y-97736813D01*
X149960306Y-97679434D01*
X149972122Y-97651068D01*
X149981519Y-97615992D01*
X149986209Y-97573859D01*
X149987524Y-97516698D01*
X149987520Y-97508858D01*
X149986283Y-97456419D01*
X149981892Y-97418157D01*
X149972924Y-97386185D01*
X149957959Y-97352614D01*
X149949823Y-97337202D01*
X149915773Y-97290564D01*
X149873535Y-97260937D01*
X149819010Y-97246207D01*
X149748102Y-97244258D01*
X149741268Y-97244938D01*
X149701383Y-97260267D01*
X149660713Y-97291618D01*
X149624667Y-97333993D01*
X149598652Y-97382393D01*
X149587824Y-97421351D01*
X149579968Y-97480950D01*
X149578417Y-97544794D01*
X149406682Y-97544794D01*
X149407655Y-97439386D01*
X149410718Y-97107454D01*
X149572000Y-97107454D01*
X149572000Y-97158727D01*
X149572425Y-97172926D01*
X149576420Y-97202120D01*
X149583258Y-97216958D01*
X149594161Y-97214283D01*
X149616383Y-97198398D01*
X149643871Y-97172586D01*
X149696045Y-97131191D01*
X149762034Y-97104004D01*
X149833277Y-97095971D01*
X149905961Y-97106967D01*
X149976268Y-97136867D01*
X150040385Y-97185546D01*
X150085072Y-97240839D01*
X150123567Y-97318297D01*
X150148321Y-97407584D01*
X150158179Y-97504380D01*
X150157416Y-97516698D01*
X150151992Y-97604360D01*
G36*
X150151992Y-97604360D02*
G01*
X150137651Y-97673811D01*
X150103916Y-97761492D01*
X150055673Y-97832328D01*
X149993710Y-97885503D01*
X149918814Y-97920203D01*
X149831773Y-97935613D01*
X149805167Y-97936845D01*
X149764676Y-97935712D01*
X149732497Y-97928491D01*
X149699000Y-97913584D01*
X149688002Y-97907355D01*
X149648784Y-97877338D01*
X149619134Y-97843477D01*
X149599771Y-97817746D01*
X149579408Y-97802238D01*
X149565563Y-97806003D01*
X149560455Y-97829570D01*
X149558205Y-97845208D01*
X149539113Y-97878703D01*
X149505209Y-97906146D01*
X149462159Y-97922200D01*
X149429495Y-97925366D01*
X149383235Y-97926008D01*
X149334181Y-97923879D01*
X149289529Y-97918507D01*
X149217534Y-97897480D01*
X149160510Y-97860577D01*
X149115752Y-97805738D01*
X149080557Y-97730909D01*
X149074380Y-97709537D01*
X149065339Y-97657420D01*
X149058800Y-97591870D01*
X149055024Y-97518974D01*
X149054271Y-97444823D01*
X149056802Y-97375505D01*
X149062875Y-97317109D01*
X149067583Y-97289714D01*
X149101080Y-97166737D01*
X149152402Y-97058415D01*
X149221330Y-96964997D01*
X149307649Y-96886735D01*
X149411142Y-96823877D01*
X149531591Y-96776674D01*
X149575826Y-96767001D01*
X149642640Y-96759357D01*
X149720267Y-96755461D01*
X149802299Y-96755308D01*
X149882326Y-96758889D01*
X149953939Y-96766197D01*
X150010727Y-96777225D01*
X150104563Y-96809527D01*
X150212849Y-96866953D01*
X150306140Y-96941174D01*
X150383270Y-97031016D01*
X150443070Y-97135309D01*
X150484375Y-97252881D01*
X150495076Y-97308505D01*
X150503456Y-97388728D01*
X150507205Y-97477907D01*
X150506237Y-97568637D01*
X150500469Y-97653515D01*
X150489813Y-97725136D01*
X150488860Y-97729604D01*
X150452555Y-97845471D01*
X150397196Y-97949404D01*
X150324123Y-98040247D01*
X150234677Y-98116846D01*
X150130198Y-98178045D01*
X150012026Y-98222687D01*
X149881501Y-98249618D01*
X149860970Y-98251702D01*
X149812901Y-98254827D01*
X149751123Y-98257496D01*
X149681406Y-98259476D01*
X149609523Y-98260535D01*
X149410364Y-98262000D01*
X149410364Y-98115033D01*
X149644159Y-98108757D01*
X149676791Y-98107807D01*
X149772814Y-98103860D01*
X149848389Y-98098645D01*
X149905540Y-98091995D01*
X149946287Y-98083743D01*
X149966344Y-98077909D01*
X150071285Y-98034650D01*
X150160556Y-97974605D01*
X150233554Y-97898380D01*
X150289678Y-97806581D01*
X150328324Y-97699813D01*
X150336205Y-97658283D01*
X150342597Y-97591167D01*
X150344983Y-97514853D01*
X150343366Y-97436908D01*
X150337751Y-97364899D01*
X150328139Y-97306392D01*
X150315076Y-97259030D01*
X150272217Y-97158789D01*
X150212726Y-97074329D01*
X150137158Y-97006090D01*
X150046065Y-96954510D01*
X149940004Y-96920030D01*
X149819527Y-96903089D01*
X149726381Y-96901716D01*
X149609391Y-96915174D01*
X149506464Y-96946181D01*
X149418102Y-96994442D01*
X149344808Y-97059662D01*
X149287086Y-97141546D01*
X149245439Y-97239798D01*
X149243589Y-97245750D01*
X149233484Y-97282767D01*
X149226674Y-97319776D01*
X149222573Y-97362547D01*
X149220595Y-97416850D01*
X149220152Y-97488454D01*
X149220492Y-97537982D01*
X149222194Y-97598350D01*
X149225657Y-97642438D01*
X149231260Y-97674367D01*
X149239380Y-97698261D01*
X149268657Y-97743126D01*
X149309277Y-97769318D01*
X149360413Y-97774954D01*
X149404591Y-97771318D01*
X149406682Y-97544794D01*
X149578417Y-97544794D01*
X149583299Y-97604102D01*
X149594741Y-97650090D01*
X149609156Y-97681476D01*
X149646940Y-97736170D01*
X149692188Y-97769661D01*
X149751089Y-97789456D01*
X149815864Y-97792591D01*
X149873844Y-97774788D01*
X149922752Y-97736813D01*
X149960306Y-97679434D01*
X149972122Y-97651068D01*
X149981519Y-97615992D01*
X149986209Y-97573859D01*
X149987524Y-97516698D01*
X149987520Y-97508858D01*
X149986283Y-97456419D01*
X149981892Y-97418157D01*
X149972924Y-97386185D01*
X149957959Y-97352614D01*
X149949823Y-97337202D01*
X149915773Y-97290564D01*
X149873535Y-97260937D01*
X149819010Y-97246207D01*
X149748102Y-97244258D01*
X149741268Y-97244938D01*
X149701383Y-97260267D01*
X149660713Y-97291618D01*
X149624667Y-97333993D01*
X149598652Y-97382393D01*
X149587824Y-97421351D01*
X149579968Y-97480950D01*
X149578417Y-97544794D01*
X149406682Y-97544794D01*
X149407655Y-97439386D01*
X149410718Y-97107454D01*
X149572000Y-97107454D01*
X149572000Y-97158727D01*
X149572425Y-97172926D01*
X149576420Y-97202120D01*
X149583258Y-97216958D01*
X149594161Y-97214283D01*
X149616383Y-97198398D01*
X149643871Y-97172586D01*
X149696045Y-97131191D01*
X149762034Y-97104004D01*
X149833277Y-97095971D01*
X149905961Y-97106967D01*
X149976268Y-97136867D01*
X150040385Y-97185546D01*
X150085072Y-97240839D01*
X150123567Y-97318297D01*
X150148321Y-97407584D01*
X150158179Y-97504380D01*
X150157416Y-97516698D01*
X150151992Y-97604360D01*
G37*
X146009863Y-74505556D02*
X145812308Y-74505556D01*
X145812308Y-73503667D01*
X146009863Y-73503667D01*
X146009863Y-74505556D01*
G36*
X146009863Y-74505556D02*
G01*
X145812308Y-74505556D01*
X145812308Y-73503667D01*
X146009863Y-73503667D01*
X146009863Y-74505556D01*
G37*
X145968389Y-73100579D02*
X146010681Y-73130786D01*
X146039485Y-73172917D01*
X146051399Y-73222018D01*
X146043020Y-73273134D01*
X146010949Y-73321308D01*
X145997065Y-73334277D01*
X145959200Y-73356606D01*
X145911085Y-73362556D01*
X145892373Y-73361442D01*
X145839681Y-73343972D01*
X145800813Y-73309855D01*
X145776980Y-73264988D01*
X145769396Y-73215270D01*
X145779274Y-73166599D01*
X145807827Y-73124874D01*
X145856267Y-73095992D01*
X145856946Y-73095757D01*
X145916010Y-73087251D01*
X145968389Y-73100579D01*
G36*
X145968389Y-73100579D02*
G01*
X146010681Y-73130786D01*
X146039485Y-73172917D01*
X146051399Y-73222018D01*
X146043020Y-73273134D01*
X146010949Y-73321308D01*
X145997065Y-73334277D01*
X145959200Y-73356606D01*
X145911085Y-73362556D01*
X145892373Y-73361442D01*
X145839681Y-73343972D01*
X145800813Y-73309855D01*
X145776980Y-73264988D01*
X145769396Y-73215270D01*
X145779274Y-73166599D01*
X145807827Y-73124874D01*
X145856267Y-73095992D01*
X145856946Y-73095757D01*
X145916010Y-73087251D01*
X145968389Y-73100579D01*
G37*
X139360704Y-74214819D02*
X139402804Y-74231246D01*
X139403685Y-74231870D01*
X139439106Y-74269031D01*
X139465844Y-74317989D01*
X139476419Y-74365139D01*
X139476136Y-74372729D01*
X139461255Y-74426718D01*
X139429125Y-74477162D01*
X139387223Y-74511769D01*
X139366315Y-74520912D01*
X139302978Y-74531429D01*
X139244638Y-74518150D01*
X139196553Y-74484296D01*
X139163980Y-74433089D01*
X139152177Y-74367750D01*
X139158187Y-74314923D01*
X139184118Y-74262192D01*
X139232074Y-74224985D01*
X139253593Y-74216839D01*
X139306374Y-74209848D01*
X139360704Y-74214819D01*
G36*
X139360704Y-74214819D02*
G01*
X139402804Y-74231246D01*
X139403685Y-74231870D01*
X139439106Y-74269031D01*
X139465844Y-74317989D01*
X139476419Y-74365139D01*
X139476136Y-74372729D01*
X139461255Y-74426718D01*
X139429125Y-74477162D01*
X139387223Y-74511769D01*
X139366315Y-74520912D01*
X139302978Y-74531429D01*
X139244638Y-74518150D01*
X139196553Y-74484296D01*
X139163980Y-74433089D01*
X139152177Y-74367750D01*
X139158187Y-74314923D01*
X139184118Y-74262192D01*
X139232074Y-74224985D01*
X139253593Y-74216839D01*
X139306374Y-74209848D01*
X139360704Y-74214819D01*
G37*
X142630214Y-73506132D02*
X142706603Y-73521863D01*
X142764916Y-73550702D01*
X142800955Y-73590983D01*
X142818482Y-73617151D01*
X142837748Y-73625278D01*
X142852316Y-73606785D01*
X142860369Y-73562543D01*
X142864708Y-73503667D01*
X143060641Y-73503667D01*
X143060641Y-74505556D01*
X142848974Y-74505556D01*
X142848974Y-74168976D01*
X142848973Y-74149500D01*
X142848829Y-74047574D01*
X142848225Y-73969420D01*
X142846845Y-73911218D01*
X142844372Y-73869151D01*
X142840490Y-73839402D01*
X142834882Y-73818153D01*
X142827232Y-73801586D01*
X142817224Y-73785882D01*
X142799316Y-73762575D01*
X142746881Y-73719390D01*
X142679105Y-73694866D01*
X142591667Y-73687112D01*
X142496196Y-73687112D01*
X142496196Y-73503667D01*
X142580578Y-73503667D01*
X142630214Y-73506132D01*
G36*
X142630214Y-73506132D02*
G01*
X142706603Y-73521863D01*
X142764916Y-73550702D01*
X142800955Y-73590983D01*
X142818482Y-73617151D01*
X142837748Y-73625278D01*
X142852316Y-73606785D01*
X142860369Y-73562543D01*
X142864708Y-73503667D01*
X143060641Y-73503667D01*
X143060641Y-74505556D01*
X142848974Y-74505556D01*
X142848974Y-74168976D01*
X142848973Y-74149500D01*
X142848829Y-74047574D01*
X142848225Y-73969420D01*
X142846845Y-73911218D01*
X142844372Y-73869151D01*
X142840490Y-73839402D01*
X142834882Y-73818153D01*
X142827232Y-73801586D01*
X142817224Y-73785882D01*
X142799316Y-73762575D01*
X142746881Y-73719390D01*
X142679105Y-73694866D01*
X142591667Y-73687112D01*
X142496196Y-73687112D01*
X142496196Y-73503667D01*
X142580578Y-73503667D01*
X142630214Y-73506132D01*
G37*
X141147056Y-73747084D02*
X141162508Y-73795867D01*
X141194116Y-73895723D01*
X141226209Y-73997179D01*
X141255781Y-74090735D01*
X141279829Y-74166889D01*
X141301549Y-74232437D01*
X141324330Y-74292895D01*
X141342819Y-74332226D01*
X141355704Y-74347312D01*
X141361643Y-74344068D01*
X141372886Y-74325558D01*
X141388526Y-74289143D01*
X141409235Y-74232976D01*
X141435685Y-74155212D01*
X141468548Y-74054004D01*
X141508495Y-73927506D01*
X141641065Y-73503667D01*
X141860423Y-73503667D01*
X141691476Y-73999861D01*
X141688539Y-74008488D01*
X141650508Y-74120328D01*
X141615578Y-74223283D01*
X141584753Y-74314383D01*
X141559033Y-74390656D01*
X141539421Y-74449131D01*
X141526920Y-74486838D01*
X141522530Y-74500806D01*
X141509725Y-74502631D01*
X141474125Y-74504151D01*
X141421237Y-74505178D01*
X141356569Y-74505556D01*
X141190608Y-74505556D01*
X141029975Y-74022250D01*
X140994581Y-73915807D01*
X140959964Y-73811802D01*
X140929016Y-73718924D01*
X140902782Y-73640303D01*
X140882307Y-73579072D01*
X140868637Y-73538363D01*
X140862815Y-73521306D01*
X140862386Y-73517098D01*
X140873844Y-73509214D01*
X140906218Y-73504948D01*
X140963113Y-73503667D01*
X141069937Y-73503667D01*
X141147056Y-73747084D01*
G36*
X141147056Y-73747084D02*
G01*
X141162508Y-73795867D01*
X141194116Y-73895723D01*
X141226209Y-73997179D01*
X141255781Y-74090735D01*
X141279829Y-74166889D01*
X141301549Y-74232437D01*
X141324330Y-74292895D01*
X141342819Y-74332226D01*
X141355704Y-74347312D01*
X141361643Y-74344068D01*
X141372886Y-74325558D01*
X141388526Y-74289143D01*
X141409235Y-74232976D01*
X141435685Y-74155212D01*
X141468548Y-74054004D01*
X141508495Y-73927506D01*
X141641065Y-73503667D01*
X141860423Y-73503667D01*
X141691476Y-73999861D01*
X141688539Y-74008488D01*
X141650508Y-74120328D01*
X141615578Y-74223283D01*
X141584753Y-74314383D01*
X141559033Y-74390656D01*
X141539421Y-74449131D01*
X141526920Y-74486838D01*
X141522530Y-74500806D01*
X141509725Y-74502631D01*
X141474125Y-74504151D01*
X141421237Y-74505178D01*
X141356569Y-74505556D01*
X141190608Y-74505556D01*
X141029975Y-74022250D01*
X140994581Y-73915807D01*
X140959964Y-73811802D01*
X140929016Y-73718924D01*
X140902782Y-73640303D01*
X140882307Y-73579072D01*
X140868637Y-73538363D01*
X140862815Y-73521306D01*
X140862386Y-73517098D01*
X140873844Y-73509214D01*
X140906218Y-73504948D01*
X140963113Y-73503667D01*
X141069937Y-73503667D01*
X141147056Y-73747084D01*
G37*
X145046033Y-73503639D02*
X145124211Y-73529316D01*
X145188154Y-73567963D01*
X145231728Y-73617943D01*
X145235123Y-73623765D01*
X145258487Y-73653836D01*
X145275778Y-73656575D01*
X145286511Y-73632287D01*
X145290196Y-73581278D01*
X145290196Y-73503667D01*
X145487752Y-73503667D01*
X145487752Y-74505556D01*
X145290196Y-74505556D01*
X145290196Y-74218839D01*
X145289836Y-74132555D01*
X145287694Y-74030701D01*
X145282927Y-73950481D01*
X145274747Y-73888035D01*
X145262367Y-73839505D01*
X145244997Y-73801032D01*
X145221850Y-73768760D01*
X145192138Y-73738829D01*
X145171570Y-73721839D01*
X145100605Y-73682256D01*
X145024986Y-73663905D01*
X144949999Y-73666130D01*
X144880930Y-73688276D01*
X144823064Y-73729687D01*
X144781686Y-73789709D01*
X144778701Y-73796494D01*
X144770607Y-73818784D01*
X144764524Y-73845052D01*
X144760167Y-73879338D01*
X144757250Y-73925683D01*
X144755488Y-73988126D01*
X144754594Y-74070709D01*
X144754284Y-74177473D01*
X144753974Y-74505556D01*
X144538921Y-74505556D01*
X144545117Y-74149250D01*
X144545318Y-74137719D01*
X144547366Y-74029632D01*
X144549492Y-73945411D01*
X144552058Y-73881075D01*
X144555421Y-73832642D01*
X144559943Y-73796131D01*
X144565983Y-73767563D01*
X144573900Y-73742956D01*
X144584054Y-73718330D01*
X144599492Y-73687543D01*
X144658158Y-73609692D01*
X144734669Y-73548145D01*
X144822478Y-73508661D01*
X144871515Y-73497750D01*
X144959756Y-73492571D01*
X145046033Y-73503639D01*
G36*
X145046033Y-73503639D02*
G01*
X145124211Y-73529316D01*
X145188154Y-73567963D01*
X145231728Y-73617943D01*
X145235123Y-73623765D01*
X145258487Y-73653836D01*
X145275778Y-73656575D01*
X145286511Y-73632287D01*
X145290196Y-73581278D01*
X145290196Y-73503667D01*
X145487752Y-73503667D01*
X145487752Y-74505556D01*
X145290196Y-74505556D01*
X145290196Y-74218839D01*
X145289836Y-74132555D01*
X145287694Y-74030701D01*
X145282927Y-73950481D01*
X145274747Y-73888035D01*
X145262367Y-73839505D01*
X145244997Y-73801032D01*
X145221850Y-73768760D01*
X145192138Y-73738829D01*
X145171570Y-73721839D01*
X145100605Y-73682256D01*
X145024986Y-73663905D01*
X144949999Y-73666130D01*
X144880930Y-73688276D01*
X144823064Y-73729687D01*
X144781686Y-73789709D01*
X144778701Y-73796494D01*
X144770607Y-73818784D01*
X144764524Y-73845052D01*
X144760167Y-73879338D01*
X144757250Y-73925683D01*
X144755488Y-73988126D01*
X144754594Y-74070709D01*
X144754284Y-74177473D01*
X144753974Y-74505556D01*
X144538921Y-74505556D01*
X144545117Y-74149250D01*
X144545318Y-74137719D01*
X144547366Y-74029632D01*
X144549492Y-73945411D01*
X144552058Y-73881075D01*
X144555421Y-73832642D01*
X144559943Y-73796131D01*
X144565983Y-73767563D01*
X144573900Y-73742956D01*
X144584054Y-73718330D01*
X144599492Y-73687543D01*
X144658158Y-73609692D01*
X144734669Y-73548145D01*
X144822478Y-73508661D01*
X144871515Y-73497750D01*
X144959756Y-73492571D01*
X145046033Y-73503639D01*
G37*
X152144301Y-74505556D02*
X151924421Y-74505556D01*
X151901276Y-74424417D01*
X151891610Y-74390608D01*
X151871949Y-74322114D01*
X151853640Y-74258612D01*
X151829150Y-74173945D01*
X151267799Y-74173945D01*
X151243308Y-74258612D01*
X151233257Y-74293431D01*
X151213455Y-74362297D01*
X151195673Y-74424417D01*
X151172527Y-74505556D01*
X150952647Y-74505556D01*
X151110055Y-73953164D01*
X151329752Y-73953164D01*
X151331404Y-73956166D01*
X151350136Y-73962140D01*
X151391275Y-73966232D01*
X151456745Y-73968582D01*
X151548474Y-73969334D01*
X151589083Y-73969212D01*
X151669897Y-73967827D01*
X151725236Y-73964785D01*
X151757028Y-73959945D01*
X151767196Y-73953164D01*
X151767186Y-73952950D01*
X151763247Y-73935405D01*
X151753012Y-73895303D01*
X151737680Y-73837049D01*
X151718445Y-73765047D01*
X151696506Y-73683703D01*
X151673060Y-73597422D01*
X151649302Y-73510610D01*
X151626431Y-73427670D01*
X151605642Y-73353008D01*
X151588132Y-73291030D01*
X151575100Y-73246139D01*
X151560163Y-73225409D01*
X151538264Y-73224620D01*
X151521849Y-73246139D01*
X151521298Y-73247990D01*
X151508002Y-73293881D01*
X151490292Y-73356631D01*
X151469365Y-73431834D01*
X151446417Y-73515085D01*
X151422646Y-73601979D01*
X151399249Y-73688111D01*
X151377422Y-73769076D01*
X151358361Y-73840469D01*
X151343265Y-73897884D01*
X151333330Y-73936918D01*
X151329752Y-73953164D01*
X151110055Y-73953164D01*
X151140631Y-73845862D01*
X151141726Y-73842022D01*
X151179624Y-73709037D01*
X151215563Y-73582951D01*
X151248717Y-73466656D01*
X151278263Y-73363042D01*
X151303375Y-73275003D01*
X151323229Y-73205430D01*
X151336999Y-73157215D01*
X151343861Y-73133250D01*
X151359107Y-73080334D01*
X151737886Y-73080334D01*
X151752320Y-73133250D01*
X151752412Y-73133588D01*
X151759345Y-73158312D01*
X151773200Y-73207192D01*
X151793153Y-73277336D01*
X151818378Y-73365854D01*
X151848052Y-73469855D01*
X151881351Y-73586451D01*
X151917451Y-73712750D01*
X151955527Y-73845862D01*
X151986232Y-73953164D01*
X152144301Y-74505556D01*
G36*
X152144301Y-74505556D02*
G01*
X151924421Y-74505556D01*
X151901276Y-74424417D01*
X151891610Y-74390608D01*
X151871949Y-74322114D01*
X151853640Y-74258612D01*
X151829150Y-74173945D01*
X151267799Y-74173945D01*
X151243308Y-74258612D01*
X151233257Y-74293431D01*
X151213455Y-74362297D01*
X151195673Y-74424417D01*
X151172527Y-74505556D01*
X150952647Y-74505556D01*
X151110055Y-73953164D01*
X151329752Y-73953164D01*
X151331404Y-73956166D01*
X151350136Y-73962140D01*
X151391275Y-73966232D01*
X151456745Y-73968582D01*
X151548474Y-73969334D01*
X151589083Y-73969212D01*
X151669897Y-73967827D01*
X151725236Y-73964785D01*
X151757028Y-73959945D01*
X151767196Y-73953164D01*
X151767186Y-73952950D01*
X151763247Y-73935405D01*
X151753012Y-73895303D01*
X151737680Y-73837049D01*
X151718445Y-73765047D01*
X151696506Y-73683703D01*
X151673060Y-73597422D01*
X151649302Y-73510610D01*
X151626431Y-73427670D01*
X151605642Y-73353008D01*
X151588132Y-73291030D01*
X151575100Y-73246139D01*
X151560163Y-73225409D01*
X151538264Y-73224620D01*
X151521849Y-73246139D01*
X151521298Y-73247990D01*
X151508002Y-73293881D01*
X151490292Y-73356631D01*
X151469365Y-73431834D01*
X151446417Y-73515085D01*
X151422646Y-73601979D01*
X151399249Y-73688111D01*
X151377422Y-73769076D01*
X151358361Y-73840469D01*
X151343265Y-73897884D01*
X151333330Y-73936918D01*
X151329752Y-73953164D01*
X151110055Y-73953164D01*
X151140631Y-73845862D01*
X151141726Y-73842022D01*
X151179624Y-73709037D01*
X151215563Y-73582951D01*
X151248717Y-73466656D01*
X151278263Y-73363042D01*
X151303375Y-73275003D01*
X151323229Y-73205430D01*
X151336999Y-73157215D01*
X151343861Y-73133250D01*
X151359107Y-73080334D01*
X151737886Y-73080334D01*
X151752320Y-73133250D01*
X151752412Y-73133588D01*
X151759345Y-73158312D01*
X151773200Y-73207192D01*
X151793153Y-73277336D01*
X151818378Y-73365854D01*
X151848052Y-73469855D01*
X151881351Y-73586451D01*
X151917451Y-73712750D01*
X151955527Y-73845862D01*
X151986232Y-73953164D01*
X152144301Y-74505556D01*
G37*
X149594085Y-74505556D02*
X149382419Y-74505556D01*
X149382419Y-73941112D01*
X149143317Y-73941111D01*
X149062757Y-73941232D01*
X148996796Y-73941988D01*
X148950201Y-73943946D01*
X148918328Y-73947673D01*
X148896535Y-73953736D01*
X148880181Y-73962701D01*
X148864622Y-73975136D01*
X148825030Y-74009161D01*
X148820592Y-74257359D01*
X148816155Y-74505556D01*
X148604630Y-74505556D01*
X148608997Y-74231378D01*
X148610641Y-74139803D01*
X148612643Y-74067239D01*
X148615380Y-74014564D01*
X148619315Y-73977510D01*
X148624907Y-73951810D01*
X148632617Y-73933197D01*
X148642907Y-73917405D01*
X148677530Y-73884800D01*
X148719892Y-73861851D01*
X148741236Y-73853779D01*
X148767945Y-73835562D01*
X148766713Y-73816204D01*
X148737735Y-73794977D01*
X148726389Y-73788526D01*
X148671005Y-73744640D01*
X148620734Y-73687218D01*
X148585856Y-73627593D01*
X148577374Y-73600498D01*
X148567587Y-73540945D01*
X148566380Y-73517778D01*
X148782696Y-73517778D01*
X148786496Y-73581426D01*
X148802988Y-73638574D01*
X148835883Y-73681660D01*
X148888764Y-73717430D01*
X148903021Y-73724302D01*
X148928288Y-73732531D01*
X148961563Y-73738085D01*
X149007897Y-73741449D01*
X149072342Y-73743110D01*
X149159949Y-73743556D01*
X149382419Y-73743556D01*
X149382419Y-73275461D01*
X149150582Y-73280203D01*
X149132557Y-73280580D01*
X149049696Y-73282725D01*
X148989448Y-73285453D01*
X148947075Y-73289356D01*
X148917838Y-73295027D01*
X148896998Y-73303057D01*
X148879815Y-73314039D01*
X148839934Y-73347460D01*
X148805257Y-73392386D01*
X148787617Y-73446140D01*
X148782696Y-73517778D01*
X148566380Y-73517778D01*
X148563974Y-73471613D01*
X148568680Y-73398738D01*
X148593447Y-73306024D01*
X148640542Y-73229661D01*
X148711175Y-73167891D01*
X148806557Y-73118951D01*
X148824925Y-73112047D01*
X148851185Y-73104181D01*
X148881691Y-73098119D01*
X148920441Y-73093531D01*
X148971428Y-73090085D01*
X149038650Y-73087452D01*
X149126102Y-73085302D01*
X149237780Y-73083304D01*
X149594085Y-73077517D01*
X149594085Y-73743556D01*
X149594085Y-74505556D01*
G36*
X149594085Y-74505556D02*
G01*
X149382419Y-74505556D01*
X149382419Y-73941112D01*
X149143317Y-73941111D01*
X149062757Y-73941232D01*
X148996796Y-73941988D01*
X148950201Y-73943946D01*
X148918328Y-73947673D01*
X148896535Y-73953736D01*
X148880181Y-73962701D01*
X148864622Y-73975136D01*
X148825030Y-74009161D01*
X148820592Y-74257359D01*
X148816155Y-74505556D01*
X148604630Y-74505556D01*
X148608997Y-74231378D01*
X148610641Y-74139803D01*
X148612643Y-74067239D01*
X148615380Y-74014564D01*
X148619315Y-73977510D01*
X148624907Y-73951810D01*
X148632617Y-73933197D01*
X148642907Y-73917405D01*
X148677530Y-73884800D01*
X148719892Y-73861851D01*
X148741236Y-73853779D01*
X148767945Y-73835562D01*
X148766713Y-73816204D01*
X148737735Y-73794977D01*
X148726389Y-73788526D01*
X148671005Y-73744640D01*
X148620734Y-73687218D01*
X148585856Y-73627593D01*
X148577374Y-73600498D01*
X148567587Y-73540945D01*
X148566380Y-73517778D01*
X148782696Y-73517778D01*
X148786496Y-73581426D01*
X148802988Y-73638574D01*
X148835883Y-73681660D01*
X148888764Y-73717430D01*
X148903021Y-73724302D01*
X148928288Y-73732531D01*
X148961563Y-73738085D01*
X149007897Y-73741449D01*
X149072342Y-73743110D01*
X149159949Y-73743556D01*
X149382419Y-73743556D01*
X149382419Y-73275461D01*
X149150582Y-73280203D01*
X149132557Y-73280580D01*
X149049696Y-73282725D01*
X148989448Y-73285453D01*
X148947075Y-73289356D01*
X148917838Y-73295027D01*
X148896998Y-73303057D01*
X148879815Y-73314039D01*
X148839934Y-73347460D01*
X148805257Y-73392386D01*
X148787617Y-73446140D01*
X148782696Y-73517778D01*
X148566380Y-73517778D01*
X148563974Y-73471613D01*
X148568680Y-73398738D01*
X148593447Y-73306024D01*
X148640542Y-73229661D01*
X148711175Y-73167891D01*
X148806557Y-73118951D01*
X148824925Y-73112047D01*
X148851185Y-73104181D01*
X148881691Y-73098119D01*
X148920441Y-73093531D01*
X148971428Y-73090085D01*
X149038650Y-73087452D01*
X149126102Y-73085302D01*
X149237780Y-73083304D01*
X149594085Y-73077517D01*
X149594085Y-73743556D01*
X149594085Y-74505556D01*
G37*
X140309461Y-73071801D02*
X140416722Y-73104880D01*
X140511842Y-73156494D01*
X140590517Y-73224796D01*
X140648441Y-73307935D01*
X140659656Y-73335944D01*
X140674984Y-73388043D01*
X140689175Y-73448381D01*
X140699688Y-73505896D01*
X140703979Y-73549528D01*
X140703661Y-73550368D01*
X140687063Y-73555308D01*
X140650264Y-73558793D01*
X140600218Y-73560112D01*
X140496350Y-73560112D01*
X140487730Y-73487328D01*
X140470028Y-73412623D01*
X140429670Y-73342579D01*
X140369049Y-73291516D01*
X140289205Y-73260268D01*
X140191177Y-73249667D01*
X140158415Y-73250612D01*
X140063108Y-73266714D01*
X139987160Y-73302064D01*
X139931596Y-73355771D01*
X139897441Y-73426948D01*
X139885720Y-73514704D01*
X139895793Y-73577799D01*
X139922615Y-73644073D01*
X139960398Y-73698899D01*
X140001865Y-73733094D01*
X140063832Y-73767551D01*
X140148712Y-73803352D01*
X140259032Y-73841706D01*
X140261621Y-73842543D01*
X140352738Y-73873542D01*
X140422813Y-73901487D01*
X140478150Y-73929566D01*
X140525055Y-73960968D01*
X140569834Y-73998882D01*
X140600766Y-74030078D01*
X140644463Y-74090319D01*
X140674367Y-74160525D01*
X140692609Y-74246454D01*
X140701322Y-74353862D01*
X140707207Y-74505556D01*
X139688085Y-74505556D01*
X139688085Y-74322112D01*
X140492419Y-74322112D01*
X140492419Y-74279325D01*
X140484205Y-74222273D01*
X140451696Y-74156157D01*
X140398280Y-74105117D01*
X140397648Y-74104707D01*
X140362595Y-74086373D01*
X140308096Y-74062844D01*
X140241483Y-74037107D01*
X140170087Y-74012148D01*
X140102002Y-73989332D01*
X140030719Y-73963989D01*
X139975707Y-73941778D01*
X139930809Y-73919919D01*
X139889865Y-73895631D01*
X139846717Y-73866133D01*
X139792711Y-73818902D01*
X139735179Y-73739624D01*
X139697554Y-73648468D01*
X139680059Y-73550367D01*
X139682918Y-73450252D01*
X139706356Y-73353055D01*
X139750597Y-73263708D01*
X139815864Y-73187142D01*
X139827909Y-73176564D01*
X139901209Y-73125261D01*
X139984789Y-73089886D01*
X140086957Y-73066749D01*
X140194365Y-73059107D01*
X140309461Y-73071801D01*
G36*
X140309461Y-73071801D02*
G01*
X140416722Y-73104880D01*
X140511842Y-73156494D01*
X140590517Y-73224796D01*
X140648441Y-73307935D01*
X140659656Y-73335944D01*
X140674984Y-73388043D01*
X140689175Y-73448381D01*
X140699688Y-73505896D01*
X140703979Y-73549528D01*
X140703661Y-73550368D01*
X140687063Y-73555308D01*
X140650264Y-73558793D01*
X140600218Y-73560112D01*
X140496350Y-73560112D01*
X140487730Y-73487328D01*
X140470028Y-73412623D01*
X140429670Y-73342579D01*
X140369049Y-73291516D01*
X140289205Y-73260268D01*
X140191177Y-73249667D01*
X140158415Y-73250612D01*
X140063108Y-73266714D01*
X139987160Y-73302064D01*
X139931596Y-73355771D01*
X139897441Y-73426948D01*
X139885720Y-73514704D01*
X139895793Y-73577799D01*
X139922615Y-73644073D01*
X139960398Y-73698899D01*
X140001865Y-73733094D01*
X140063832Y-73767551D01*
X140148712Y-73803352D01*
X140259032Y-73841706D01*
X140261621Y-73842543D01*
X140352738Y-73873542D01*
X140422813Y-73901487D01*
X140478150Y-73929566D01*
X140525055Y-73960968D01*
X140569834Y-73998882D01*
X140600766Y-74030078D01*
X140644463Y-74090319D01*
X140674367Y-74160525D01*
X140692609Y-74246454D01*
X140701322Y-74353862D01*
X140707207Y-74505556D01*
X139688085Y-74505556D01*
X139688085Y-74322112D01*
X140492419Y-74322112D01*
X140492419Y-74279325D01*
X140484205Y-74222273D01*
X140451696Y-74156157D01*
X140398280Y-74105117D01*
X140397648Y-74104707D01*
X140362595Y-74086373D01*
X140308096Y-74062844D01*
X140241483Y-74037107D01*
X140170087Y-74012148D01*
X140102002Y-73989332D01*
X140030719Y-73963989D01*
X139975707Y-73941778D01*
X139930809Y-73919919D01*
X139889865Y-73895631D01*
X139846717Y-73866133D01*
X139792711Y-73818902D01*
X139735179Y-73739624D01*
X139697554Y-73648468D01*
X139680059Y-73550367D01*
X139682918Y-73450252D01*
X139706356Y-73353055D01*
X139750597Y-73263708D01*
X139815864Y-73187142D01*
X139827909Y-73176564D01*
X139901209Y-73125261D01*
X139984789Y-73089886D01*
X140086957Y-73066749D01*
X140194365Y-73059107D01*
X140309461Y-73071801D01*
G37*
X146556675Y-73080395D02*
X146624857Y-73080986D01*
X146679701Y-73082103D01*
X146716246Y-73083623D01*
X146729530Y-73085423D01*
X146729769Y-73086739D01*
X146734648Y-73107946D01*
X146745203Y-73152335D01*
X146760621Y-73216571D01*
X146780092Y-73297317D01*
X146802805Y-73391237D01*
X146827948Y-73494995D01*
X146854710Y-73605256D01*
X146882280Y-73718682D01*
X146909846Y-73831939D01*
X146936597Y-73941690D01*
X146961722Y-74044599D01*
X146984409Y-74137329D01*
X147003848Y-74216546D01*
X147019227Y-74278912D01*
X147029735Y-74321093D01*
X147034561Y-74339750D01*
X147038992Y-74352375D01*
X147046046Y-74362591D01*
X147054284Y-74361377D01*
X147064278Y-74346947D01*
X147076602Y-74317517D01*
X147091828Y-74271300D01*
X147110530Y-74206511D01*
X147133281Y-74121363D01*
X147160654Y-74014072D01*
X147193222Y-73882852D01*
X147231557Y-73725917D01*
X147386743Y-73087389D01*
X147794919Y-73087389D01*
X147798577Y-73796473D01*
X147802235Y-74505556D01*
X147590308Y-74505556D01*
X147590308Y-73870556D01*
X147590217Y-73722184D01*
X147589887Y-73595261D01*
X147589239Y-73491974D01*
X147588198Y-73410000D01*
X147586688Y-73347013D01*
X147584631Y-73300691D01*
X147581951Y-73268708D01*
X147578572Y-73248741D01*
X147574417Y-73238465D01*
X147569410Y-73235556D01*
X147554751Y-73242517D01*
X147541039Y-73267306D01*
X147538674Y-73277162D01*
X147529950Y-73313204D01*
X147515732Y-73371790D01*
X147496743Y-73449946D01*
X147473707Y-73544698D01*
X147447346Y-73653070D01*
X147418383Y-73772088D01*
X147387541Y-73898778D01*
X147241516Y-74498500D01*
X146876192Y-74506336D01*
X146721722Y-73871000D01*
X146684065Y-73717405D01*
X146647623Y-73571895D01*
X146616648Y-73451927D01*
X146591249Y-73357909D01*
X146571537Y-73290246D01*
X146557622Y-73249345D01*
X146549613Y-73235610D01*
X146546171Y-73238955D01*
X146542388Y-73254216D01*
X146539291Y-73283665D01*
X146536824Y-73329305D01*
X146534929Y-73393143D01*
X146533553Y-73477182D01*
X146532639Y-73583427D01*
X146532131Y-73713884D01*
X146531974Y-73870556D01*
X146531974Y-74505556D01*
X146320308Y-74505556D01*
X146320308Y-73080334D01*
X146524919Y-73080334D01*
X146556675Y-73080395D01*
G36*
X146556675Y-73080395D02*
G01*
X146624857Y-73080986D01*
X146679701Y-73082103D01*
X146716246Y-73083623D01*
X146729530Y-73085423D01*
X146729769Y-73086739D01*
X146734648Y-73107946D01*
X146745203Y-73152335D01*
X146760621Y-73216571D01*
X146780092Y-73297317D01*
X146802805Y-73391237D01*
X146827948Y-73494995D01*
X146854710Y-73605256D01*
X146882280Y-73718682D01*
X146909846Y-73831939D01*
X146936597Y-73941690D01*
X146961722Y-74044599D01*
X146984409Y-74137329D01*
X147003848Y-74216546D01*
X147019227Y-74278912D01*
X147029735Y-74321093D01*
X147034561Y-74339750D01*
X147038992Y-74352375D01*
X147046046Y-74362591D01*
X147054284Y-74361377D01*
X147064278Y-74346947D01*
X147076602Y-74317517D01*
X147091828Y-74271300D01*
X147110530Y-74206511D01*
X147133281Y-74121363D01*
X147160654Y-74014072D01*
X147193222Y-73882852D01*
X147231557Y-73725917D01*
X147386743Y-73087389D01*
X147794919Y-73087389D01*
X147798577Y-73796473D01*
X147802235Y-74505556D01*
X147590308Y-74505556D01*
X147590308Y-73870556D01*
X147590217Y-73722184D01*
X147589887Y-73595261D01*
X147589239Y-73491974D01*
X147588198Y-73410000D01*
X147586688Y-73347013D01*
X147584631Y-73300691D01*
X147581951Y-73268708D01*
X147578572Y-73248741D01*
X147574417Y-73238465D01*
X147569410Y-73235556D01*
X147554751Y-73242517D01*
X147541039Y-73267306D01*
X147538674Y-73277162D01*
X147529950Y-73313204D01*
X147515732Y-73371790D01*
X147496743Y-73449946D01*
X147473707Y-73544698D01*
X147447346Y-73653070D01*
X147418383Y-73772088D01*
X147387541Y-73898778D01*
X147241516Y-74498500D01*
X146876192Y-74506336D01*
X146721722Y-73871000D01*
X146684065Y-73717405D01*
X146647623Y-73571895D01*
X146616648Y-73451927D01*
X146591249Y-73357909D01*
X146571537Y-73290246D01*
X146557622Y-73249345D01*
X146549613Y-73235610D01*
X146546171Y-73238955D01*
X146542388Y-73254216D01*
X146539291Y-73283665D01*
X146536824Y-73329305D01*
X146534929Y-73393143D01*
X146533553Y-73477182D01*
X146532639Y-73583427D01*
X146532131Y-73713884D01*
X146531974Y-73870556D01*
X146531974Y-74505556D01*
X146320308Y-74505556D01*
X146320308Y-73080334D01*
X146524919Y-73080334D01*
X146556675Y-73080395D01*
G37*
X144278845Y-73879284D02*
X144280870Y-73931599D01*
X144281252Y-74004611D01*
X144281087Y-74059774D01*
X144279658Y-74117027D01*
X144275630Y-74159050D01*
X144267678Y-74193381D01*
X144254473Y-74227559D01*
X144234688Y-74269123D01*
X144196814Y-74334444D01*
X144125843Y-74415221D01*
X144037055Y-74474863D01*
X143928474Y-74514959D01*
X143884440Y-74523157D01*
X143804437Y-74528055D01*
X143719112Y-74524226D01*
X143639377Y-74512348D01*
X143576147Y-74493098D01*
X143526460Y-74465272D01*
X143463880Y-74417698D01*
X143407382Y-74362903D01*
X143367036Y-74309717D01*
X143341819Y-74266600D01*
X143425482Y-74224368D01*
X143509144Y-74182135D01*
X143546142Y-74235523D01*
X143552497Y-74244374D01*
X143612387Y-74303658D01*
X143686265Y-74338700D01*
X143775173Y-74350024D01*
X143810000Y-74348290D01*
X143896087Y-74329038D01*
X143969508Y-74290987D01*
X144026550Y-74237275D01*
X144063499Y-74171039D01*
X144076641Y-74095415D01*
X144076641Y-74054000D01*
X143310608Y-74054000D01*
X143318248Y-73942540D01*
X143327573Y-73868949D01*
X143526308Y-73868949D01*
X143526461Y-73874664D01*
X143529030Y-73883460D01*
X143537692Y-73889807D01*
X143556134Y-73894103D01*
X143588045Y-73896748D01*
X143637113Y-73898142D01*
X143707027Y-73898686D01*
X143801474Y-73898778D01*
X143822673Y-73898782D01*
X143916503Y-73898655D01*
X143985658Y-73897419D01*
X144033109Y-73893897D01*
X144061827Y-73886910D01*
X144074785Y-73875282D01*
X144074954Y-73857834D01*
X144065306Y-73833390D01*
X144048812Y-73800772D01*
X144007444Y-73740394D01*
X143943838Y-73691527D01*
X143863373Y-73665278D01*
X143766020Y-73661634D01*
X143694576Y-73673606D01*
X143634212Y-73701785D01*
X143604024Y-73727027D01*
X143564996Y-73773914D01*
X143537016Y-73824434D01*
X143526308Y-73868949D01*
X143327573Y-73868949D01*
X143328800Y-73859264D01*
X143362349Y-73748643D01*
X143417560Y-73655758D01*
X143494984Y-73579770D01*
X143595170Y-73519839D01*
X143598398Y-73518339D01*
X143642717Y-73500063D01*
X143684523Y-73489337D01*
X143734037Y-73484352D01*
X143801474Y-73483298D01*
X143864541Y-73484718D01*
X143917013Y-73490067D01*
X143960968Y-73501165D01*
X144006729Y-73519849D01*
X144027305Y-73529727D01*
X144113994Y-73584016D01*
X144181075Y-73652304D01*
X144235101Y-73740939D01*
X144249747Y-73771279D01*
X144264601Y-73806648D01*
X144273861Y-73840141D01*
X144276114Y-73857834D01*
X144278845Y-73879284D01*
G36*
X144278845Y-73879284D02*
G01*
X144280870Y-73931599D01*
X144281252Y-74004611D01*
X144281087Y-74059774D01*
X144279658Y-74117027D01*
X144275630Y-74159050D01*
X144267678Y-74193381D01*
X144254473Y-74227559D01*
X144234688Y-74269123D01*
X144196814Y-74334444D01*
X144125843Y-74415221D01*
X144037055Y-74474863D01*
X143928474Y-74514959D01*
X143884440Y-74523157D01*
X143804437Y-74528055D01*
X143719112Y-74524226D01*
X143639377Y-74512348D01*
X143576147Y-74493098D01*
X143526460Y-74465272D01*
X143463880Y-74417698D01*
X143407382Y-74362903D01*
X143367036Y-74309717D01*
X143341819Y-74266600D01*
X143425482Y-74224368D01*
X143509144Y-74182135D01*
X143546142Y-74235523D01*
X143552497Y-74244374D01*
X143612387Y-74303658D01*
X143686265Y-74338700D01*
X143775173Y-74350024D01*
X143810000Y-74348290D01*
X143896087Y-74329038D01*
X143969508Y-74290987D01*
X144026550Y-74237275D01*
X144063499Y-74171039D01*
X144076641Y-74095415D01*
X144076641Y-74054000D01*
X143310608Y-74054000D01*
X143318248Y-73942540D01*
X143327573Y-73868949D01*
X143526308Y-73868949D01*
X143526461Y-73874664D01*
X143529030Y-73883460D01*
X143537692Y-73889807D01*
X143556134Y-73894103D01*
X143588045Y-73896748D01*
X143637113Y-73898142D01*
X143707027Y-73898686D01*
X143801474Y-73898778D01*
X143822673Y-73898782D01*
X143916503Y-73898655D01*
X143985658Y-73897419D01*
X144033109Y-73893897D01*
X144061827Y-73886910D01*
X144074785Y-73875282D01*
X144074954Y-73857834D01*
X144065306Y-73833390D01*
X144048812Y-73800772D01*
X144007444Y-73740394D01*
X143943838Y-73691527D01*
X143863373Y-73665278D01*
X143766020Y-73661634D01*
X143694576Y-73673606D01*
X143634212Y-73701785D01*
X143604024Y-73727027D01*
X143564996Y-73773914D01*
X143537016Y-73824434D01*
X143526308Y-73868949D01*
X143327573Y-73868949D01*
X143328800Y-73859264D01*
X143362349Y-73748643D01*
X143417560Y-73655758D01*
X143494984Y-73579770D01*
X143595170Y-73519839D01*
X143598398Y-73518339D01*
X143642717Y-73500063D01*
X143684523Y-73489337D01*
X143734037Y-73484352D01*
X143801474Y-73483298D01*
X143864541Y-73484718D01*
X143917013Y-73490067D01*
X143960968Y-73501165D01*
X144006729Y-73519849D01*
X144027305Y-73529727D01*
X144113994Y-73584016D01*
X144181075Y-73652304D01*
X144235101Y-73740939D01*
X144249747Y-73771279D01*
X144264601Y-73806648D01*
X144273861Y-73840141D01*
X144276114Y-73857834D01*
X144278845Y-73879284D01*
G37*
X150892847Y-73081040D02*
X150927567Y-73084303D01*
X150944371Y-73091343D01*
X150948752Y-73103364D01*
X150948589Y-73104906D01*
X150943397Y-73127977D01*
X150931445Y-73174979D01*
X150913454Y-73243231D01*
X150890148Y-73330052D01*
X150862252Y-73432759D01*
X150830488Y-73548672D01*
X150795580Y-73675108D01*
X150758252Y-73809385D01*
X150749586Y-73840461D01*
X150712834Y-73972412D01*
X150678652Y-74095379D01*
X150647758Y-74206764D01*
X150620871Y-74303968D01*
X150598709Y-74384389D01*
X150581989Y-74445429D01*
X150571431Y-74484488D01*
X150567752Y-74498966D01*
X150566747Y-74499644D01*
X150546776Y-74501963D01*
X150505108Y-74503841D01*
X150446887Y-74505097D01*
X150377252Y-74505556D01*
X150357681Y-74505525D01*
X150290612Y-74504900D01*
X150236340Y-74503598D01*
X150200006Y-74501778D01*
X150186752Y-74499601D01*
X150186517Y-74498457D01*
X150181077Y-74477699D01*
X150168972Y-74432988D01*
X150150913Y-74366915D01*
X150127613Y-74282071D01*
X150099785Y-74181047D01*
X150068140Y-74066432D01*
X150033392Y-73940819D01*
X149996252Y-73806796D01*
X149987397Y-73774848D01*
X149950678Y-73641902D01*
X149916529Y-73517525D01*
X149885667Y-73404378D01*
X149858809Y-73305119D01*
X149836672Y-73222406D01*
X149819972Y-73158899D01*
X149809427Y-73117258D01*
X149805752Y-73100140D01*
X149807152Y-73094551D01*
X149821217Y-73086071D01*
X149854171Y-73081623D01*
X149910634Y-73080334D01*
X149958720Y-73081044D01*
X149995201Y-73084501D01*
X150014612Y-73092053D01*
X150022997Y-73105028D01*
X150023457Y-73106575D01*
X150030665Y-73132377D01*
X150043800Y-73180617D01*
X150061980Y-73247979D01*
X150084321Y-73331153D01*
X150109944Y-73426823D01*
X150137964Y-73531677D01*
X150167502Y-73642402D01*
X150197675Y-73755685D01*
X150227600Y-73868212D01*
X150256397Y-73976670D01*
X150283183Y-74077746D01*
X150307076Y-74168127D01*
X150327195Y-74244500D01*
X150342657Y-74303551D01*
X150352581Y-74341967D01*
X150356085Y-74356435D01*
X150357614Y-74359596D01*
X150374806Y-74364445D01*
X150382995Y-74352561D01*
X150397049Y-74316010D01*
X150417039Y-74254328D01*
X150443104Y-74167055D01*
X150475379Y-74053731D01*
X150514003Y-73913894D01*
X150559114Y-73747084D01*
X150586190Y-73646162D01*
X150618922Y-73524229D01*
X150648961Y-73412410D01*
X150675537Y-73313560D01*
X150697883Y-73230540D01*
X150715228Y-73166206D01*
X150726805Y-73123416D01*
X150731844Y-73105028D01*
X150738187Y-73093670D01*
X150755284Y-73085375D01*
X150788503Y-73081373D01*
X150843870Y-73080334D01*
X150892847Y-73081040D01*
G36*
X150892847Y-73081040D02*
G01*
X150927567Y-73084303D01*
X150944371Y-73091343D01*
X150948752Y-73103364D01*
X150948589Y-73104906D01*
X150943397Y-73127977D01*
X150931445Y-73174979D01*
X150913454Y-73243231D01*
X150890148Y-73330052D01*
X150862252Y-73432759D01*
X150830488Y-73548672D01*
X150795580Y-73675108D01*
X150758252Y-73809385D01*
X150749586Y-73840461D01*
X150712834Y-73972412D01*
X150678652Y-74095379D01*
X150647758Y-74206764D01*
X150620871Y-74303968D01*
X150598709Y-74384389D01*
X150581989Y-74445429D01*
X150571431Y-74484488D01*
X150567752Y-74498966D01*
X150566747Y-74499644D01*
X150546776Y-74501963D01*
X150505108Y-74503841D01*
X150446887Y-74505097D01*
X150377252Y-74505556D01*
X150357681Y-74505525D01*
X150290612Y-74504900D01*
X150236340Y-74503598D01*
X150200006Y-74501778D01*
X150186752Y-74499601D01*
X150186517Y-74498457D01*
X150181077Y-74477699D01*
X150168972Y-74432988D01*
X150150913Y-74366915D01*
X150127613Y-74282071D01*
X150099785Y-74181047D01*
X150068140Y-74066432D01*
X150033392Y-73940819D01*
X149996252Y-73806796D01*
X149987397Y-73774848D01*
X149950678Y-73641902D01*
X149916529Y-73517525D01*
X149885667Y-73404378D01*
X149858809Y-73305119D01*
X149836672Y-73222406D01*
X149819972Y-73158899D01*
X149809427Y-73117258D01*
X149805752Y-73100140D01*
X149807152Y-73094551D01*
X149821217Y-73086071D01*
X149854171Y-73081623D01*
X149910634Y-73080334D01*
X149958720Y-73081044D01*
X149995201Y-73084501D01*
X150014612Y-73092053D01*
X150022997Y-73105028D01*
X150023457Y-73106575D01*
X150030665Y-73132377D01*
X150043800Y-73180617D01*
X150061980Y-73247979D01*
X150084321Y-73331153D01*
X150109944Y-73426823D01*
X150137964Y-73531677D01*
X150167502Y-73642402D01*
X150197675Y-73755685D01*
X150227600Y-73868212D01*
X150256397Y-73976670D01*
X150283183Y-74077746D01*
X150307076Y-74168127D01*
X150327195Y-74244500D01*
X150342657Y-74303551D01*
X150352581Y-74341967D01*
X150356085Y-74356435D01*
X150357614Y-74359596D01*
X150374806Y-74364445D01*
X150382995Y-74352561D01*
X150397049Y-74316010D01*
X150417039Y-74254328D01*
X150443104Y-74167055D01*
X150475379Y-74053731D01*
X150514003Y-73913894D01*
X150559114Y-73747084D01*
X150586190Y-73646162D01*
X150618922Y-73524229D01*
X150648961Y-73412410D01*
X150675537Y-73313560D01*
X150697883Y-73230540D01*
X150715228Y-73166206D01*
X150726805Y-73123416D01*
X150731844Y-73105028D01*
X150738187Y-73093670D01*
X150755284Y-73085375D01*
X150788503Y-73081373D01*
X150843870Y-73080334D01*
X150892847Y-73081040D01*
G37*
X138938183Y-73819721D02*
X138937979Y-73936750D01*
X138934366Y-74032235D01*
X138926905Y-74110194D01*
X138915157Y-74174647D01*
X138898681Y-74229610D01*
X138877039Y-74279102D01*
X138820510Y-74361551D01*
X138741939Y-74432063D01*
X138647124Y-74485755D01*
X138541280Y-74518904D01*
X138422473Y-74531831D01*
X138300856Y-74524015D01*
X138186504Y-74495784D01*
X138084629Y-74448446D01*
X138000442Y-74383305D01*
X137972351Y-74352082D01*
X137929958Y-74287318D01*
X137897688Y-74209279D01*
X137874949Y-74115160D01*
X137861150Y-74002156D01*
X137855698Y-73867464D01*
X137856879Y-73785889D01*
X138072363Y-73785889D01*
X138072466Y-73851326D01*
X138073224Y-73940872D01*
X138074976Y-74009106D01*
X138078018Y-74060354D01*
X138082651Y-74098937D01*
X138089173Y-74129181D01*
X138097882Y-74155409D01*
X138108221Y-74178988D01*
X138157696Y-74250356D01*
X138224867Y-74303849D01*
X138304247Y-74334701D01*
X138360893Y-74343753D01*
X138460896Y-74342920D01*
X138548700Y-74319493D01*
X138621833Y-74274728D01*
X138677821Y-74209883D01*
X138714192Y-74126216D01*
X138719046Y-74096335D01*
X138723247Y-74041486D01*
X138726179Y-73969439D01*
X138727856Y-73885869D01*
X138728294Y-73796450D01*
X138727508Y-73706857D01*
X138725512Y-73622765D01*
X138722323Y-73549848D01*
X138717955Y-73493780D01*
X138712423Y-73460237D01*
X138711228Y-73456382D01*
X138676123Y-73386017D01*
X138621568Y-73322732D01*
X138555725Y-73276118D01*
X138528105Y-73263695D01*
X138491791Y-73254090D01*
X138446175Y-73250572D01*
X138381904Y-73251833D01*
X138370653Y-73252327D01*
X138312723Y-73256396D01*
X138272106Y-73263861D01*
X138239372Y-73277242D01*
X138205091Y-73299056D01*
X138151489Y-73349006D01*
X138108638Y-73411945D01*
X138098012Y-73433201D01*
X138088671Y-73455553D01*
X138081927Y-73479988D01*
X138077357Y-73510863D01*
X138074539Y-73552534D01*
X138073048Y-73609357D01*
X138072464Y-73685691D01*
X138072363Y-73785889D01*
X137856879Y-73785889D01*
X137858003Y-73708278D01*
X137859659Y-73666817D01*
X137868021Y-73545941D01*
X137881807Y-73447430D01*
X137902349Y-73366966D01*
X137930982Y-73300235D01*
X137969037Y-73242920D01*
X138017847Y-73190707D01*
X138049722Y-73163903D01*
X138139614Y-73111185D01*
X138241799Y-73076985D01*
X138351223Y-73060982D01*
X138462837Y-73062852D01*
X138571588Y-73082272D01*
X138672426Y-73118921D01*
X138760299Y-73172475D01*
X138830156Y-73242612D01*
X138855402Y-73277257D01*
X138880651Y-73317446D01*
X138899694Y-73358286D01*
X138913528Y-73404374D01*
X138923153Y-73460303D01*
X138929567Y-73530670D01*
X138933770Y-73620068D01*
X138936758Y-73733092D01*
X138937801Y-73796450D01*
X138938183Y-73819721D01*
G36*
X138938183Y-73819721D02*
G01*
X138937979Y-73936750D01*
X138934366Y-74032235D01*
X138926905Y-74110194D01*
X138915157Y-74174647D01*
X138898681Y-74229610D01*
X138877039Y-74279102D01*
X138820510Y-74361551D01*
X138741939Y-74432063D01*
X138647124Y-74485755D01*
X138541280Y-74518904D01*
X138422473Y-74531831D01*
X138300856Y-74524015D01*
X138186504Y-74495784D01*
X138084629Y-74448446D01*
X138000442Y-74383305D01*
X137972351Y-74352082D01*
X137929958Y-74287318D01*
X137897688Y-74209279D01*
X137874949Y-74115160D01*
X137861150Y-74002156D01*
X137855698Y-73867464D01*
X137856879Y-73785889D01*
X138072363Y-73785889D01*
X138072466Y-73851326D01*
X138073224Y-73940872D01*
X138074976Y-74009106D01*
X138078018Y-74060354D01*
X138082651Y-74098937D01*
X138089173Y-74129181D01*
X138097882Y-74155409D01*
X138108221Y-74178988D01*
X138157696Y-74250356D01*
X138224867Y-74303849D01*
X138304247Y-74334701D01*
X138360893Y-74343753D01*
X138460896Y-74342920D01*
X138548700Y-74319493D01*
X138621833Y-74274728D01*
X138677821Y-74209883D01*
X138714192Y-74126216D01*
X138719046Y-74096335D01*
X138723247Y-74041486D01*
X138726179Y-73969439D01*
X138727856Y-73885869D01*
X138728294Y-73796450D01*
X138727508Y-73706857D01*
X138725512Y-73622765D01*
X138722323Y-73549848D01*
X138717955Y-73493780D01*
X138712423Y-73460237D01*
X138711228Y-73456382D01*
X138676123Y-73386017D01*
X138621568Y-73322732D01*
X138555725Y-73276118D01*
X138528105Y-73263695D01*
X138491791Y-73254090D01*
X138446175Y-73250572D01*
X138381904Y-73251833D01*
X138370653Y-73252327D01*
X138312723Y-73256396D01*
X138272106Y-73263861D01*
X138239372Y-73277242D01*
X138205091Y-73299056D01*
X138151489Y-73349006D01*
X138108638Y-73411945D01*
X138098012Y-73433201D01*
X138088671Y-73455553D01*
X138081927Y-73479988D01*
X138077357Y-73510863D01*
X138074539Y-73552534D01*
X138073048Y-73609357D01*
X138072464Y-73685691D01*
X138072363Y-73785889D01*
X137856879Y-73785889D01*
X137858003Y-73708278D01*
X137859659Y-73666817D01*
X137868021Y-73545941D01*
X137881807Y-73447430D01*
X137902349Y-73366966D01*
X137930982Y-73300235D01*
X137969037Y-73242920D01*
X138017847Y-73190707D01*
X138049722Y-73163903D01*
X138139614Y-73111185D01*
X138241799Y-73076985D01*
X138351223Y-73060982D01*
X138462837Y-73062852D01*
X138571588Y-73082272D01*
X138672426Y-73118921D01*
X138760299Y-73172475D01*
X138830156Y-73242612D01*
X138855402Y-73277257D01*
X138880651Y-73317446D01*
X138899694Y-73358286D01*
X138913528Y-73404374D01*
X138923153Y-73460303D01*
X138929567Y-73530670D01*
X138933770Y-73620068D01*
X138936758Y-73733092D01*
X138937801Y-73796450D01*
X138938183Y-73819721D01*
G37*
G04 #@! TD*
M02*
