G04 #@! TF.GenerationSoftware,KiCad,Pcbnew,7.0.6*
G04 #@! TF.CreationDate,2023-11-12T09:34:07+05:30*
G04 #@! TF.ProjectId,AVR-Miner,4156522d-4d69-46e6-9572-2e6b69636164,rev?*
G04 #@! TF.SameCoordinates,Original*
G04 #@! TF.FileFunction,Copper,L1,Top*
G04 #@! TF.FilePolarity,Positive*
%FSLAX46Y46*%
G04 Gerber Fmt 4.6, Leading zero omitted, Abs format (unit mm)*
G04 Created by KiCad (PCBNEW 7.0.6) date 2023-11-12 09:34:07*
%MOMM*%
%LPD*%
G01*
G04 APERTURE LIST*
G04 Aperture macros list*
%AMRoundRect*
0 Rectangle with rounded corners*
0 $1 Rounding radius*
0 $2 $3 $4 $5 $6 $7 $8 $9 X,Y pos of 4 corners*
0 Add a 4 corners polygon primitive as box body*
4,1,4,$2,$3,$4,$5,$6,$7,$8,$9,$2,$3,0*
0 Add four circle primitives for the rounded corners*
1,1,$1+$1,$2,$3*
1,1,$1+$1,$4,$5*
1,1,$1+$1,$6,$7*
1,1,$1+$1,$8,$9*
0 Add four rect primitives between the rounded corners*
20,1,$1+$1,$2,$3,$4,$5,0*
20,1,$1+$1,$4,$5,$6,$7,0*
20,1,$1+$1,$6,$7,$8,$9,0*
20,1,$1+$1,$8,$9,$2,$3,0*%
G04 Aperture macros list end*
G04 #@! TA.AperFunction,SMDPad,CuDef*
%ADD10RoundRect,0.243750X-0.456250X0.243750X-0.456250X-0.243750X0.456250X-0.243750X0.456250X0.243750X0*%
G04 #@! TD*
G04 #@! TA.AperFunction,SMDPad,CuDef*
%ADD11RoundRect,0.243750X0.456250X-0.243750X0.456250X0.243750X-0.456250X0.243750X-0.456250X-0.243750X0*%
G04 #@! TD*
G04 #@! TA.AperFunction,SMDPad,CuDef*
%ADD12RoundRect,0.243750X-0.243750X-0.456250X0.243750X-0.456250X0.243750X0.456250X-0.243750X0.456250X0*%
G04 #@! TD*
G04 #@! TA.AperFunction,ComponentPad*
%ADD13R,1.700000X1.700000*%
G04 #@! TD*
G04 #@! TA.AperFunction,ComponentPad*
%ADD14O,1.700000X1.700000*%
G04 #@! TD*
G04 #@! TA.AperFunction,SMDPad,CuDef*
%ADD15R,1.597660X2.298700*%
G04 #@! TD*
G04 #@! TA.AperFunction,SMDPad,CuDef*
%ADD16R,0.550000X1.600000*%
G04 #@! TD*
G04 #@! TA.AperFunction,SMDPad,CuDef*
%ADD17R,1.600000X0.550000*%
G04 #@! TD*
G04 #@! TA.AperFunction,ComponentPad*
%ADD18C,1.651000*%
G04 #@! TD*
G04 #@! TA.AperFunction,ViaPad*
%ADD19C,0.800000*%
G04 #@! TD*
G04 #@! TA.AperFunction,Conductor*
%ADD20C,0.600000*%
G04 #@! TD*
G04 #@! TA.AperFunction,Conductor*
%ADD21C,0.500000*%
G04 #@! TD*
G04 #@! TA.AperFunction,Conductor*
%ADD22C,0.400000*%
G04 #@! TD*
G04 APERTURE END LIST*
D10*
G04 #@! TO.P,C4,1*
G04 #@! TO.N,XTAL2*
X152250000Y-94062500D03*
G04 #@! TO.P,C4,2*
G04 #@! TO.N,GND*
X152250000Y-95937500D03*
G04 #@! TD*
D11*
G04 #@! TO.P,C1,1*
G04 #@! TO.N,GND*
X152000000Y-85437500D03*
G04 #@! TO.P,C1,2*
G04 #@! TO.N,Net-(C1-Pad2)*
X152000000Y-83562500D03*
G04 #@! TD*
G04 #@! TO.P,C3,1*
G04 #@! TO.N,GND*
X137750000Y-95937500D03*
G04 #@! TO.P,C3,2*
G04 #@! TO.N,XTAL1*
X137750000Y-94062500D03*
G04 #@! TD*
D10*
G04 #@! TO.P,C5,1*
G04 #@! TO.N,GND*
X152000000Y-88062500D03*
G04 #@! TO.P,C5,2*
G04 #@! TO.N,+5V*
X152000000Y-89937500D03*
G04 #@! TD*
D12*
G04 #@! TO.P,D1,1*
G04 #@! TO.N,GND*
X144072500Y-73500000D03*
G04 #@! TO.P,D1,2*
G04 #@! TO.N,Net-(D1-Pad2)*
X145947500Y-73500000D03*
G04 #@! TD*
D13*
G04 #@! TO.P,J2,1*
G04 #@! TO.N,MISO*
X142475000Y-79000000D03*
D14*
G04 #@! TO.P,J2,2*
G04 #@! TO.N,+5V*
X142475000Y-76460000D03*
G04 #@! TO.P,J2,3*
G04 #@! TO.N,LED*
X145015000Y-79000000D03*
G04 #@! TO.P,J2,4*
G04 #@! TO.N,MOSI*
X145015000Y-76460000D03*
G04 #@! TO.P,J2,5*
G04 #@! TO.N,RESET*
X147555000Y-79000000D03*
G04 #@! TO.P,J2,6*
G04 #@! TO.N,GND*
X147555000Y-76460000D03*
G04 #@! TD*
D11*
G04 #@! TO.P,R2,1*
G04 #@! TO.N,ON_BOARD_LED*
X152000000Y-77937500D03*
G04 #@! TO.P,R2,2*
G04 #@! TO.N,Net-(D1-Pad2)*
X152000000Y-76062500D03*
G04 #@! TD*
D15*
G04 #@! TO.P,SW1,1*
G04 #@! TO.N,RESET*
X138000000Y-80649600D03*
G04 #@! TO.P,SW1,2*
G04 #@! TO.N,GND*
X138000000Y-74350400D03*
G04 #@! TD*
D16*
G04 #@! TO.P,U1,1*
G04 #@! TO.N,Net-(U1-Pad1)*
X142190000Y-90780000D03*
G04 #@! TO.P,U1,2*
G04 #@! TO.N,Net-(U1-Pad2)*
X142990000Y-90780000D03*
G04 #@! TO.P,U1,3*
G04 #@! TO.N,GND*
X143790000Y-90780000D03*
G04 #@! TO.P,U1,4*
G04 #@! TO.N,+5V*
X144590000Y-90780000D03*
G04 #@! TO.P,U1,5*
G04 #@! TO.N,GND*
X145390000Y-90780000D03*
G04 #@! TO.P,U1,6*
G04 #@! TO.N,+5V*
X146190000Y-90780000D03*
G04 #@! TO.P,U1,7*
G04 #@! TO.N,XTAL1*
X146990000Y-90780000D03*
G04 #@! TO.P,U1,8*
G04 #@! TO.N,XTAL2*
X147790000Y-90780000D03*
D17*
G04 #@! TO.P,U1,9*
G04 #@! TO.N,Net-(U1-Pad9)*
X149240000Y-89330000D03*
G04 #@! TO.P,U1,10*
G04 #@! TO.N,Net-(U1-Pad10)*
X149240000Y-88530000D03*
G04 #@! TO.P,U1,11*
G04 #@! TO.N,Net-(U1-Pad11)*
X149240000Y-87730000D03*
G04 #@! TO.P,U1,12*
G04 #@! TO.N,Net-(U1-Pad12)*
X149240000Y-86930000D03*
G04 #@! TO.P,U1,13*
G04 #@! TO.N,Net-(U1-Pad13)*
X149240000Y-86130000D03*
G04 #@! TO.P,U1,14*
G04 #@! TO.N,Net-(U1-Pad14)*
X149240000Y-85330000D03*
G04 #@! TO.P,U1,15*
G04 #@! TO.N,MOSI*
X149240000Y-84530000D03*
G04 #@! TO.P,U1,16*
G04 #@! TO.N,MISO*
X149240000Y-83730000D03*
D16*
G04 #@! TO.P,U1,17*
G04 #@! TO.N,LED*
X147790000Y-82280000D03*
G04 #@! TO.P,U1,18*
G04 #@! TO.N,+5V*
X146990000Y-82280000D03*
G04 #@! TO.P,U1,19*
G04 #@! TO.N,Net-(U1-Pad19)*
X146190000Y-82280000D03*
G04 #@! TO.P,U1,20*
G04 #@! TO.N,Net-(C1-Pad2)*
X145390000Y-82280000D03*
G04 #@! TO.P,U1,21*
G04 #@! TO.N,GND*
X144590000Y-82280000D03*
G04 #@! TO.P,U1,22*
G04 #@! TO.N,Net-(U1-Pad22)*
X143790000Y-82280000D03*
G04 #@! TO.P,U1,23*
G04 #@! TO.N,Net-(U1-Pad23)*
X142990000Y-82280000D03*
G04 #@! TO.P,U1,24*
G04 #@! TO.N,Net-(U1-Pad24)*
X142190000Y-82280000D03*
D17*
G04 #@! TO.P,U1,25*
G04 #@! TO.N,Net-(U1-Pad25)*
X140740000Y-83730000D03*
G04 #@! TO.P,U1,26*
G04 #@! TO.N,Net-(U1-Pad26)*
X140740000Y-84530000D03*
G04 #@! TO.P,U1,27*
G04 #@! TO.N,SDA*
X140740000Y-85330000D03*
G04 #@! TO.P,U1,28*
G04 #@! TO.N,SCL*
X140740000Y-86130000D03*
G04 #@! TO.P,U1,29*
G04 #@! TO.N,RESET*
X140740000Y-86930000D03*
G04 #@! TO.P,U1,30*
G04 #@! TO.N,Net-(U1-Pad30)*
X140740000Y-87730000D03*
G04 #@! TO.P,U1,31*
G04 #@! TO.N,Net-(U1-Pad31)*
X140740000Y-88530000D03*
G04 #@! TO.P,U1,32*
G04 #@! TO.N,Net-(U1-Pad32)*
X140740000Y-89330000D03*
G04 #@! TD*
D18*
G04 #@! TO.P,Y1,1*
G04 #@! TO.N,XTAL1*
X142450000Y-95000000D03*
G04 #@! TO.P,Y1,2*
G04 #@! TO.N,XTAL2*
X147530000Y-95000000D03*
G04 #@! TD*
D10*
G04 #@! TO.P,R1,1*
G04 #@! TO.N,+5V*
X138000000Y-83562500D03*
G04 #@! TO.P,R1,2*
G04 #@! TO.N,RESET*
X138000000Y-85437500D03*
G04 #@! TD*
D11*
G04 #@! TO.P,C2,1*
G04 #@! TO.N,GND*
X138000000Y-89937500D03*
G04 #@! TO.P,C2,2*
G04 #@! TO.N,RESET*
X138000000Y-88062500D03*
G04 #@! TD*
D13*
G04 #@! TO.P,J1,1*
G04 #@! TO.N,EXT_LED*
X139925000Y-100000000D03*
D14*
G04 #@! TO.P,J1,2*
G04 #@! TO.N,+5V*
X142465000Y-100000000D03*
G04 #@! TO.P,J1,3*
G04 #@! TO.N,SDA*
X145005000Y-100000000D03*
G04 #@! TO.P,J1,4*
G04 #@! TO.N,SCL*
X147545000Y-100000000D03*
G04 #@! TO.P,J1,5*
G04 #@! TO.N,GND*
X150085000Y-100000000D03*
G04 #@! TD*
D19*
G04 #@! TO.N,Net-(C1-Pad2)*
X152000000Y-82250000D03*
X145750000Y-84000000D03*
G04 #@! TO.N,GND*
X142800000Y-88400000D03*
X144000000Y-84000000D03*
G04 #@! TO.N,RESET*
X138000000Y-78750000D03*
X138000000Y-86750000D03*
G04 #@! TO.N,+5V*
X147250000Y-87750000D03*
X152000000Y-91250000D03*
X140500000Y-81750000D03*
X139500000Y-92000000D03*
G04 #@! TO.N,SCL*
X142549406Y-86071961D03*
G04 #@! TO.N,SDA*
X142500000Y-84250000D03*
G04 #@! TO.N,LED*
X149000000Y-82250000D03*
G04 #@! TO.N,EXT_LED*
X152750000Y-97750000D03*
G04 #@! TO.N,ON_BOARD_LED*
X150500000Y-78000000D03*
G04 #@! TD*
D20*
G04 #@! TO.N,Net-(C1-Pad2)*
X152000000Y-83500000D02*
X152000000Y-82250000D01*
X145390000Y-83640000D02*
X145390000Y-82280000D01*
X145750000Y-84000000D02*
X145390000Y-83640000D01*
D21*
G04 #@! TO.N,GND*
X144590000Y-82280000D02*
X144590000Y-83910000D01*
X143790000Y-90780000D02*
X143790000Y-89040000D01*
X145390000Y-90780000D02*
X145390000Y-89110000D01*
D20*
X144000000Y-84000000D02*
X144500000Y-84000000D01*
D21*
X144590000Y-83910000D02*
X144500000Y-84000000D01*
D20*
G04 #@! TO.N,RESET*
X138000000Y-80649600D02*
X138000000Y-78750000D01*
X138180000Y-86930000D02*
X138000000Y-86750000D01*
X138000000Y-88062500D02*
X138000000Y-86750000D01*
X138000000Y-86000000D02*
X138000000Y-85437500D01*
X138000000Y-86000000D02*
X138000000Y-86750000D01*
X140740000Y-86930000D02*
X138180000Y-86930000D01*
G04 #@! TO.N,XTAL1*
X144500000Y-95000000D02*
X142450000Y-95000000D01*
X140000000Y-95000000D02*
X139062500Y-94062500D01*
X146990000Y-92510000D02*
X144500000Y-95000000D01*
X139062500Y-94062500D02*
X137500000Y-94062500D01*
X142450000Y-95000000D02*
X140000000Y-95000000D01*
X146990000Y-90780000D02*
X146990000Y-92510000D01*
G04 #@! TO.N,XTAL2*
X150937500Y-94062500D02*
X152500000Y-94062500D01*
X147530000Y-95000000D02*
X150000000Y-95000000D01*
X147530000Y-95000000D02*
X147790000Y-94740000D01*
X150000000Y-95000000D02*
X150937500Y-94062500D01*
X147790000Y-94740000D02*
X147790000Y-90780000D01*
G04 #@! TO.N,+5V*
X138687500Y-83562500D02*
X138000000Y-83562500D01*
X142465000Y-76460000D02*
X141290000Y-76460000D01*
X143810674Y-93250000D02*
X142000000Y-93250000D01*
X146990000Y-87010000D02*
X146990000Y-87490000D01*
X141500000Y-93250000D02*
X140750000Y-93250000D01*
X146190000Y-88810000D02*
X146875000Y-88125000D01*
X146990000Y-88010000D02*
X146875000Y-88125000D01*
X144590000Y-92090000D02*
X144590000Y-90780000D01*
X146990000Y-87010000D02*
X146990000Y-88010000D01*
X152000000Y-91250000D02*
X152000000Y-89937500D01*
X140500000Y-81750000D02*
X138687500Y-83562500D01*
X146875000Y-88125000D02*
X147250000Y-87750000D01*
X146190000Y-92060000D02*
X146000000Y-92250000D01*
X141290000Y-76460000D02*
X140500000Y-77250000D01*
X139500000Y-92000000D02*
X140750000Y-93250000D01*
X146000000Y-92250000D02*
X144750000Y-92250000D01*
X146990000Y-87490000D02*
X147250000Y-87750000D01*
X140500000Y-77250000D02*
X140500000Y-81750000D01*
X142000000Y-93250000D02*
X141500000Y-93250000D01*
X146990000Y-82280000D02*
X146990000Y-87010000D01*
X146190000Y-90780000D02*
X146190000Y-88810000D01*
X144750000Y-92250000D02*
X144590000Y-92090000D01*
X144750000Y-92310674D02*
X143810674Y-93250000D01*
X146190000Y-90780000D02*
X146190000Y-92060000D01*
X144750000Y-92250000D02*
X144750000Y-92310674D01*
G04 #@! TO.N,Net-(D1-Pad2)*
X152000000Y-74750000D02*
X152000000Y-76062500D01*
X145947500Y-73500000D02*
X150750000Y-73500000D01*
X150750000Y-73500000D02*
X152000000Y-74750000D01*
D21*
G04 #@! TO.N,SCL*
X140740000Y-86130000D02*
X142120000Y-86130000D01*
D20*
X142491367Y-86130000D02*
X142549406Y-86071961D01*
X142120000Y-86130000D02*
X142491367Y-86130000D01*
D21*
G04 #@! TO.N,SDA*
X142500000Y-84870000D02*
X142500000Y-84250000D01*
X140740000Y-85330000D02*
X142040000Y-85330000D01*
X142040000Y-85330000D02*
X142500000Y-84870000D01*
D22*
G04 #@! TO.N,MOSI*
X150750000Y-84015002D02*
X150750000Y-81000000D01*
X149310000Y-84500000D02*
X150265002Y-84500000D01*
X148500000Y-74750000D02*
X146715000Y-74750000D01*
X149240000Y-84530000D02*
X149280000Y-84530000D01*
X149280000Y-84530000D02*
X149310000Y-84500000D01*
X150265002Y-84500000D02*
X150750000Y-84015002D01*
X149375000Y-79625000D02*
X149375000Y-75625000D01*
X149375000Y-75625000D02*
X148500000Y-74750000D01*
X150750000Y-81000000D02*
X149375000Y-79625000D01*
X146715000Y-74750000D02*
X145005000Y-76460000D01*
D21*
G04 #@! TO.N,LED*
X148970000Y-82280000D02*
X149000000Y-82250000D01*
X147790000Y-82280000D02*
X148970000Y-82280000D01*
D22*
G04 #@! TO.N,MISO*
X143015000Y-80750000D02*
X149000000Y-80750000D01*
X149240000Y-83730000D02*
X149770000Y-83730000D01*
X142465000Y-80215000D02*
X142465000Y-79000000D01*
X149850001Y-83649999D02*
X149850001Y-81350001D01*
X143015000Y-80750000D02*
X143000000Y-80750000D01*
X149850001Y-81350001D02*
X149250000Y-80750000D01*
X149770000Y-83730000D02*
X149850001Y-83649999D01*
X149250000Y-80750000D02*
X143015000Y-80750000D01*
X143000000Y-80750000D02*
X142465000Y-80215000D01*
D20*
G04 #@! TO.N,EXT_LED*
X139925000Y-100000000D02*
X139925000Y-98075000D01*
X140250000Y-97750000D02*
X152750000Y-97750000D01*
X139925000Y-98075000D02*
X140250000Y-97750000D01*
G04 #@! TO.N,ON_BOARD_LED*
X151937500Y-78000000D02*
X152000000Y-77937500D01*
X150500000Y-78000000D02*
X151937500Y-78000000D01*
G04 #@! TD*
G04 #@! TA.AperFunction,Conductor*
G04 #@! TO.N,GND*
G36*
X148308617Y-75270502D02*
G01*
X148329591Y-75287405D01*
X148837595Y-75795409D01*
X148871621Y-75857721D01*
X148874500Y-75884504D01*
X148874499Y-78533490D01*
X148854497Y-78601611D01*
X148800841Y-78648104D01*
X148730567Y-78658207D01*
X148665987Y-78628714D01*
X148636648Y-78587005D01*
X148635001Y-78587826D01*
X148632406Y-78582614D01*
X148632405Y-78582611D01*
X148537366Y-78391745D01*
X148408872Y-78221593D01*
X148351473Y-78169266D01*
X148251300Y-78077946D01*
X148251298Y-78077945D01*
X148070025Y-77965705D01*
X148070021Y-77965703D01*
X148070019Y-77965702D01*
X147948222Y-77918517D01*
X147871199Y-77888679D01*
X147818801Y-77878884D01*
X147661610Y-77849500D01*
X147448390Y-77849500D01*
X147322637Y-77873007D01*
X147238800Y-77888679D01*
X147084754Y-77948356D01*
X147039981Y-77965702D01*
X147039980Y-77965702D01*
X147039979Y-77965703D01*
X147039974Y-77965705D01*
X146858701Y-78077945D01*
X146858699Y-78077946D01*
X146701129Y-78221591D01*
X146633369Y-78311320D01*
X146572634Y-78391745D01*
X146485201Y-78567335D01*
X146477593Y-78582615D01*
X146419244Y-78787688D01*
X146419243Y-78787690D01*
X146419244Y-78787690D01*
X146410462Y-78882461D01*
X146384261Y-78948444D01*
X146326544Y-78989788D01*
X146255638Y-78993365D01*
X146194053Y-78958039D01*
X146161344Y-78895026D01*
X146159538Y-78882470D01*
X146150756Y-78787690D01*
X146092405Y-78582611D01*
X145997366Y-78391745D01*
X145868872Y-78221593D01*
X145811473Y-78169266D01*
X145711300Y-78077946D01*
X145711298Y-78077945D01*
X145530025Y-77965705D01*
X145530021Y-77965703D01*
X145530019Y-77965702D01*
X145331198Y-77888679D01*
X145144902Y-77853854D01*
X145081618Y-77821676D01*
X145045776Y-77760391D01*
X145048757Y-77689457D01*
X145089615Y-77631395D01*
X145144901Y-77606145D01*
X145331198Y-77571321D01*
X145530019Y-77494298D01*
X145711302Y-77382052D01*
X145868872Y-77238407D01*
X145997366Y-77068255D01*
X146092405Y-76877389D01*
X146150756Y-76672310D01*
X146170429Y-76460000D01*
X146150756Y-76247690D01*
X146121040Y-76143251D01*
X146121636Y-76072262D01*
X146153133Y-76019679D01*
X146885409Y-75287404D01*
X146947722Y-75253379D01*
X146974505Y-75250500D01*
X148240496Y-75250500D01*
X148308617Y-75270502D01*
G37*
G04 #@! TD.AperFunction*
G04 #@! TA.AperFunction,Conductor*
G36*
X153002058Y-72025634D02*
G01*
X153253604Y-72042122D01*
X153261759Y-72043194D01*
X153506989Y-72091973D01*
X153514943Y-72094104D01*
X153751698Y-72174473D01*
X153759308Y-72177624D01*
X153983558Y-72288212D01*
X153990676Y-72292322D01*
X154198563Y-72431228D01*
X154205101Y-72436245D01*
X154289205Y-72510002D01*
X154393074Y-72601092D01*
X154398907Y-72606925D01*
X154563753Y-72794896D01*
X154568773Y-72801438D01*
X154707674Y-73009318D01*
X154711789Y-73016446D01*
X154822371Y-73240683D01*
X154825528Y-73248305D01*
X154905892Y-73485047D01*
X154908027Y-73493016D01*
X154956802Y-73738222D01*
X154957878Y-73746401D01*
X154974365Y-73997937D01*
X154974500Y-74002058D01*
X154974500Y-99997940D01*
X154974365Y-100002061D01*
X154957878Y-100253598D01*
X154956802Y-100261777D01*
X154908027Y-100506983D01*
X154905892Y-100514952D01*
X154825528Y-100751694D01*
X154822371Y-100759316D01*
X154812956Y-100778408D01*
X154743136Y-100919991D01*
X154711796Y-100983542D01*
X154707671Y-100990686D01*
X154568774Y-101198559D01*
X154563753Y-101205103D01*
X154398907Y-101393074D01*
X154393074Y-101398907D01*
X154205103Y-101563753D01*
X154198559Y-101568774D01*
X153990686Y-101707671D01*
X153983546Y-101711793D01*
X153871429Y-101767083D01*
X153759316Y-101822371D01*
X153751694Y-101825528D01*
X153514952Y-101905892D01*
X153506983Y-101908027D01*
X153321223Y-101944977D01*
X153261774Y-101956802D01*
X153253598Y-101957878D01*
X153043176Y-101971670D01*
X153002058Y-101974365D01*
X152997940Y-101974500D01*
X137002060Y-101974500D01*
X136997941Y-101974365D01*
X136950819Y-101971276D01*
X136746401Y-101957878D01*
X136738227Y-101956802D01*
X136615619Y-101932414D01*
X136493016Y-101908027D01*
X136485047Y-101905892D01*
X136248305Y-101825528D01*
X136240683Y-101822371D01*
X136016446Y-101711789D01*
X136009318Y-101707674D01*
X135801438Y-101568773D01*
X135794896Y-101563753D01*
X135606925Y-101398907D01*
X135601092Y-101393074D01*
X135436246Y-101205103D01*
X135431225Y-101198559D01*
X135399113Y-101150500D01*
X135292322Y-100990676D01*
X135288212Y-100983558D01*
X135244470Y-100894859D01*
X138774500Y-100894859D01*
X138774501Y-100894866D01*
X138777414Y-100919990D01*
X138777416Y-100919994D01*
X138822793Y-101022765D01*
X138902232Y-101102204D01*
X138902234Y-101102205D01*
X138902235Y-101102206D01*
X139005009Y-101147585D01*
X139030135Y-101150500D01*
X140819864Y-101150499D01*
X140844991Y-101147585D01*
X140947765Y-101102206D01*
X141027206Y-101022765D01*
X141072585Y-100919991D01*
X141075500Y-100894865D01*
X141075499Y-100199306D01*
X141095501Y-100131188D01*
X141149157Y-100084695D01*
X141219430Y-100074591D01*
X141284011Y-100104084D01*
X141322395Y-100163811D01*
X141326961Y-100187681D01*
X141329243Y-100212307D01*
X141387593Y-100417384D01*
X141387594Y-100417386D01*
X141387595Y-100417389D01*
X141482634Y-100608255D01*
X141590955Y-100751694D01*
X141611129Y-100778408D01*
X141768699Y-100922053D01*
X141768701Y-100922054D01*
X141949974Y-101034294D01*
X141949975Y-101034294D01*
X141949981Y-101034298D01*
X142148802Y-101111321D01*
X142358390Y-101150500D01*
X142358393Y-101150500D01*
X142571607Y-101150500D01*
X142571610Y-101150500D01*
X142781198Y-101111321D01*
X142980019Y-101034298D01*
X143161302Y-100922052D01*
X143318872Y-100778407D01*
X143447366Y-100608255D01*
X143542405Y-100417389D01*
X143600756Y-100212310D01*
X143609537Y-100117538D01*
X143635739Y-100051555D01*
X143693456Y-100010211D01*
X143764362Y-100006634D01*
X143825946Y-100041960D01*
X143858656Y-100104973D01*
X143860461Y-100117529D01*
X143861873Y-100132758D01*
X143869244Y-100212311D01*
X143927593Y-100417384D01*
X143927594Y-100417386D01*
X143927595Y-100417389D01*
X144022634Y-100608255D01*
X144130955Y-100751694D01*
X144151129Y-100778408D01*
X144308699Y-100922053D01*
X144308701Y-100922054D01*
X144489974Y-101034294D01*
X144489975Y-101034294D01*
X144489981Y-101034298D01*
X144688802Y-101111321D01*
X144898390Y-101150500D01*
X144898393Y-101150500D01*
X145111607Y-101150500D01*
X145111610Y-101150500D01*
X145321198Y-101111321D01*
X145520019Y-101034298D01*
X145701302Y-100922052D01*
X145858872Y-100778407D01*
X145987366Y-100608255D01*
X146082405Y-100417389D01*
X146140756Y-100212310D01*
X146149537Y-100117536D01*
X146175738Y-100051556D01*
X146233454Y-100010211D01*
X146304360Y-100006634D01*
X146365945Y-100041959D01*
X146398654Y-100104971D01*
X146400461Y-100117538D01*
X146409243Y-100212306D01*
X146467593Y-100417384D01*
X146467594Y-100417386D01*
X146467595Y-100417389D01*
X146562634Y-100608255D01*
X146670955Y-100751694D01*
X146691129Y-100778408D01*
X146848699Y-100922053D01*
X146848701Y-100922054D01*
X147029974Y-101034294D01*
X147029975Y-101034294D01*
X147029981Y-101034298D01*
X147228802Y-101111321D01*
X147438390Y-101150500D01*
X147438393Y-101150500D01*
X147651607Y-101150500D01*
X147651610Y-101150500D01*
X147861198Y-101111321D01*
X148060019Y-101034298D01*
X148241302Y-100922052D01*
X148398872Y-100778407D01*
X148527366Y-100608255D01*
X148622405Y-100417389D01*
X148680756Y-100212310D01*
X148700429Y-100000000D01*
X148680756Y-99787690D01*
X148622405Y-99582611D01*
X148527366Y-99391745D01*
X148398872Y-99221593D01*
X148271123Y-99105133D01*
X148241300Y-99077946D01*
X148241298Y-99077945D01*
X148060025Y-98965705D01*
X148060021Y-98965703D01*
X148060019Y-98965702D01*
X147938221Y-98918517D01*
X147861199Y-98888679D01*
X147808801Y-98878884D01*
X147651610Y-98849500D01*
X147438390Y-98849500D01*
X147312637Y-98873007D01*
X147228800Y-98888679D01*
X147074753Y-98948356D01*
X147029981Y-98965702D01*
X147029980Y-98965702D01*
X147029979Y-98965703D01*
X147029974Y-98965705D01*
X146848701Y-99077945D01*
X146848699Y-99077946D01*
X146691129Y-99221591D01*
X146604293Y-99336580D01*
X146562634Y-99391745D01*
X146469130Y-99579526D01*
X146467593Y-99582615D01*
X146409243Y-99787693D01*
X146400461Y-99882461D01*
X146374259Y-99948445D01*
X146316542Y-99989789D01*
X146245635Y-99993365D01*
X146184052Y-99958038D01*
X146151343Y-99895025D01*
X146149539Y-99882484D01*
X146140756Y-99787690D01*
X146082405Y-99582611D01*
X145987366Y-99391745D01*
X145858872Y-99221593D01*
X145731123Y-99105133D01*
X145701300Y-99077946D01*
X145701298Y-99077945D01*
X145520025Y-98965705D01*
X145520021Y-98965703D01*
X145520019Y-98965702D01*
X145398221Y-98918517D01*
X145321199Y-98888679D01*
X145268801Y-98878884D01*
X145111610Y-98849500D01*
X144898390Y-98849500D01*
X144772637Y-98873007D01*
X144688800Y-98888679D01*
X144534753Y-98948356D01*
X144489981Y-98965702D01*
X144489980Y-98965702D01*
X144489979Y-98965703D01*
X144489974Y-98965705D01*
X144308701Y-99077945D01*
X144308699Y-99077946D01*
X144151129Y-99221591D01*
X144064293Y-99336580D01*
X144022634Y-99391745D01*
X143929130Y-99579526D01*
X143927593Y-99582615D01*
X143869244Y-99787688D01*
X143869243Y-99787690D01*
X143869244Y-99787690D01*
X143860462Y-99882461D01*
X143834261Y-99948444D01*
X143776544Y-99989788D01*
X143705638Y-99993365D01*
X143644053Y-99958039D01*
X143611344Y-99895026D01*
X143609538Y-99882470D01*
X143600756Y-99787690D01*
X143542405Y-99582611D01*
X143447366Y-99391745D01*
X143318872Y-99221593D01*
X143191123Y-99105133D01*
X143161300Y-99077946D01*
X143161298Y-99077945D01*
X142980025Y-98965705D01*
X142980021Y-98965703D01*
X142980019Y-98965702D01*
X142858221Y-98918517D01*
X142781199Y-98888679D01*
X142728801Y-98878884D01*
X142571610Y-98849500D01*
X142358390Y-98849500D01*
X142232637Y-98873007D01*
X142148800Y-98888679D01*
X141994753Y-98948356D01*
X141949981Y-98965702D01*
X141949980Y-98965702D01*
X141949979Y-98965703D01*
X141949974Y-98965705D01*
X141768701Y-99077945D01*
X141768699Y-99077946D01*
X141611129Y-99221591D01*
X141524293Y-99336580D01*
X141482634Y-99391745D01*
X141389130Y-99579526D01*
X141387593Y-99582615D01*
X141329243Y-99787693D01*
X141326961Y-99812320D01*
X141300759Y-99878305D01*
X141243041Y-99919648D01*
X141172135Y-99923224D01*
X141110551Y-99887897D01*
X141077843Y-99824884D01*
X141075499Y-99800693D01*
X141075499Y-99105140D01*
X141075499Y-99105136D01*
X141072585Y-99080009D01*
X141027206Y-98977235D01*
X141027206Y-98977234D01*
X140947767Y-98897795D01*
X140947765Y-98897794D01*
X140844989Y-98852414D01*
X140844990Y-98852414D01*
X140819870Y-98849500D01*
X140819865Y-98849500D01*
X140651500Y-98849500D01*
X140583379Y-98829498D01*
X140536886Y-98775842D01*
X140525500Y-98723500D01*
X140525500Y-98476500D01*
X140545502Y-98408379D01*
X140599158Y-98361886D01*
X140651500Y-98350500D01*
X152355752Y-98350500D01*
X152414307Y-98364933D01*
X152470586Y-98394470D01*
X152499775Y-98409790D01*
X152499776Y-98409790D01*
X152499778Y-98409791D01*
X152656461Y-98448409D01*
X152664944Y-98450500D01*
X152664947Y-98450500D01*
X152835053Y-98450500D01*
X152835056Y-98450500D01*
X153000225Y-98409790D01*
X153150852Y-98330734D01*
X153278183Y-98217929D01*
X153374818Y-98077930D01*
X153435140Y-97918872D01*
X153452954Y-97772160D01*
X153455645Y-97750002D01*
X153455645Y-97749997D01*
X153435140Y-97581128D01*
X153374820Y-97422074D01*
X153374818Y-97422070D01*
X153278183Y-97282071D01*
X153278181Y-97282069D01*
X153150857Y-97169270D01*
X153150851Y-97169265D01*
X153000225Y-97090210D01*
X153000221Y-97090208D01*
X152835059Y-97049500D01*
X152835056Y-97049500D01*
X152664944Y-97049500D01*
X152664940Y-97049500D01*
X152499778Y-97090208D01*
X152499770Y-97090212D01*
X152414307Y-97135067D01*
X152355752Y-97149500D01*
X140293494Y-97149500D01*
X140285262Y-97148960D01*
X140250001Y-97144318D01*
X140250000Y-97144318D01*
X140210639Y-97149500D01*
X140093239Y-97164955D01*
X139947160Y-97225463D01*
X139947152Y-97225468D01*
X139821719Y-97321717D01*
X139821716Y-97321720D01*
X139800063Y-97349938D01*
X139794625Y-97356139D01*
X139531139Y-97619625D01*
X139524938Y-97625063D01*
X139496718Y-97646717D01*
X139472550Y-97678215D01*
X139400465Y-97772157D01*
X139400463Y-97772160D01*
X139339955Y-97918239D01*
X139319318Y-98074999D01*
X139319318Y-98075000D01*
X139323960Y-98110262D01*
X139324500Y-98118494D01*
X139324500Y-98723500D01*
X139304498Y-98791621D01*
X139250842Y-98838114D01*
X139198501Y-98849500D01*
X139030139Y-98849500D01*
X139030133Y-98849501D01*
X139005010Y-98852414D01*
X139005005Y-98852416D01*
X138902234Y-98897793D01*
X138822795Y-98977232D01*
X138822794Y-98977234D01*
X138777414Y-99080009D01*
X138774500Y-99105129D01*
X138774500Y-100894859D01*
X135244470Y-100894859D01*
X135177624Y-100759308D01*
X135174471Y-100751694D01*
X135140790Y-100652473D01*
X135094104Y-100514943D01*
X135091972Y-100506983D01*
X135043194Y-100261759D01*
X135042122Y-100253604D01*
X135025634Y-100002058D01*
X135025500Y-99997940D01*
X135025500Y-94348862D01*
X136749500Y-94348862D01*
X136760002Y-94436320D01*
X136814889Y-94575500D01*
X136905288Y-94694711D01*
X136995687Y-94763262D01*
X137024500Y-94785111D01*
X137163679Y-94839997D01*
X137251140Y-94850500D01*
X137251143Y-94850500D01*
X138248857Y-94850500D01*
X138248860Y-94850500D01*
X138336321Y-94839997D01*
X138475500Y-94785111D01*
X138594711Y-94694711D01*
X138594710Y-94694711D01*
X138601579Y-94689503D01*
X138603625Y-94692201D01*
X138651830Y-94665879D01*
X138678613Y-94663000D01*
X138761575Y-94663000D01*
X138829696Y-94683002D01*
X138850669Y-94699904D01*
X139544625Y-95393860D01*
X139550058Y-95400055D01*
X139571718Y-95428283D01*
X139635746Y-95477412D01*
X139697159Y-95524536D01*
X139843238Y-95585044D01*
X140000000Y-95605682D01*
X140000001Y-95605682D01*
X140035262Y-95601040D01*
X140043494Y-95600500D01*
X141429739Y-95600500D01*
X141497860Y-95620502D01*
X141530289Y-95650568D01*
X141614309Y-95761830D01*
X141768526Y-95902417D01*
X141768527Y-95902418D01*
X141945938Y-96012267D01*
X141945945Y-96012270D01*
X141945948Y-96012272D01*
X142140535Y-96087656D01*
X142345661Y-96126000D01*
X142345663Y-96126000D01*
X142554337Y-96126000D01*
X142554339Y-96126000D01*
X142759465Y-96087656D01*
X142954052Y-96012272D01*
X142954057Y-96012268D01*
X142954061Y-96012267D01*
X143131472Y-95902418D01*
X143131471Y-95902418D01*
X143131474Y-95902417D01*
X143285689Y-95761831D01*
X143369711Y-95650567D01*
X143426724Y-95608261D01*
X143470261Y-95600500D01*
X144456506Y-95600500D01*
X144464738Y-95601040D01*
X144499999Y-95605682D01*
X144500000Y-95605682D01*
X144656762Y-95585044D01*
X144802841Y-95524536D01*
X144864254Y-95477412D01*
X144928282Y-95428282D01*
X144949940Y-95400054D01*
X144955361Y-95393872D01*
X146974406Y-93374827D01*
X147036717Y-93340803D01*
X147107533Y-93345868D01*
X147164368Y-93388415D01*
X147189179Y-93454935D01*
X147189500Y-93463924D01*
X147189500Y-93838055D01*
X147169498Y-93906176D01*
X147115842Y-93952669D01*
X147109017Y-93955546D01*
X147025953Y-93987725D01*
X147025938Y-93987732D01*
X146848527Y-94097581D01*
X146848526Y-94097582D01*
X146694309Y-94238169D01*
X146568555Y-94404696D01*
X146475535Y-94591504D01*
X146418430Y-94792208D01*
X146399176Y-94999999D01*
X146418430Y-95207791D01*
X146475535Y-95408495D01*
X146475538Y-95408501D01*
X146568554Y-95595302D01*
X146572887Y-95601040D01*
X146694309Y-95761830D01*
X146848526Y-95902417D01*
X146848527Y-95902418D01*
X147025938Y-96012267D01*
X147025945Y-96012270D01*
X147025948Y-96012272D01*
X147220535Y-96087656D01*
X147425661Y-96126000D01*
X147425663Y-96126000D01*
X147634337Y-96126000D01*
X147634339Y-96126000D01*
X147839465Y-96087656D01*
X148034052Y-96012272D01*
X148034057Y-96012268D01*
X148034061Y-96012267D01*
X148211472Y-95902418D01*
X148211471Y-95902418D01*
X148211474Y-95902417D01*
X148365689Y-95761831D01*
X148449711Y-95650567D01*
X148506724Y-95608261D01*
X148550261Y-95600500D01*
X149956506Y-95600500D01*
X149964738Y-95601040D01*
X149999999Y-95605682D01*
X150000000Y-95605682D01*
X150156762Y-95585044D01*
X150302841Y-95524536D01*
X150364254Y-95477412D01*
X150428282Y-95428282D01*
X150449943Y-95400051D01*
X150455365Y-95393868D01*
X151149330Y-94699904D01*
X151211643Y-94665879D01*
X151238426Y-94663000D01*
X151321387Y-94663000D01*
X151389508Y-94683002D01*
X151398099Y-94689926D01*
X151398421Y-94689503D01*
X151405289Y-94694711D01*
X151524500Y-94785111D01*
X151663679Y-94839997D01*
X151751140Y-94850500D01*
X151751143Y-94850500D01*
X152748857Y-94850500D01*
X152748860Y-94850500D01*
X152836321Y-94839997D01*
X152975500Y-94785111D01*
X153094711Y-94694711D01*
X153185111Y-94575500D01*
X153239997Y-94436321D01*
X153250500Y-94348860D01*
X153250500Y-93776140D01*
X153239997Y-93688679D01*
X153185111Y-93549500D01*
X153130478Y-93477455D01*
X153094711Y-93430288D01*
X152975500Y-93339889D01*
X152836320Y-93285002D01*
X152748862Y-93274500D01*
X152748860Y-93274500D01*
X151751140Y-93274500D01*
X151751137Y-93274500D01*
X151663679Y-93285002D01*
X151524499Y-93339889D01*
X151398421Y-93435497D01*
X151396374Y-93432798D01*
X151348170Y-93459121D01*
X151321387Y-93462000D01*
X150980994Y-93462000D01*
X150972762Y-93461460D01*
X150937501Y-93456818D01*
X150937500Y-93456818D01*
X150898139Y-93462000D01*
X150780739Y-93477455D01*
X150634660Y-93537963D01*
X150634652Y-93537968D01*
X150509219Y-93634217D01*
X150509216Y-93634220D01*
X150487566Y-93662434D01*
X150482128Y-93668635D01*
X149788170Y-94362595D01*
X149725857Y-94396620D01*
X149699074Y-94399500D01*
X148550261Y-94399500D01*
X148482140Y-94379498D01*
X148449711Y-94349432D01*
X148415950Y-94304725D01*
X148390860Y-94238309D01*
X148390500Y-94228793D01*
X148390500Y-90740646D01*
X148390500Y-90740645D01*
X148390500Y-90740639D01*
X148375044Y-90623238D01*
X148375041Y-90623231D01*
X148372906Y-90615259D01*
X148373451Y-90615112D01*
X148365499Y-90575131D01*
X148365499Y-90223862D01*
X150999500Y-90223862D01*
X151010002Y-90311320D01*
X151064889Y-90450500D01*
X151155288Y-90569711D01*
X151274500Y-90660111D01*
X151319724Y-90677945D01*
X151375757Y-90721543D01*
X151399325Y-90788514D01*
X151399500Y-90795160D01*
X151399500Y-90847576D01*
X151379498Y-90915697D01*
X151377196Y-90919151D01*
X151375185Y-90922063D01*
X151375179Y-90922075D01*
X151314859Y-91081128D01*
X151294355Y-91249997D01*
X151294355Y-91250002D01*
X151314859Y-91418871D01*
X151375179Y-91577925D01*
X151375181Y-91577929D01*
X151440167Y-91672076D01*
X151471817Y-91717929D01*
X151599148Y-91830734D01*
X151749775Y-91909790D01*
X151749776Y-91909790D01*
X151749778Y-91909791D01*
X151906461Y-91948409D01*
X151914944Y-91950500D01*
X151914947Y-91950500D01*
X152085053Y-91950500D01*
X152085056Y-91950500D01*
X152250225Y-91909790D01*
X152400852Y-91830734D01*
X152528183Y-91717929D01*
X152624818Y-91577930D01*
X152685140Y-91418872D01*
X152705645Y-91250000D01*
X152685140Y-91081128D01*
X152624818Y-90922070D01*
X152624816Y-90922067D01*
X152624814Y-90922063D01*
X152622804Y-90919151D01*
X152621989Y-90916681D01*
X152621277Y-90915324D01*
X152621502Y-90915205D01*
X152600568Y-90851727D01*
X152600500Y-90847576D01*
X152600500Y-90795160D01*
X152620502Y-90727039D01*
X152674158Y-90680546D01*
X152680276Y-90677945D01*
X152725500Y-90660111D01*
X152844711Y-90569711D01*
X152935111Y-90450500D01*
X152989997Y-90311321D01*
X153000500Y-90223860D01*
X153000500Y-89651140D01*
X152989997Y-89563679D01*
X152935111Y-89424500D01*
X152913262Y-89395688D01*
X152844711Y-89305288D01*
X152725500Y-89214889D01*
X152586320Y-89160002D01*
X152498862Y-89149500D01*
X152498860Y-89149500D01*
X151501140Y-89149500D01*
X151501137Y-89149500D01*
X151413679Y-89160002D01*
X151274499Y-89214889D01*
X151155288Y-89305288D01*
X151064889Y-89424499D01*
X151010002Y-89563679D01*
X150999500Y-89651137D01*
X150999500Y-90223862D01*
X148365499Y-90223862D01*
X148365499Y-90031499D01*
X148385501Y-89963378D01*
X148439157Y-89916885D01*
X148491494Y-89905499D01*
X150084864Y-89905499D01*
X150109991Y-89902585D01*
X150212765Y-89857206D01*
X150292206Y-89777765D01*
X150337585Y-89674991D01*
X150340500Y-89649865D01*
X150340499Y-89010136D01*
X150337585Y-88985009D01*
X150335768Y-88980893D01*
X150335120Y-88975951D01*
X150335096Y-88975860D01*
X150335108Y-88975856D01*
X150326550Y-88910497D01*
X150335767Y-88879106D01*
X150337585Y-88874991D01*
X150340500Y-88849865D01*
X150340499Y-88210136D01*
X150337585Y-88185009D01*
X150335768Y-88180893D01*
X150335120Y-88175951D01*
X150335096Y-88175860D01*
X150335108Y-88175856D01*
X150326550Y-88110497D01*
X150335767Y-88079106D01*
X150337585Y-88074991D01*
X150340500Y-88049865D01*
X150340499Y-87410136D01*
X150337585Y-87385009D01*
X150335768Y-87380893D01*
X150335120Y-87375951D01*
X150335096Y-87375860D01*
X150335108Y-87375856D01*
X150326550Y-87310497D01*
X150335767Y-87279106D01*
X150337585Y-87274991D01*
X150340500Y-87249865D01*
X150340499Y-86610136D01*
X150337585Y-86585009D01*
X150336916Y-86583495D01*
X150335768Y-86580893D01*
X150335120Y-86575951D01*
X150335096Y-86575860D01*
X150335108Y-86575856D01*
X150326550Y-86510497D01*
X150335767Y-86479106D01*
X150337585Y-86474991D01*
X150340500Y-86449865D01*
X150340499Y-85810136D01*
X150337585Y-85785009D01*
X150335768Y-85780893D01*
X150335120Y-85775951D01*
X150335096Y-85775860D01*
X150335108Y-85775856D01*
X150326550Y-85710497D01*
X150335767Y-85679106D01*
X150337585Y-85674991D01*
X150340500Y-85649865D01*
X150340499Y-85096718D01*
X150360501Y-85028598D01*
X150414152Y-84982107D01*
X150454622Y-84963625D01*
X150458741Y-84961918D01*
X150507333Y-84943796D01*
X150511019Y-84941036D01*
X150534185Y-84927289D01*
X150538375Y-84925377D01*
X150577549Y-84891432D01*
X150581047Y-84888613D01*
X150593595Y-84879221D01*
X150604688Y-84868126D01*
X150607953Y-84865086D01*
X150647145Y-84831128D01*
X150649633Y-84827256D01*
X150666536Y-84806278D01*
X151056278Y-84416536D01*
X151077256Y-84399633D01*
X151081128Y-84397145D01*
X151115086Y-84357953D01*
X151118126Y-84354688D01*
X151129221Y-84343595D01*
X151138615Y-84331044D01*
X151141429Y-84327553D01*
X151143026Y-84325708D01*
X151144290Y-84324250D01*
X151204014Y-84285865D01*
X151275010Y-84285861D01*
X151285728Y-84289539D01*
X151413679Y-84339997D01*
X151501140Y-84350500D01*
X151501143Y-84350500D01*
X152498857Y-84350500D01*
X152498860Y-84350500D01*
X152586321Y-84339997D01*
X152725500Y-84285111D01*
X152844711Y-84194711D01*
X152935111Y-84075500D01*
X152989997Y-83936321D01*
X153000500Y-83848860D01*
X153000500Y-83276140D01*
X152989997Y-83188679D01*
X152935111Y-83049500D01*
X152905588Y-83010568D01*
X152844711Y-82930288D01*
X152749499Y-82858088D01*
X152725500Y-82839889D01*
X152725498Y-82839888D01*
X152725497Y-82839887D01*
X152680274Y-82822053D01*
X152624242Y-82778454D01*
X152600675Y-82711483D01*
X152600500Y-82704839D01*
X152600500Y-82652423D01*
X152620502Y-82584302D01*
X152622806Y-82580845D01*
X152623131Y-82580373D01*
X152624818Y-82577930D01*
X152685140Y-82418872D01*
X152705645Y-82250000D01*
X152704508Y-82240639D01*
X152685140Y-82081128D01*
X152624820Y-81922074D01*
X152624818Y-81922070D01*
X152528183Y-81782071D01*
X152528181Y-81782069D01*
X152400857Y-81669270D01*
X152400851Y-81669265D01*
X152250225Y-81590210D01*
X152250221Y-81590208D01*
X152085059Y-81549500D01*
X152085056Y-81549500D01*
X151914944Y-81549500D01*
X151914940Y-81549500D01*
X151749778Y-81590208D01*
X151749774Y-81590210D01*
X151599148Y-81669265D01*
X151599142Y-81669270D01*
X151471817Y-81782070D01*
X151470805Y-81783213D01*
X151469855Y-81783808D01*
X151466112Y-81787125D01*
X151465560Y-81786502D01*
X151410658Y-81820933D01*
X151339665Y-81820147D01*
X151280368Y-81781104D01*
X151251592Y-81716201D01*
X151250500Y-81699651D01*
X151250500Y-81067357D01*
X151253379Y-81040576D01*
X151254359Y-81036073D01*
X151252214Y-81006084D01*
X151250661Y-80984363D01*
X151250500Y-80979867D01*
X151250500Y-80964201D01*
X151250500Y-80964200D01*
X151248264Y-80948657D01*
X151247788Y-80944216D01*
X151244091Y-80892520D01*
X151244091Y-80892517D01*
X151242481Y-80888202D01*
X151235821Y-80862107D01*
X151235165Y-80857543D01*
X151213624Y-80810376D01*
X151211910Y-80806237D01*
X151193798Y-80757672D01*
X151193796Y-80757669D01*
X151191031Y-80753975D01*
X151177289Y-80730814D01*
X151175377Y-80726627D01*
X151141435Y-80687456D01*
X151138620Y-80683963D01*
X151129221Y-80671407D01*
X151118131Y-80660317D01*
X151115078Y-80657038D01*
X151081127Y-80617856D01*
X151077246Y-80615362D01*
X151056275Y-80598461D01*
X149912405Y-79454591D01*
X149878379Y-79392279D01*
X149875500Y-79365496D01*
X149875500Y-78662559D01*
X149895502Y-78594438D01*
X149949158Y-78547945D01*
X150019432Y-78537841D01*
X150084012Y-78567335D01*
X150084985Y-78568186D01*
X150099148Y-78580734D01*
X150249775Y-78659790D01*
X150249776Y-78659790D01*
X150249778Y-78659791D01*
X150406461Y-78698409D01*
X150414944Y-78700500D01*
X150414947Y-78700500D01*
X150585053Y-78700500D01*
X150585056Y-78700500D01*
X150750225Y-78659790D01*
X150809435Y-78628714D01*
X150835693Y-78614933D01*
X150894248Y-78600500D01*
X151153519Y-78600500D01*
X151221640Y-78620502D01*
X151229653Y-78626103D01*
X151258666Y-78648104D01*
X151274500Y-78660111D01*
X151413679Y-78714997D01*
X151501140Y-78725500D01*
X151501143Y-78725500D01*
X152498857Y-78725500D01*
X152498860Y-78725500D01*
X152586321Y-78714997D01*
X152725500Y-78660111D01*
X152844711Y-78569711D01*
X152935111Y-78450500D01*
X152989997Y-78311321D01*
X153000500Y-78223860D01*
X153000500Y-77651140D01*
X152989997Y-77563679D01*
X152935111Y-77424500D01*
X152871194Y-77340212D01*
X152844711Y-77305288D01*
X152725500Y-77214889D01*
X152586320Y-77160002D01*
X152498862Y-77149500D01*
X152498860Y-77149500D01*
X151501140Y-77149500D01*
X151501137Y-77149500D01*
X151413679Y-77160002D01*
X151274499Y-77214889D01*
X151155288Y-77305288D01*
X151121662Y-77349633D01*
X151064563Y-77391827D01*
X151021264Y-77399500D01*
X150894248Y-77399500D01*
X150835693Y-77385067D01*
X150750229Y-77340212D01*
X150750221Y-77340208D01*
X150585059Y-77299500D01*
X150585056Y-77299500D01*
X150414944Y-77299500D01*
X150414940Y-77299500D01*
X150249778Y-77340208D01*
X150249774Y-77340210D01*
X150099148Y-77419265D01*
X150099142Y-77419270D01*
X150085052Y-77431753D01*
X150020799Y-77461953D01*
X149950419Y-77452621D01*
X149896256Y-77406720D01*
X149875508Y-77338823D01*
X149875500Y-77337440D01*
X149875500Y-75692357D01*
X149878379Y-75665576D01*
X149879359Y-75661073D01*
X149877214Y-75631084D01*
X149875661Y-75609363D01*
X149875500Y-75604867D01*
X149875500Y-75589201D01*
X149875500Y-75589200D01*
X149873264Y-75573657D01*
X149872788Y-75569216D01*
X149869091Y-75517520D01*
X149869091Y-75517517D01*
X149867481Y-75513202D01*
X149860821Y-75487107D01*
X149860165Y-75482543D01*
X149838624Y-75435376D01*
X149836910Y-75431237D01*
X149836556Y-75430289D01*
X149831193Y-75415909D01*
X149818798Y-75382672D01*
X149818796Y-75382669D01*
X149816031Y-75378975D01*
X149802289Y-75355814D01*
X149800377Y-75351627D01*
X149766435Y-75312456D01*
X149763620Y-75308963D01*
X149754221Y-75296407D01*
X149743131Y-75285317D01*
X149740078Y-75282038D01*
X149736972Y-75278454D01*
X149706128Y-75242857D01*
X149706127Y-75242856D01*
X149702246Y-75240362D01*
X149681275Y-75223461D01*
X148901537Y-74443723D01*
X148884635Y-74422751D01*
X148882143Y-74418872D01*
X148842959Y-74384919D01*
X148839679Y-74381865D01*
X148828593Y-74370779D01*
X148816036Y-74361379D01*
X148812544Y-74358564D01*
X148770028Y-74321725D01*
X148731644Y-74261999D01*
X148731644Y-74191002D01*
X148770027Y-74131276D01*
X148834608Y-74101783D01*
X148852540Y-74100500D01*
X150449075Y-74100500D01*
X150517196Y-74120502D01*
X150538164Y-74137399D01*
X151362597Y-74961832D01*
X151396620Y-75024141D01*
X151399500Y-75050924D01*
X151399500Y-75204839D01*
X151379498Y-75272960D01*
X151325842Y-75319453D01*
X151319726Y-75322053D01*
X151274502Y-75339887D01*
X151274501Y-75339888D01*
X151155288Y-75430288D01*
X151064889Y-75549499D01*
X151010002Y-75688679D01*
X150999500Y-75776137D01*
X150999500Y-76348862D01*
X151010002Y-76436320D01*
X151064889Y-76575500D01*
X151155288Y-76694711D01*
X151245688Y-76763262D01*
X151274500Y-76785111D01*
X151413679Y-76839997D01*
X151501140Y-76850500D01*
X151501143Y-76850500D01*
X152498857Y-76850500D01*
X152498860Y-76850500D01*
X152586321Y-76839997D01*
X152725500Y-76785111D01*
X152844711Y-76694711D01*
X152935111Y-76575500D01*
X152989997Y-76436321D01*
X153000500Y-76348860D01*
X153000500Y-75776140D01*
X152989997Y-75688679D01*
X152935111Y-75549500D01*
X152887788Y-75487095D01*
X152844711Y-75430288D01*
X152740979Y-75351627D01*
X152725500Y-75339889D01*
X152725498Y-75339888D01*
X152725497Y-75339887D01*
X152680274Y-75322053D01*
X152624242Y-75278454D01*
X152600675Y-75211483D01*
X152600500Y-75204839D01*
X152600500Y-74793494D01*
X152601040Y-74785262D01*
X152605682Y-74750000D01*
X152605682Y-74749999D01*
X152585044Y-74593239D01*
X152577140Y-74574158D01*
X152524536Y-74447159D01*
X152502831Y-74418872D01*
X152458721Y-74361387D01*
X152428283Y-74321719D01*
X152422241Y-74317083D01*
X152408064Y-74306204D01*
X152400055Y-74300058D01*
X152393861Y-74294626D01*
X151205367Y-73106132D01*
X151199940Y-73099944D01*
X151178282Y-73071718D01*
X151178280Y-73071717D01*
X151178280Y-73071716D01*
X151052842Y-72975465D01*
X151052841Y-72975464D01*
X150906762Y-72914956D01*
X150906760Y-72914955D01*
X150789361Y-72899500D01*
X150750000Y-72894318D01*
X150749999Y-72894318D01*
X150714738Y-72898960D01*
X150706506Y-72899500D01*
X146805160Y-72899500D01*
X146737039Y-72879498D01*
X146690546Y-72825842D01*
X146687945Y-72819724D01*
X146670111Y-72774500D01*
X146579711Y-72655288D01*
X146460500Y-72564889D01*
X146321320Y-72510002D01*
X146233862Y-72499500D01*
X146233860Y-72499500D01*
X145661140Y-72499500D01*
X145661137Y-72499500D01*
X145573679Y-72510002D01*
X145434499Y-72564889D01*
X145315288Y-72655288D01*
X145224889Y-72774499D01*
X145170002Y-72913679D01*
X145159500Y-73001137D01*
X145159500Y-73998862D01*
X145170002Y-74086320D01*
X145224889Y-74225500D01*
X145315288Y-74344711D01*
X145405687Y-74413262D01*
X145434500Y-74435111D01*
X145573679Y-74489997D01*
X145661140Y-74500500D01*
X145661143Y-74500500D01*
X145952495Y-74500500D01*
X146020616Y-74520502D01*
X146067109Y-74574158D01*
X146077213Y-74644432D01*
X146047719Y-74709012D01*
X146041603Y-74715581D01*
X145733044Y-75024141D01*
X145443293Y-75313892D01*
X145380981Y-75347917D01*
X145331047Y-75348650D01*
X145121610Y-75309500D01*
X144908390Y-75309500D01*
X144782637Y-75333007D01*
X144698800Y-75348679D01*
X144544754Y-75408356D01*
X144499981Y-75425702D01*
X144499980Y-75425702D01*
X144499979Y-75425703D01*
X144499974Y-75425705D01*
X144318701Y-75537945D01*
X144318699Y-75537946D01*
X144161129Y-75681591D01*
X144152999Y-75692357D01*
X144032634Y-75851745D01*
X143949015Y-76019677D01*
X143937593Y-76042615D01*
X143879244Y-76247688D01*
X143879244Y-76247689D01*
X143879244Y-76247690D01*
X143870462Y-76342461D01*
X143844261Y-76408444D01*
X143786544Y-76449788D01*
X143715638Y-76453365D01*
X143654053Y-76418039D01*
X143621344Y-76355026D01*
X143619538Y-76342470D01*
X143610756Y-76247690D01*
X143552405Y-76042611D01*
X143457366Y-75851745D01*
X143328872Y-75681593D01*
X143325822Y-75678812D01*
X143171300Y-75537946D01*
X143171298Y-75537945D01*
X142990025Y-75425705D01*
X142990021Y-75425703D01*
X142990019Y-75425702D01*
X142868222Y-75378517D01*
X142791199Y-75348679D01*
X142738801Y-75338884D01*
X142581610Y-75309500D01*
X142368390Y-75309500D01*
X142242637Y-75333007D01*
X142158800Y-75348679D01*
X142004754Y-75408356D01*
X141959981Y-75425702D01*
X141959980Y-75425702D01*
X141959979Y-75425703D01*
X141959974Y-75425705D01*
X141778701Y-75537945D01*
X141778699Y-75537946D01*
X141621129Y-75681591D01*
X141524587Y-75809433D01*
X141467572Y-75851740D01*
X141424037Y-75859500D01*
X141333494Y-75859500D01*
X141325262Y-75858960D01*
X141290001Y-75854318D01*
X141290000Y-75854318D01*
X141250639Y-75859500D01*
X141133239Y-75874955D01*
X140987160Y-75935463D01*
X140987152Y-75935468D01*
X140861719Y-76031717D01*
X140861716Y-76031720D01*
X140840063Y-76059938D01*
X140834625Y-76066139D01*
X140106139Y-76794625D01*
X140099938Y-76800063D01*
X140071718Y-76821717D01*
X140020642Y-76888282D01*
X139975465Y-76947157D01*
X139975463Y-76947160D01*
X139914955Y-77093239D01*
X139894318Y-77249999D01*
X139894318Y-77250000D01*
X139898960Y-77285262D01*
X139899500Y-77293494D01*
X139899500Y-81347576D01*
X139879498Y-81415697D01*
X139877196Y-81419151D01*
X139875185Y-81422063D01*
X139875179Y-81422075D01*
X139821532Y-81563533D01*
X139792815Y-81607948D01*
X138655913Y-82744850D01*
X138593601Y-82778876D01*
X138551797Y-82780856D01*
X138498867Y-82774500D01*
X138498860Y-82774500D01*
X137501140Y-82774500D01*
X137501137Y-82774500D01*
X137413679Y-82785002D01*
X137274499Y-82839889D01*
X137155288Y-82930288D01*
X137064889Y-83049499D01*
X137010002Y-83188679D01*
X136999500Y-83276137D01*
X136999500Y-83848862D01*
X137010002Y-83936320D01*
X137064889Y-84075500D01*
X137155288Y-84194711D01*
X137237869Y-84257333D01*
X137274500Y-84285111D01*
X137413679Y-84339997D01*
X137501140Y-84350500D01*
X137501143Y-84350500D01*
X138498857Y-84350500D01*
X138498860Y-84350500D01*
X138586321Y-84339997D01*
X138725500Y-84285111D01*
X138844711Y-84194711D01*
X138876432Y-84152878D01*
X138928609Y-84112605D01*
X138990341Y-84087036D01*
X139030521Y-84056205D01*
X139115782Y-83990782D01*
X139137440Y-83962554D01*
X139142861Y-83956372D01*
X139424407Y-83674826D01*
X139486717Y-83640802D01*
X139557532Y-83645867D01*
X139614368Y-83688414D01*
X139639179Y-83754934D01*
X139639500Y-83763923D01*
X139639500Y-84049859D01*
X139639501Y-84049866D01*
X139642414Y-84074988D01*
X139642418Y-84075000D01*
X139644234Y-84079114D01*
X139644880Y-84084051D01*
X139644904Y-84084139D01*
X139644892Y-84084142D01*
X139653447Y-84149510D01*
X139644236Y-84180882D01*
X139642416Y-84185003D01*
X139642414Y-84185010D01*
X139639500Y-84210129D01*
X139639500Y-84849859D01*
X139639501Y-84849866D01*
X139642414Y-84874988D01*
X139642418Y-84875000D01*
X139644234Y-84879114D01*
X139644880Y-84884051D01*
X139644904Y-84884139D01*
X139644892Y-84884142D01*
X139653447Y-84949510D01*
X139644236Y-84980882D01*
X139642416Y-84985003D01*
X139642414Y-84985010D01*
X139639500Y-85010129D01*
X139639500Y-85649859D01*
X139639501Y-85649866D01*
X139642414Y-85674988D01*
X139642418Y-85675000D01*
X139644234Y-85679114D01*
X139644880Y-85684051D01*
X139644904Y-85684139D01*
X139644892Y-85684142D01*
X139653447Y-85749510D01*
X139644236Y-85780882D01*
X139642416Y-85785003D01*
X139642414Y-85785010D01*
X139639500Y-85810130D01*
X139639500Y-85810133D01*
X139639500Y-85810135D01*
X139639500Y-86069711D01*
X139639501Y-86203500D01*
X139619499Y-86271620D01*
X139565844Y-86318113D01*
X139513501Y-86329500D01*
X138876811Y-86329500D01*
X138808690Y-86309498D01*
X138762197Y-86255842D01*
X138752093Y-86185568D01*
X138781587Y-86120988D01*
X138800678Y-86103102D01*
X138844711Y-86069711D01*
X138844710Y-86069710D01*
X138935111Y-85950500D01*
X138989997Y-85811321D01*
X139000500Y-85723860D01*
X139000500Y-85151140D01*
X138989997Y-85063679D01*
X138935111Y-84924500D01*
X138904507Y-84884142D01*
X138844711Y-84805288D01*
X138725500Y-84714889D01*
X138586320Y-84660002D01*
X138498862Y-84649500D01*
X138498860Y-84649500D01*
X137501140Y-84649500D01*
X137501137Y-84649500D01*
X137413679Y-84660002D01*
X137274499Y-84714889D01*
X137155288Y-84805288D01*
X137064889Y-84924499D01*
X137010002Y-85063679D01*
X136999500Y-85151137D01*
X136999500Y-85723862D01*
X137010002Y-85811320D01*
X137064889Y-85950500D01*
X137155288Y-86069711D01*
X137274500Y-86160111D01*
X137319724Y-86177945D01*
X137375757Y-86221543D01*
X137399325Y-86288514D01*
X137399500Y-86295160D01*
X137399500Y-86347576D01*
X137379498Y-86415697D01*
X137377196Y-86419151D01*
X137375185Y-86422063D01*
X137375179Y-86422075D01*
X137314859Y-86581128D01*
X137294355Y-86749997D01*
X137294355Y-86750002D01*
X137314859Y-86918871D01*
X137375183Y-87077932D01*
X137377194Y-87080845D01*
X137378009Y-87083317D01*
X137378725Y-87084681D01*
X137378498Y-87084799D01*
X137399432Y-87148269D01*
X137399500Y-87152423D01*
X137399500Y-87204839D01*
X137379498Y-87272960D01*
X137325842Y-87319453D01*
X137319726Y-87322053D01*
X137274502Y-87339887D01*
X137274501Y-87339888D01*
X137155288Y-87430288D01*
X137064889Y-87549499D01*
X137010002Y-87688679D01*
X136999500Y-87776137D01*
X136999500Y-88348862D01*
X137010002Y-88436320D01*
X137064889Y-88575500D01*
X137155288Y-88694711D01*
X137245687Y-88763262D01*
X137274500Y-88785111D01*
X137413679Y-88839997D01*
X137501140Y-88850500D01*
X137501143Y-88850500D01*
X138498857Y-88850500D01*
X138498860Y-88850500D01*
X138586321Y-88839997D01*
X138725500Y-88785111D01*
X138844711Y-88694711D01*
X138935111Y-88575500D01*
X138989997Y-88436321D01*
X139000500Y-88348860D01*
X139000500Y-87776140D01*
X138989997Y-87688679D01*
X138989997Y-87688678D01*
X138989668Y-87687377D01*
X138989709Y-87686283D01*
X138989034Y-87680658D01*
X138989927Y-87680550D01*
X138992367Y-87616432D01*
X139032993Y-87558208D01*
X139098648Y-87531191D01*
X139111826Y-87530500D01*
X139513500Y-87530500D01*
X139581621Y-87550502D01*
X139628114Y-87604158D01*
X139639500Y-87656500D01*
X139639500Y-88049859D01*
X139639501Y-88049866D01*
X139642414Y-88074988D01*
X139642418Y-88075000D01*
X139644234Y-88079114D01*
X139644880Y-88084051D01*
X139644904Y-88084139D01*
X139644892Y-88084142D01*
X139653447Y-88149510D01*
X139644236Y-88180882D01*
X139642416Y-88185003D01*
X139642414Y-88185010D01*
X139639500Y-88210129D01*
X139639500Y-88849859D01*
X139639501Y-88849866D01*
X139642414Y-88874988D01*
X139642418Y-88875000D01*
X139644234Y-88879114D01*
X139644880Y-88884051D01*
X139644904Y-88884139D01*
X139644892Y-88884142D01*
X139653447Y-88949510D01*
X139644236Y-88980882D01*
X139642416Y-88985003D01*
X139642414Y-88985010D01*
X139639500Y-89010129D01*
X139639500Y-89649859D01*
X139639501Y-89649866D01*
X139642414Y-89674990D01*
X139642416Y-89674994D01*
X139687793Y-89777765D01*
X139767232Y-89857204D01*
X139767234Y-89857205D01*
X139767235Y-89857206D01*
X139870009Y-89902585D01*
X139895135Y-89905500D01*
X141488500Y-89905499D01*
X141556621Y-89925501D01*
X141603114Y-89979157D01*
X141614500Y-90031499D01*
X141614500Y-91624859D01*
X141614501Y-91624866D01*
X141617414Y-91649990D01*
X141617416Y-91649994D01*
X141662793Y-91752765D01*
X141742232Y-91832204D01*
X141742234Y-91832205D01*
X141742235Y-91832206D01*
X141845009Y-91877585D01*
X141870135Y-91880500D01*
X142509864Y-91880499D01*
X142534991Y-91877585D01*
X142539100Y-91875770D01*
X142544040Y-91875123D01*
X142544136Y-91875097D01*
X142544139Y-91875110D01*
X142609490Y-91866548D01*
X142640889Y-91875766D01*
X142645009Y-91877585D01*
X142670135Y-91880500D01*
X143309864Y-91880499D01*
X143334991Y-91877585D01*
X143437765Y-91832206D01*
X143517206Y-91752765D01*
X143562585Y-91649991D01*
X143565500Y-91624865D01*
X143565499Y-89935136D01*
X143562585Y-89910009D01*
X143539270Y-89857205D01*
X143517206Y-89807234D01*
X143437767Y-89727795D01*
X143437765Y-89727794D01*
X143334989Y-89682414D01*
X143334990Y-89682414D01*
X143309868Y-89679500D01*
X142670140Y-89679500D01*
X142670133Y-89679501D01*
X142645009Y-89682415D01*
X142645007Y-89682415D01*
X142640886Y-89684235D01*
X142635939Y-89684882D01*
X142635864Y-89684903D01*
X142635861Y-89684892D01*
X142570490Y-89693449D01*
X142539105Y-89684231D01*
X142537136Y-89683362D01*
X142534992Y-89682415D01*
X142534987Y-89682414D01*
X142509870Y-89679500D01*
X141966499Y-89679500D01*
X141898378Y-89659498D01*
X141851885Y-89605842D01*
X141840499Y-89553503D01*
X141840499Y-89010136D01*
X141837585Y-88985009D01*
X141835768Y-88980893D01*
X141835120Y-88975951D01*
X141835096Y-88975860D01*
X141835108Y-88975856D01*
X141826550Y-88910497D01*
X141835767Y-88879106D01*
X141837585Y-88874991D01*
X141840500Y-88849865D01*
X141840499Y-88210136D01*
X141837585Y-88185009D01*
X141835768Y-88180893D01*
X141835120Y-88175951D01*
X141835096Y-88175860D01*
X141835108Y-88175856D01*
X141826550Y-88110497D01*
X141835767Y-88079106D01*
X141837585Y-88074991D01*
X141840500Y-88049865D01*
X141840499Y-87410136D01*
X141837585Y-87385009D01*
X141835768Y-87380893D01*
X141835120Y-87375951D01*
X141835096Y-87375860D01*
X141835108Y-87375856D01*
X141826550Y-87310497D01*
X141835767Y-87279106D01*
X141837585Y-87274991D01*
X141840500Y-87249865D01*
X141840499Y-86842559D01*
X141860501Y-86774440D01*
X141914156Y-86727946D01*
X141982943Y-86717638D01*
X142080639Y-86730500D01*
X142278808Y-86730500D01*
X142308955Y-86734160D01*
X142464350Y-86772461D01*
X142464353Y-86772461D01*
X142634459Y-86772461D01*
X142634462Y-86772461D01*
X142799631Y-86731751D01*
X142950258Y-86652695D01*
X143077589Y-86539890D01*
X143174224Y-86399891D01*
X143234546Y-86240833D01*
X143255051Y-86071961D01*
X143234546Y-85903089D01*
X143234546Y-85903088D01*
X143174226Y-85744035D01*
X143174224Y-85744031D01*
X143077589Y-85604032D01*
X143077587Y-85604030D01*
X142950263Y-85491231D01*
X142950259Y-85491228D01*
X142950258Y-85491227D01*
X142909753Y-85469968D01*
X142858733Y-85420600D01*
X142842501Y-85351484D01*
X142866213Y-85284564D01*
X142879233Y-85269289D01*
X142880927Y-85267595D01*
X142882616Y-85265908D01*
X142931043Y-85220681D01*
X142954015Y-85182903D01*
X142957650Y-85177563D01*
X142984361Y-85142342D01*
X142990880Y-85125809D01*
X143000437Y-85106566D01*
X143009672Y-85091382D01*
X143021603Y-85048795D01*
X143023649Y-85042710D01*
X143039876Y-85001564D01*
X143041694Y-84983879D01*
X143045704Y-84962779D01*
X143050500Y-84945665D01*
X143050500Y-84901452D01*
X143050831Y-84895004D01*
X143055352Y-84851029D01*
X143052332Y-84833511D01*
X143050500Y-84812104D01*
X143050500Y-84724861D01*
X143070502Y-84656740D01*
X143072804Y-84653285D01*
X143087287Y-84632301D01*
X143124818Y-84577930D01*
X143185140Y-84418872D01*
X143196023Y-84329244D01*
X143205645Y-84250002D01*
X143205645Y-84249997D01*
X143185140Y-84081128D01*
X143124820Y-83922074D01*
X143124818Y-83922070D01*
X143028183Y-83782071D01*
X143028181Y-83782069D01*
X142900857Y-83669270D01*
X142900851Y-83669265D01*
X142803300Y-83618066D01*
X142752278Y-83568697D01*
X142736046Y-83499581D01*
X142759758Y-83432661D01*
X142815885Y-83389184D01*
X142861852Y-83380499D01*
X143309864Y-83380499D01*
X143334991Y-83377585D01*
X143339104Y-83375768D01*
X143344045Y-83375121D01*
X143344140Y-83375096D01*
X143344143Y-83375108D01*
X143409498Y-83366550D01*
X143440896Y-83375769D01*
X143445006Y-83377584D01*
X143445007Y-83377584D01*
X143445009Y-83377585D01*
X143470135Y-83380500D01*
X144109864Y-83380499D01*
X144134991Y-83377585D01*
X144237765Y-83332206D01*
X144317206Y-83252765D01*
X144362585Y-83149991D01*
X144365500Y-83124865D01*
X144365499Y-81435136D01*
X144362585Y-81410009D01*
X144362584Y-81410007D01*
X144362468Y-81409580D01*
X144362477Y-81409085D01*
X144361493Y-81400593D01*
X144362649Y-81400458D01*
X144363884Y-81338597D01*
X144403451Y-81279649D01*
X144468608Y-81251450D01*
X144484048Y-81250500D01*
X144695952Y-81250500D01*
X144764073Y-81270502D01*
X144810566Y-81324158D01*
X144820670Y-81394432D01*
X144817532Y-81409581D01*
X144817414Y-81410013D01*
X144814500Y-81435129D01*
X144814500Y-82075133D01*
X144806548Y-82115112D01*
X144807094Y-82115259D01*
X144804956Y-82123239D01*
X144789500Y-82240636D01*
X144789500Y-83596505D01*
X144788960Y-83604737D01*
X144784318Y-83639999D01*
X144784318Y-83640000D01*
X144789500Y-83679361D01*
X144804955Y-83796760D01*
X144826537Y-83848862D01*
X144865464Y-83942841D01*
X144878080Y-83959283D01*
X144947581Y-84049859D01*
X144961718Y-84068282D01*
X144989944Y-84089940D01*
X144996132Y-84095367D01*
X145026437Y-84125672D01*
X145042815Y-84142050D01*
X145071532Y-84186466D01*
X145125178Y-84327923D01*
X145125181Y-84327929D01*
X145221816Y-84467928D01*
X145221818Y-84467930D01*
X145242754Y-84486478D01*
X145349148Y-84580734D01*
X145499775Y-84659790D01*
X145499776Y-84659790D01*
X145499778Y-84659791D01*
X145604479Y-84685597D01*
X145664944Y-84700500D01*
X145664947Y-84700500D01*
X145835053Y-84700500D01*
X145835056Y-84700500D01*
X146000225Y-84659790D01*
X146150852Y-84580734D01*
X146179947Y-84554957D01*
X146244198Y-84524757D01*
X146314579Y-84534088D01*
X146368742Y-84579988D01*
X146389492Y-84647884D01*
X146389500Y-84649270D01*
X146389500Y-87446505D01*
X146388960Y-87454737D01*
X146384318Y-87489999D01*
X146384318Y-87490000D01*
X146388960Y-87525262D01*
X146389500Y-87533494D01*
X146389500Y-87709073D01*
X146369498Y-87777194D01*
X146352595Y-87798169D01*
X145796135Y-88354628D01*
X145789934Y-88360066D01*
X145761718Y-88381717D01*
X145656847Y-88518385D01*
X145654220Y-88534302D01*
X145604956Y-88653237D01*
X145584318Y-88809999D01*
X145584318Y-88810000D01*
X145588960Y-88845262D01*
X145589500Y-88853494D01*
X145589500Y-91523500D01*
X145569498Y-91591621D01*
X145515842Y-91638114D01*
X145463500Y-91649500D01*
X145316500Y-91649500D01*
X145248379Y-91629498D01*
X145201886Y-91575842D01*
X145190500Y-91523500D01*
X145190500Y-90740645D01*
X145190500Y-90740639D01*
X145175044Y-90623238D01*
X145175041Y-90623231D01*
X145172906Y-90615259D01*
X145173451Y-90615112D01*
X145165499Y-90575131D01*
X145165499Y-89935140D01*
X145165499Y-89935136D01*
X145162585Y-89910009D01*
X145139270Y-89857205D01*
X145117206Y-89807234D01*
X145037767Y-89727795D01*
X145037765Y-89727794D01*
X144934989Y-89682414D01*
X144934990Y-89682414D01*
X144909868Y-89679500D01*
X144270140Y-89679500D01*
X144270133Y-89679501D01*
X144245009Y-89682414D01*
X144245005Y-89682416D01*
X144142234Y-89727793D01*
X144062795Y-89807232D01*
X144062794Y-89807234D01*
X144017414Y-89910009D01*
X144014500Y-89935129D01*
X144014500Y-90575133D01*
X144006548Y-90615112D01*
X144007094Y-90615259D01*
X144004956Y-90623239D01*
X143989500Y-90740636D01*
X143989500Y-92046505D01*
X143988960Y-92054737D01*
X143984318Y-92089999D01*
X143984318Y-92090000D01*
X143989500Y-92129362D01*
X143992160Y-92149567D01*
X143981218Y-92219715D01*
X143956333Y-92255104D01*
X143598844Y-92612595D01*
X143536532Y-92646620D01*
X143509748Y-92649500D01*
X141050925Y-92649500D01*
X140982804Y-92629498D01*
X140961830Y-92612595D01*
X140207185Y-91857950D01*
X140178468Y-91813534D01*
X140124821Y-91672076D01*
X140124818Y-91672070D01*
X140028183Y-91532071D01*
X140028181Y-91532069D01*
X139900857Y-91419270D01*
X139900851Y-91419265D01*
X139750225Y-91340210D01*
X139750221Y-91340208D01*
X139585059Y-91299500D01*
X139585056Y-91299500D01*
X139414944Y-91299500D01*
X139414940Y-91299500D01*
X139249778Y-91340208D01*
X139249774Y-91340210D01*
X139099148Y-91419265D01*
X139099142Y-91419270D01*
X138971818Y-91532069D01*
X138971816Y-91532071D01*
X138875181Y-91672070D01*
X138875179Y-91672074D01*
X138814859Y-91831128D01*
X138794355Y-91999997D01*
X138794355Y-92000002D01*
X138814859Y-92168871D01*
X138875179Y-92327925D01*
X138875181Y-92327929D01*
X138875182Y-92327930D01*
X138971817Y-92467929D01*
X139099148Y-92580734D01*
X139249775Y-92659790D01*
X139296330Y-92671264D01*
X139355273Y-92704508D01*
X140294625Y-93643860D01*
X140300058Y-93650055D01*
X140309557Y-93662434D01*
X140321716Y-93678280D01*
X140321719Y-93678283D01*
X140427770Y-93759659D01*
X140447152Y-93774531D01*
X140447159Y-93774536D01*
X140593238Y-93835044D01*
X140750000Y-93855682D01*
X140750001Y-93855682D01*
X140785262Y-93851040D01*
X140793494Y-93850500D01*
X141460639Y-93850500D01*
X141724734Y-93850500D01*
X141792855Y-93870502D01*
X141839348Y-93924158D01*
X141849452Y-93994432D01*
X141819958Y-94059012D01*
X141791065Y-94083627D01*
X141768525Y-94097583D01*
X141614309Y-94238169D01*
X141530289Y-94349432D01*
X141473276Y-94391739D01*
X141429739Y-94399500D01*
X140300925Y-94399500D01*
X140232804Y-94379498D01*
X140211830Y-94362595D01*
X139879994Y-94030759D01*
X139517867Y-93668632D01*
X139512440Y-93662444D01*
X139490782Y-93634218D01*
X139490780Y-93634217D01*
X139490780Y-93634216D01*
X139365342Y-93537965D01*
X139365341Y-93537964D01*
X139219262Y-93477456D01*
X139219260Y-93477455D01*
X139101861Y-93462000D01*
X139062500Y-93456818D01*
X139062499Y-93456818D01*
X139027238Y-93461460D01*
X139019006Y-93462000D01*
X138678613Y-93462000D01*
X138610492Y-93441998D01*
X138601900Y-93435073D01*
X138601579Y-93435497D01*
X138475500Y-93339889D01*
X138336320Y-93285002D01*
X138248862Y-93274500D01*
X138248860Y-93274500D01*
X137251140Y-93274500D01*
X137251137Y-93274500D01*
X137163679Y-93285002D01*
X137024499Y-93339889D01*
X136905288Y-93430288D01*
X136814889Y-93549499D01*
X136760002Y-93688679D01*
X136749500Y-93776137D01*
X136749500Y-94348862D01*
X135025500Y-94348862D01*
X135025500Y-81843809D01*
X136900670Y-81843809D01*
X136900671Y-81843816D01*
X136903584Y-81868940D01*
X136903586Y-81868944D01*
X136948963Y-81971715D01*
X137028402Y-82051154D01*
X137028404Y-82051155D01*
X137028405Y-82051156D01*
X137131179Y-82096535D01*
X137156305Y-82099450D01*
X138843694Y-82099449D01*
X138868821Y-82096535D01*
X138971595Y-82051156D01*
X139051036Y-81971715D01*
X139096415Y-81868941D01*
X139099330Y-81843815D01*
X139099329Y-79455386D01*
X139096415Y-79430259D01*
X139079645Y-79392279D01*
X139051036Y-79327484D01*
X138971597Y-79248045D01*
X138971595Y-79248044D01*
X138868819Y-79202664D01*
X138868820Y-79202664D01*
X138843700Y-79199750D01*
X138843695Y-79199750D01*
X138761160Y-79199750D01*
X138693039Y-79179748D01*
X138646546Y-79126092D01*
X138636442Y-79055818D01*
X138643348Y-79029070D01*
X138673925Y-78948444D01*
X138685140Y-78918872D01*
X138705645Y-78750000D01*
X138699634Y-78700499D01*
X138685140Y-78581128D01*
X138624820Y-78422074D01*
X138624818Y-78422070D01*
X138528183Y-78282071D01*
X138528181Y-78282069D01*
X138400857Y-78169270D01*
X138400851Y-78169265D01*
X138250225Y-78090210D01*
X138250221Y-78090208D01*
X138085059Y-78049500D01*
X138085056Y-78049500D01*
X137914944Y-78049500D01*
X137914940Y-78049500D01*
X137749778Y-78090208D01*
X137749774Y-78090210D01*
X137599148Y-78169265D01*
X137599142Y-78169270D01*
X137471818Y-78282069D01*
X137471816Y-78282071D01*
X137375181Y-78422070D01*
X137375179Y-78422074D01*
X137314859Y-78581128D01*
X137294355Y-78749997D01*
X137294355Y-78750002D01*
X137314859Y-78918871D01*
X137356652Y-79029070D01*
X137362106Y-79099857D01*
X137328423Y-79162355D01*
X137266299Y-79196722D01*
X137238841Y-79199750D01*
X137156309Y-79199750D01*
X137156303Y-79199751D01*
X137131180Y-79202664D01*
X137131175Y-79202666D01*
X137028404Y-79248043D01*
X136948965Y-79327482D01*
X136948964Y-79327484D01*
X136903584Y-79430259D01*
X136900670Y-79455379D01*
X136900670Y-81843809D01*
X135025500Y-81843809D01*
X135025500Y-74002058D01*
X135025635Y-73997937D01*
X135034201Y-73867242D01*
X135042122Y-73746393D01*
X135043194Y-73738242D01*
X135091974Y-73493007D01*
X135094103Y-73485060D01*
X135174474Y-73248295D01*
X135177622Y-73240696D01*
X135288216Y-73016434D01*
X135292318Y-73009329D01*
X135431233Y-72801428D01*
X135436238Y-72794905D01*
X135601102Y-72606914D01*
X135606914Y-72601102D01*
X135794905Y-72436238D01*
X135801428Y-72431233D01*
X136009329Y-72292318D01*
X136016434Y-72288216D01*
X136240696Y-72177622D01*
X136248295Y-72174474D01*
X136485060Y-72094103D01*
X136493007Y-72091974D01*
X136738242Y-72043194D01*
X136746393Y-72042122D01*
X136997941Y-72025634D01*
X137002060Y-72025500D01*
X137008285Y-72025500D01*
X152991715Y-72025500D01*
X152997940Y-72025500D01*
X153002058Y-72025634D01*
G37*
G04 #@! TD.AperFunction*
G04 #@! TD*
M02*
