G04 #@! TF.GenerationSoftware,KiCad,Pcbnew,7.0.6*
G04 #@! TF.CreationDate,2023-11-12T09:34:07+05:30*
G04 #@! TF.ProjectId,AVR-Miner,4156522d-4d69-46e6-9572-2e6b69636164,rev?*
G04 #@! TF.SameCoordinates,Original*
G04 #@! TF.FileFunction,Paste,Top*
G04 #@! TF.FilePolarity,Positive*
%FSLAX46Y46*%
G04 Gerber Fmt 4.6, Leading zero omitted, Abs format (unit mm)*
G04 Created by KiCad (PCBNEW 7.0.6) date 2023-11-12 09:34:07*
%MOMM*%
%LPD*%
G01*
G04 APERTURE LIST*
G04 Aperture macros list*
%AMRoundRect*
0 Rectangle with rounded corners*
0 $1 Rounding radius*
0 $2 $3 $4 $5 $6 $7 $8 $9 X,Y pos of 4 corners*
0 Add a 4 corners polygon primitive as box body*
4,1,4,$2,$3,$4,$5,$6,$7,$8,$9,$2,$3,0*
0 Add four circle primitives for the rounded corners*
1,1,$1+$1,$2,$3*
1,1,$1+$1,$4,$5*
1,1,$1+$1,$6,$7*
1,1,$1+$1,$8,$9*
0 Add four rect primitives between the rounded corners*
20,1,$1+$1,$2,$3,$4,$5,0*
20,1,$1+$1,$4,$5,$6,$7,0*
20,1,$1+$1,$6,$7,$8,$9,0*
20,1,$1+$1,$8,$9,$2,$3,0*%
G04 Aperture macros list end*
%ADD10RoundRect,0.243750X-0.456250X0.243750X-0.456250X-0.243750X0.456250X-0.243750X0.456250X0.243750X0*%
%ADD11RoundRect,0.243750X0.456250X-0.243750X0.456250X0.243750X-0.456250X0.243750X-0.456250X-0.243750X0*%
%ADD12RoundRect,0.243750X-0.243750X-0.456250X0.243750X-0.456250X0.243750X0.456250X-0.243750X0.456250X0*%
%ADD13R,1.597660X2.298700*%
%ADD14R,0.550000X1.600000*%
%ADD15R,1.600000X0.550000*%
G04 APERTURE END LIST*
D10*
G04 #@! TO.C,C4*
X152250000Y-94062500D03*
X152250000Y-95937500D03*
G04 #@! TD*
D11*
G04 #@! TO.C,C1*
X152000000Y-85437500D03*
X152000000Y-83562500D03*
G04 #@! TD*
G04 #@! TO.C,C3*
X137750000Y-95937500D03*
X137750000Y-94062500D03*
G04 #@! TD*
D10*
G04 #@! TO.C,C5*
X152000000Y-88062500D03*
X152000000Y-89937500D03*
G04 #@! TD*
D12*
G04 #@! TO.C,D1*
X144072500Y-73500000D03*
X145947500Y-73500000D03*
G04 #@! TD*
D11*
G04 #@! TO.C,R2*
X152000000Y-77937500D03*
X152000000Y-76062500D03*
G04 #@! TD*
D13*
G04 #@! TO.C,SW1*
X138000000Y-80649600D03*
X138000000Y-74350400D03*
G04 #@! TD*
D14*
G04 #@! TO.C,U1*
X142190000Y-90780000D03*
X142990000Y-90780000D03*
X143790000Y-90780000D03*
X144590000Y-90780000D03*
X145390000Y-90780000D03*
X146190000Y-90780000D03*
X146990000Y-90780000D03*
X147790000Y-90780000D03*
D15*
X149240000Y-89330000D03*
X149240000Y-88530000D03*
X149240000Y-87730000D03*
X149240000Y-86930000D03*
X149240000Y-86130000D03*
X149240000Y-85330000D03*
X149240000Y-84530000D03*
X149240000Y-83730000D03*
D14*
X147790000Y-82280000D03*
X146990000Y-82280000D03*
X146190000Y-82280000D03*
X145390000Y-82280000D03*
X144590000Y-82280000D03*
X143790000Y-82280000D03*
X142990000Y-82280000D03*
X142190000Y-82280000D03*
D15*
X140740000Y-83730000D03*
X140740000Y-84530000D03*
X140740000Y-85330000D03*
X140740000Y-86130000D03*
X140740000Y-86930000D03*
X140740000Y-87730000D03*
X140740000Y-88530000D03*
X140740000Y-89330000D03*
G04 #@! TD*
D10*
G04 #@! TO.C,R1*
X138000000Y-83562500D03*
X138000000Y-85437500D03*
G04 #@! TD*
D11*
G04 #@! TO.C,C2*
X138000000Y-89937500D03*
X138000000Y-88062500D03*
G04 #@! TD*
M02*
