G04 #@! TF.GenerationSoftware,KiCad,Pcbnew,7.0.6*
G04 #@! TF.CreationDate,2023-11-12T09:34:07+05:30*
G04 #@! TF.ProjectId,AVR-Miner,4156522d-4d69-46e6-9572-2e6b69636164,rev?*
G04 #@! TF.SameCoordinates,Original*
G04 #@! TF.FileFunction,Legend,Top*
G04 #@! TF.FilePolarity,Positive*
%FSLAX46Y46*%
G04 Gerber Fmt 4.6, Leading zero omitted, Abs format (unit mm)*
G04 Created by KiCad (PCBNEW 7.0.6) date 2023-11-12 09:34:07*
%MOMM*%
%LPD*%
G01*
G04 APERTURE LIST*
%ADD10C,0.100000*%
%ADD11C,0.150000*%
%ADD12C,0.250000*%
%ADD13C,0.127000*%
%ADD14C,0.120000*%
%ADD15C,0.203200*%
G04 APERTURE END LIST*
D10*
X138000000Y-100000000D02*
X137000000Y-101000000D01*
X137000000Y-99000000D01*
X138000000Y-100000000D01*
G36*
X138000000Y-100000000D02*
G01*
X137000000Y-101000000D01*
X137000000Y-99000000D01*
X138000000Y-100000000D01*
G37*
D11*
X149590476Y-97600390D02*
X149514286Y-97562295D01*
X149514286Y-97562295D02*
X149400000Y-97562295D01*
X149400000Y-97562295D02*
X149285714Y-97600390D01*
X149285714Y-97600390D02*
X149209524Y-97676580D01*
X149209524Y-97676580D02*
X149171429Y-97752771D01*
X149171429Y-97752771D02*
X149133333Y-97905152D01*
X149133333Y-97905152D02*
X149133333Y-98019438D01*
X149133333Y-98019438D02*
X149171429Y-98171819D01*
X149171429Y-98171819D02*
X149209524Y-98248009D01*
X149209524Y-98248009D02*
X149285714Y-98324200D01*
X149285714Y-98324200D02*
X149400000Y-98362295D01*
X149400000Y-98362295D02*
X149476191Y-98362295D01*
X149476191Y-98362295D02*
X149590476Y-98324200D01*
X149590476Y-98324200D02*
X149628572Y-98286104D01*
X149628572Y-98286104D02*
X149628572Y-98019438D01*
X149628572Y-98019438D02*
X149476191Y-98019438D01*
X149971429Y-98362295D02*
X149971429Y-97562295D01*
X149971429Y-97562295D02*
X150428572Y-98362295D01*
X150428572Y-98362295D02*
X150428572Y-97562295D01*
X150809524Y-98362295D02*
X150809524Y-97562295D01*
X150809524Y-97562295D02*
X151000000Y-97562295D01*
X151000000Y-97562295D02*
X151114286Y-97600390D01*
X151114286Y-97600390D02*
X151190476Y-97676580D01*
X151190476Y-97676580D02*
X151228571Y-97752771D01*
X151228571Y-97752771D02*
X151266667Y-97905152D01*
X151266667Y-97905152D02*
X151266667Y-98019438D01*
X151266667Y-98019438D02*
X151228571Y-98171819D01*
X151228571Y-98171819D02*
X151190476Y-98248009D01*
X151190476Y-98248009D02*
X151114286Y-98324200D01*
X151114286Y-98324200D02*
X151000000Y-98362295D01*
X151000000Y-98362295D02*
X150809524Y-98362295D01*
X146376190Y-98324200D02*
X146490476Y-98362295D01*
X146490476Y-98362295D02*
X146680952Y-98362295D01*
X146680952Y-98362295D02*
X146757143Y-98324200D01*
X146757143Y-98324200D02*
X146795238Y-98286104D01*
X146795238Y-98286104D02*
X146833333Y-98209914D01*
X146833333Y-98209914D02*
X146833333Y-98133723D01*
X146833333Y-98133723D02*
X146795238Y-98057533D01*
X146795238Y-98057533D02*
X146757143Y-98019438D01*
X146757143Y-98019438D02*
X146680952Y-97981342D01*
X146680952Y-97981342D02*
X146528571Y-97943247D01*
X146528571Y-97943247D02*
X146452381Y-97905152D01*
X146452381Y-97905152D02*
X146414286Y-97867057D01*
X146414286Y-97867057D02*
X146376190Y-97790866D01*
X146376190Y-97790866D02*
X146376190Y-97714676D01*
X146376190Y-97714676D02*
X146414286Y-97638485D01*
X146414286Y-97638485D02*
X146452381Y-97600390D01*
X146452381Y-97600390D02*
X146528571Y-97562295D01*
X146528571Y-97562295D02*
X146719048Y-97562295D01*
X146719048Y-97562295D02*
X146833333Y-97600390D01*
X147633334Y-98286104D02*
X147595238Y-98324200D01*
X147595238Y-98324200D02*
X147480953Y-98362295D01*
X147480953Y-98362295D02*
X147404762Y-98362295D01*
X147404762Y-98362295D02*
X147290476Y-98324200D01*
X147290476Y-98324200D02*
X147214286Y-98248009D01*
X147214286Y-98248009D02*
X147176191Y-98171819D01*
X147176191Y-98171819D02*
X147138095Y-98019438D01*
X147138095Y-98019438D02*
X147138095Y-97905152D01*
X147138095Y-97905152D02*
X147176191Y-97752771D01*
X147176191Y-97752771D02*
X147214286Y-97676580D01*
X147214286Y-97676580D02*
X147290476Y-97600390D01*
X147290476Y-97600390D02*
X147404762Y-97562295D01*
X147404762Y-97562295D02*
X147480953Y-97562295D01*
X147480953Y-97562295D02*
X147595238Y-97600390D01*
X147595238Y-97600390D02*
X147633334Y-97638485D01*
X148357143Y-98362295D02*
X147976191Y-98362295D01*
X147976191Y-98362295D02*
X147976191Y-97562295D01*
X143580952Y-98324200D02*
X143695238Y-98362295D01*
X143695238Y-98362295D02*
X143885714Y-98362295D01*
X143885714Y-98362295D02*
X143961905Y-98324200D01*
X143961905Y-98324200D02*
X144000000Y-98286104D01*
X144000000Y-98286104D02*
X144038095Y-98209914D01*
X144038095Y-98209914D02*
X144038095Y-98133723D01*
X144038095Y-98133723D02*
X144000000Y-98057533D01*
X144000000Y-98057533D02*
X143961905Y-98019438D01*
X143961905Y-98019438D02*
X143885714Y-97981342D01*
X143885714Y-97981342D02*
X143733333Y-97943247D01*
X143733333Y-97943247D02*
X143657143Y-97905152D01*
X143657143Y-97905152D02*
X143619048Y-97867057D01*
X143619048Y-97867057D02*
X143580952Y-97790866D01*
X143580952Y-97790866D02*
X143580952Y-97714676D01*
X143580952Y-97714676D02*
X143619048Y-97638485D01*
X143619048Y-97638485D02*
X143657143Y-97600390D01*
X143657143Y-97600390D02*
X143733333Y-97562295D01*
X143733333Y-97562295D02*
X143923810Y-97562295D01*
X143923810Y-97562295D02*
X144038095Y-97600390D01*
X144380953Y-98362295D02*
X144380953Y-97562295D01*
X144380953Y-97562295D02*
X144571429Y-97562295D01*
X144571429Y-97562295D02*
X144685715Y-97600390D01*
X144685715Y-97600390D02*
X144761905Y-97676580D01*
X144761905Y-97676580D02*
X144800000Y-97752771D01*
X144800000Y-97752771D02*
X144838096Y-97905152D01*
X144838096Y-97905152D02*
X144838096Y-98019438D01*
X144838096Y-98019438D02*
X144800000Y-98171819D01*
X144800000Y-98171819D02*
X144761905Y-98248009D01*
X144761905Y-98248009D02*
X144685715Y-98324200D01*
X144685715Y-98324200D02*
X144571429Y-98362295D01*
X144571429Y-98362295D02*
X144380953Y-98362295D01*
X145142857Y-98133723D02*
X145523810Y-98133723D01*
X145066667Y-98362295D02*
X145333334Y-97562295D01*
X145333334Y-97562295D02*
X145600000Y-98362295D01*
X139285714Y-98362295D02*
X138904762Y-98362295D01*
X138904762Y-98362295D02*
X138904762Y-97562295D01*
X139552381Y-97943247D02*
X139819047Y-97943247D01*
X139933333Y-98362295D02*
X139552381Y-98362295D01*
X139552381Y-98362295D02*
X139552381Y-97562295D01*
X139552381Y-97562295D02*
X139933333Y-97562295D01*
X140276191Y-98362295D02*
X140276191Y-97562295D01*
X140276191Y-97562295D02*
X140466667Y-97562295D01*
X140466667Y-97562295D02*
X140580953Y-97600390D01*
X140580953Y-97600390D02*
X140657143Y-97676580D01*
X140657143Y-97676580D02*
X140695238Y-97752771D01*
X140695238Y-97752771D02*
X140733334Y-97905152D01*
X140733334Y-97905152D02*
X140733334Y-98019438D01*
X140733334Y-98019438D02*
X140695238Y-98171819D01*
X140695238Y-98171819D02*
X140657143Y-98248009D01*
X140657143Y-98248009D02*
X140580953Y-98324200D01*
X140580953Y-98324200D02*
X140466667Y-98362295D01*
X140466667Y-98362295D02*
X140276191Y-98362295D01*
X142004762Y-97562295D02*
X141623810Y-97562295D01*
X141623810Y-97562295D02*
X141585714Y-97943247D01*
X141585714Y-97943247D02*
X141623810Y-97905152D01*
X141623810Y-97905152D02*
X141700000Y-97867057D01*
X141700000Y-97867057D02*
X141890476Y-97867057D01*
X141890476Y-97867057D02*
X141966667Y-97905152D01*
X141966667Y-97905152D02*
X142004762Y-97943247D01*
X142004762Y-97943247D02*
X142042857Y-98019438D01*
X142042857Y-98019438D02*
X142042857Y-98209914D01*
X142042857Y-98209914D02*
X142004762Y-98286104D01*
X142004762Y-98286104D02*
X141966667Y-98324200D01*
X141966667Y-98324200D02*
X141890476Y-98362295D01*
X141890476Y-98362295D02*
X141700000Y-98362295D01*
X141700000Y-98362295D02*
X141623810Y-98324200D01*
X141623810Y-98324200D02*
X141585714Y-98286104D01*
X142271429Y-97562295D02*
X142538096Y-98362295D01*
X142538096Y-98362295D02*
X142804762Y-97562295D01*
D12*
X142200000Y-92089142D02*
X142342857Y-92232000D01*
X142342857Y-92232000D02*
X142200000Y-92374857D01*
X142200000Y-92374857D02*
X142057143Y-92232000D01*
X142057143Y-92232000D02*
X142200000Y-92089142D01*
X142200000Y-92089142D02*
X142200000Y-92374857D01*
D11*
X154259580Y-95166666D02*
X154307200Y-95214285D01*
X154307200Y-95214285D02*
X154354819Y-95357142D01*
X154354819Y-95357142D02*
X154354819Y-95452380D01*
X154354819Y-95452380D02*
X154307200Y-95595237D01*
X154307200Y-95595237D02*
X154211961Y-95690475D01*
X154211961Y-95690475D02*
X154116723Y-95738094D01*
X154116723Y-95738094D02*
X153926247Y-95785713D01*
X153926247Y-95785713D02*
X153783390Y-95785713D01*
X153783390Y-95785713D02*
X153592914Y-95738094D01*
X153592914Y-95738094D02*
X153497676Y-95690475D01*
X153497676Y-95690475D02*
X153402438Y-95595237D01*
X153402438Y-95595237D02*
X153354819Y-95452380D01*
X153354819Y-95452380D02*
X153354819Y-95357142D01*
X153354819Y-95357142D02*
X153402438Y-95214285D01*
X153402438Y-95214285D02*
X153450057Y-95166666D01*
X153688152Y-94309523D02*
X154354819Y-94309523D01*
X153307200Y-94547618D02*
X154021485Y-94785713D01*
X154021485Y-94785713D02*
X154021485Y-94166666D01*
X154109580Y-84666666D02*
X154157200Y-84714285D01*
X154157200Y-84714285D02*
X154204819Y-84857142D01*
X154204819Y-84857142D02*
X154204819Y-84952380D01*
X154204819Y-84952380D02*
X154157200Y-85095237D01*
X154157200Y-85095237D02*
X154061961Y-85190475D01*
X154061961Y-85190475D02*
X153966723Y-85238094D01*
X153966723Y-85238094D02*
X153776247Y-85285713D01*
X153776247Y-85285713D02*
X153633390Y-85285713D01*
X153633390Y-85285713D02*
X153442914Y-85238094D01*
X153442914Y-85238094D02*
X153347676Y-85190475D01*
X153347676Y-85190475D02*
X153252438Y-85095237D01*
X153252438Y-85095237D02*
X153204819Y-84952380D01*
X153204819Y-84952380D02*
X153204819Y-84857142D01*
X153204819Y-84857142D02*
X153252438Y-84714285D01*
X153252438Y-84714285D02*
X153300057Y-84666666D01*
X154204819Y-83714285D02*
X154204819Y-84285713D01*
X154204819Y-83999999D02*
X153204819Y-83999999D01*
X153204819Y-83999999D02*
X153347676Y-84095237D01*
X153347676Y-84095237D02*
X153442914Y-84190475D01*
X153442914Y-84190475D02*
X153490533Y-84285713D01*
X135740419Y-94833333D02*
X135692800Y-94785714D01*
X135692800Y-94785714D02*
X135645180Y-94642857D01*
X135645180Y-94642857D02*
X135645180Y-94547619D01*
X135645180Y-94547619D02*
X135692800Y-94404762D01*
X135692800Y-94404762D02*
X135788038Y-94309524D01*
X135788038Y-94309524D02*
X135883276Y-94261905D01*
X135883276Y-94261905D02*
X136073752Y-94214286D01*
X136073752Y-94214286D02*
X136216609Y-94214286D01*
X136216609Y-94214286D02*
X136407085Y-94261905D01*
X136407085Y-94261905D02*
X136502323Y-94309524D01*
X136502323Y-94309524D02*
X136597561Y-94404762D01*
X136597561Y-94404762D02*
X136645180Y-94547619D01*
X136645180Y-94547619D02*
X136645180Y-94642857D01*
X136645180Y-94642857D02*
X136597561Y-94785714D01*
X136597561Y-94785714D02*
X136549942Y-94833333D01*
X136645180Y-95166667D02*
X136645180Y-95785714D01*
X136645180Y-95785714D02*
X136264228Y-95452381D01*
X136264228Y-95452381D02*
X136264228Y-95595238D01*
X136264228Y-95595238D02*
X136216609Y-95690476D01*
X136216609Y-95690476D02*
X136168990Y-95738095D01*
X136168990Y-95738095D02*
X136073752Y-95785714D01*
X136073752Y-95785714D02*
X135835657Y-95785714D01*
X135835657Y-95785714D02*
X135740419Y-95738095D01*
X135740419Y-95738095D02*
X135692800Y-95690476D01*
X135692800Y-95690476D02*
X135645180Y-95595238D01*
X135645180Y-95595238D02*
X135645180Y-95309524D01*
X135645180Y-95309524D02*
X135692800Y-95214286D01*
X135692800Y-95214286D02*
X135740419Y-95166667D01*
X154109580Y-89166666D02*
X154157200Y-89214285D01*
X154157200Y-89214285D02*
X154204819Y-89357142D01*
X154204819Y-89357142D02*
X154204819Y-89452380D01*
X154204819Y-89452380D02*
X154157200Y-89595237D01*
X154157200Y-89595237D02*
X154061961Y-89690475D01*
X154061961Y-89690475D02*
X153966723Y-89738094D01*
X153966723Y-89738094D02*
X153776247Y-89785713D01*
X153776247Y-89785713D02*
X153633390Y-89785713D01*
X153633390Y-89785713D02*
X153442914Y-89738094D01*
X153442914Y-89738094D02*
X153347676Y-89690475D01*
X153347676Y-89690475D02*
X153252438Y-89595237D01*
X153252438Y-89595237D02*
X153204819Y-89452380D01*
X153204819Y-89452380D02*
X153204819Y-89357142D01*
X153204819Y-89357142D02*
X153252438Y-89214285D01*
X153252438Y-89214285D02*
X153300057Y-89166666D01*
X153204819Y-88261904D02*
X153204819Y-88738094D01*
X153204819Y-88738094D02*
X153681009Y-88785713D01*
X153681009Y-88785713D02*
X153633390Y-88738094D01*
X153633390Y-88738094D02*
X153585771Y-88642856D01*
X153585771Y-88642856D02*
X153585771Y-88404761D01*
X153585771Y-88404761D02*
X153633390Y-88309523D01*
X153633390Y-88309523D02*
X153681009Y-88261904D01*
X153681009Y-88261904D02*
X153776247Y-88214285D01*
X153776247Y-88214285D02*
X154014342Y-88214285D01*
X154014342Y-88214285D02*
X154109580Y-88261904D01*
X154109580Y-88261904D02*
X154157200Y-88309523D01*
X154157200Y-88309523D02*
X154204819Y-88404761D01*
X154204819Y-88404761D02*
X154204819Y-88642856D01*
X154204819Y-88642856D02*
X154157200Y-88738094D01*
X154157200Y-88738094D02*
X154109580Y-88785713D01*
X141511905Y-73954819D02*
X141511905Y-72954819D01*
X141511905Y-72954819D02*
X141750000Y-72954819D01*
X141750000Y-72954819D02*
X141892857Y-73002438D01*
X141892857Y-73002438D02*
X141988095Y-73097676D01*
X141988095Y-73097676D02*
X142035714Y-73192914D01*
X142035714Y-73192914D02*
X142083333Y-73383390D01*
X142083333Y-73383390D02*
X142083333Y-73526247D01*
X142083333Y-73526247D02*
X142035714Y-73716723D01*
X142035714Y-73716723D02*
X141988095Y-73811961D01*
X141988095Y-73811961D02*
X141892857Y-73907200D01*
X141892857Y-73907200D02*
X141750000Y-73954819D01*
X141750000Y-73954819D02*
X141511905Y-73954819D01*
X143035714Y-73954819D02*
X142464286Y-73954819D01*
X142750000Y-73954819D02*
X142750000Y-72954819D01*
X142750000Y-72954819D02*
X142654762Y-73097676D01*
X142654762Y-73097676D02*
X142559524Y-73192914D01*
X142559524Y-73192914D02*
X142464286Y-73240533D01*
X148176666Y-73454819D02*
X148176666Y-74169104D01*
X148176666Y-74169104D02*
X148129047Y-74311961D01*
X148129047Y-74311961D02*
X148033809Y-74407200D01*
X148033809Y-74407200D02*
X147890952Y-74454819D01*
X147890952Y-74454819D02*
X147795714Y-74454819D01*
X148605238Y-73550057D02*
X148652857Y-73502438D01*
X148652857Y-73502438D02*
X148748095Y-73454819D01*
X148748095Y-73454819D02*
X148986190Y-73454819D01*
X148986190Y-73454819D02*
X149081428Y-73502438D01*
X149081428Y-73502438D02*
X149129047Y-73550057D01*
X149129047Y-73550057D02*
X149176666Y-73645295D01*
X149176666Y-73645295D02*
X149176666Y-73740533D01*
X149176666Y-73740533D02*
X149129047Y-73883390D01*
X149129047Y-73883390D02*
X148557619Y-74454819D01*
X148557619Y-74454819D02*
X149176666Y-74454819D01*
X154204819Y-77166666D02*
X153728628Y-77499999D01*
X154204819Y-77738094D02*
X153204819Y-77738094D01*
X153204819Y-77738094D02*
X153204819Y-77357142D01*
X153204819Y-77357142D02*
X153252438Y-77261904D01*
X153252438Y-77261904D02*
X153300057Y-77214285D01*
X153300057Y-77214285D02*
X153395295Y-77166666D01*
X153395295Y-77166666D02*
X153538152Y-77166666D01*
X153538152Y-77166666D02*
X153633390Y-77214285D01*
X153633390Y-77214285D02*
X153681009Y-77261904D01*
X153681009Y-77261904D02*
X153728628Y-77357142D01*
X153728628Y-77357142D02*
X153728628Y-77738094D01*
X153300057Y-76785713D02*
X153252438Y-76738094D01*
X153252438Y-76738094D02*
X153204819Y-76642856D01*
X153204819Y-76642856D02*
X153204819Y-76404761D01*
X153204819Y-76404761D02*
X153252438Y-76309523D01*
X153252438Y-76309523D02*
X153300057Y-76261904D01*
X153300057Y-76261904D02*
X153395295Y-76214285D01*
X153395295Y-76214285D02*
X153490533Y-76214285D01*
X153490533Y-76214285D02*
X153633390Y-76261904D01*
X153633390Y-76261904D02*
X154204819Y-76833332D01*
X154204819Y-76833332D02*
X154204819Y-76214285D01*
D13*
X138246380Y-78062799D02*
X138275408Y-77975714D01*
X138275408Y-77975714D02*
X138275408Y-77830571D01*
X138275408Y-77830571D02*
X138246380Y-77772514D01*
X138246380Y-77772514D02*
X138217351Y-77743485D01*
X138217351Y-77743485D02*
X138159294Y-77714456D01*
X138159294Y-77714456D02*
X138101237Y-77714456D01*
X138101237Y-77714456D02*
X138043180Y-77743485D01*
X138043180Y-77743485D02*
X138014151Y-77772514D01*
X138014151Y-77772514D02*
X137985122Y-77830571D01*
X137985122Y-77830571D02*
X137956094Y-77946685D01*
X137956094Y-77946685D02*
X137927065Y-78004742D01*
X137927065Y-78004742D02*
X137898037Y-78033771D01*
X137898037Y-78033771D02*
X137839980Y-78062799D01*
X137839980Y-78062799D02*
X137781922Y-78062799D01*
X137781922Y-78062799D02*
X137723865Y-78033771D01*
X137723865Y-78033771D02*
X137694837Y-78004742D01*
X137694837Y-78004742D02*
X137665808Y-77946685D01*
X137665808Y-77946685D02*
X137665808Y-77801542D01*
X137665808Y-77801542D02*
X137694837Y-77714456D01*
X137665808Y-77511257D02*
X138275408Y-77366114D01*
X138275408Y-77366114D02*
X137839980Y-77250000D01*
X137839980Y-77250000D02*
X138275408Y-77133885D01*
X138275408Y-77133885D02*
X137665808Y-76988743D01*
X138275408Y-76437199D02*
X138275408Y-76785542D01*
X138275408Y-76611371D02*
X137665808Y-76611371D01*
X137665808Y-76611371D02*
X137752894Y-76669428D01*
X137752894Y-76669428D02*
X137810951Y-76727485D01*
X137810951Y-76727485D02*
X137839980Y-76785542D01*
X136025408Y-78385371D02*
X135735122Y-78588571D01*
X136025408Y-78733714D02*
X135415808Y-78733714D01*
X135415808Y-78733714D02*
X135415808Y-78501485D01*
X135415808Y-78501485D02*
X135444837Y-78443428D01*
X135444837Y-78443428D02*
X135473865Y-78414399D01*
X135473865Y-78414399D02*
X135531922Y-78385371D01*
X135531922Y-78385371D02*
X135619008Y-78385371D01*
X135619008Y-78385371D02*
X135677065Y-78414399D01*
X135677065Y-78414399D02*
X135706094Y-78443428D01*
X135706094Y-78443428D02*
X135735122Y-78501485D01*
X135735122Y-78501485D02*
X135735122Y-78733714D01*
X135706094Y-78124114D02*
X135706094Y-77920914D01*
X136025408Y-77833828D02*
X136025408Y-78124114D01*
X136025408Y-78124114D02*
X135415808Y-78124114D01*
X135415808Y-78124114D02*
X135415808Y-77833828D01*
X135996380Y-77601599D02*
X136025408Y-77514514D01*
X136025408Y-77514514D02*
X136025408Y-77369371D01*
X136025408Y-77369371D02*
X135996380Y-77311314D01*
X135996380Y-77311314D02*
X135967351Y-77282285D01*
X135967351Y-77282285D02*
X135909294Y-77253256D01*
X135909294Y-77253256D02*
X135851237Y-77253256D01*
X135851237Y-77253256D02*
X135793180Y-77282285D01*
X135793180Y-77282285D02*
X135764151Y-77311314D01*
X135764151Y-77311314D02*
X135735122Y-77369371D01*
X135735122Y-77369371D02*
X135706094Y-77485485D01*
X135706094Y-77485485D02*
X135677065Y-77543542D01*
X135677065Y-77543542D02*
X135648037Y-77572571D01*
X135648037Y-77572571D02*
X135589980Y-77601599D01*
X135589980Y-77601599D02*
X135531922Y-77601599D01*
X135531922Y-77601599D02*
X135473865Y-77572571D01*
X135473865Y-77572571D02*
X135444837Y-77543542D01*
X135444837Y-77543542D02*
X135415808Y-77485485D01*
X135415808Y-77485485D02*
X135415808Y-77340342D01*
X135415808Y-77340342D02*
X135444837Y-77253256D01*
X135706094Y-76992000D02*
X135706094Y-76788800D01*
X136025408Y-76701714D02*
X136025408Y-76992000D01*
X136025408Y-76992000D02*
X135415808Y-76992000D01*
X135415808Y-76992000D02*
X135415808Y-76701714D01*
X135415808Y-76527542D02*
X135415808Y-76179200D01*
X136025408Y-76353371D02*
X135415808Y-76353371D01*
D11*
X148988095Y-90454819D02*
X148988095Y-91264342D01*
X148988095Y-91264342D02*
X149035714Y-91359580D01*
X149035714Y-91359580D02*
X149083333Y-91407200D01*
X149083333Y-91407200D02*
X149178571Y-91454819D01*
X149178571Y-91454819D02*
X149369047Y-91454819D01*
X149369047Y-91454819D02*
X149464285Y-91407200D01*
X149464285Y-91407200D02*
X149511904Y-91359580D01*
X149511904Y-91359580D02*
X149559523Y-91264342D01*
X149559523Y-91264342D02*
X149559523Y-90454819D01*
X150559523Y-91454819D02*
X149988095Y-91454819D01*
X150273809Y-91454819D02*
X150273809Y-90454819D01*
X150273809Y-90454819D02*
X150178571Y-90597676D01*
X150178571Y-90597676D02*
X150083333Y-90692914D01*
X150083333Y-90692914D02*
X149988095Y-90740533D01*
X144523809Y-94978628D02*
X144523809Y-95454819D01*
X144190476Y-94454819D02*
X144523809Y-94978628D01*
X144523809Y-94978628D02*
X144857142Y-94454819D01*
X145714285Y-95454819D02*
X145142857Y-95454819D01*
X145428571Y-95454819D02*
X145428571Y-94454819D01*
X145428571Y-94454819D02*
X145333333Y-94597676D01*
X145333333Y-94597676D02*
X145238095Y-94692914D01*
X145238095Y-94692914D02*
X145142857Y-94740533D01*
X135795180Y-84333333D02*
X136271371Y-84000000D01*
X135795180Y-83761905D02*
X136795180Y-83761905D01*
X136795180Y-83761905D02*
X136795180Y-84142857D01*
X136795180Y-84142857D02*
X136747561Y-84238095D01*
X136747561Y-84238095D02*
X136699942Y-84285714D01*
X136699942Y-84285714D02*
X136604704Y-84333333D01*
X136604704Y-84333333D02*
X136461847Y-84333333D01*
X136461847Y-84333333D02*
X136366609Y-84285714D01*
X136366609Y-84285714D02*
X136318990Y-84238095D01*
X136318990Y-84238095D02*
X136271371Y-84142857D01*
X136271371Y-84142857D02*
X136271371Y-83761905D01*
X135795180Y-85285714D02*
X135795180Y-84714286D01*
X135795180Y-85000000D02*
X136795180Y-85000000D01*
X136795180Y-85000000D02*
X136652323Y-84904762D01*
X136652323Y-84904762D02*
X136557085Y-84809524D01*
X136557085Y-84809524D02*
X136509466Y-84714286D01*
X135990419Y-88833334D02*
X135942800Y-88785715D01*
X135942800Y-88785715D02*
X135895180Y-88642858D01*
X135895180Y-88642858D02*
X135895180Y-88547620D01*
X135895180Y-88547620D02*
X135942800Y-88404763D01*
X135942800Y-88404763D02*
X136038038Y-88309525D01*
X136038038Y-88309525D02*
X136133276Y-88261906D01*
X136133276Y-88261906D02*
X136323752Y-88214287D01*
X136323752Y-88214287D02*
X136466609Y-88214287D01*
X136466609Y-88214287D02*
X136657085Y-88261906D01*
X136657085Y-88261906D02*
X136752323Y-88309525D01*
X136752323Y-88309525D02*
X136847561Y-88404763D01*
X136847561Y-88404763D02*
X136895180Y-88547620D01*
X136895180Y-88547620D02*
X136895180Y-88642858D01*
X136895180Y-88642858D02*
X136847561Y-88785715D01*
X136847561Y-88785715D02*
X136799942Y-88833334D01*
X136799942Y-89214287D02*
X136847561Y-89261906D01*
X136847561Y-89261906D02*
X136895180Y-89357144D01*
X136895180Y-89357144D02*
X136895180Y-89595239D01*
X136895180Y-89595239D02*
X136847561Y-89690477D01*
X136847561Y-89690477D02*
X136799942Y-89738096D01*
X136799942Y-89738096D02*
X136704704Y-89785715D01*
X136704704Y-89785715D02*
X136609466Y-89785715D01*
X136609466Y-89785715D02*
X136466609Y-89738096D01*
X136466609Y-89738096D02*
X135895180Y-89166668D01*
X135895180Y-89166668D02*
X135895180Y-89785715D01*
X152166666Y-99454819D02*
X152166666Y-100169104D01*
X152166666Y-100169104D02*
X152119047Y-100311961D01*
X152119047Y-100311961D02*
X152023809Y-100407200D01*
X152023809Y-100407200D02*
X151880952Y-100454819D01*
X151880952Y-100454819D02*
X151785714Y-100454819D01*
X153166666Y-100454819D02*
X152595238Y-100454819D01*
X152880952Y-100454819D02*
X152880952Y-99454819D01*
X152880952Y-99454819D02*
X152785714Y-99597676D01*
X152785714Y-99597676D02*
X152690476Y-99692914D01*
X152690476Y-99692914D02*
X152595238Y-99740533D01*
D14*
G04 #@! TO.C,C4*
X152960000Y-94741422D02*
X152960000Y-95258578D01*
X151540000Y-94741422D02*
X151540000Y-95258578D01*
G04 #@! TO.C,C1*
X151290000Y-84758578D02*
X151290000Y-84241422D01*
X152710000Y-84758578D02*
X152710000Y-84241422D01*
G04 #@! TO.C,C3*
X137040000Y-95258578D02*
X137040000Y-94741422D01*
X138460000Y-95258578D02*
X138460000Y-94741422D01*
G04 #@! TO.C,C5*
X152710000Y-88741422D02*
X152710000Y-89258578D01*
X151290000Y-88741422D02*
X151290000Y-89258578D01*
G04 #@! TO.C,D1*
X143325000Y-72540000D02*
X143325000Y-74460000D01*
X143325000Y-74460000D02*
X146010000Y-74460000D01*
X146010000Y-72540000D02*
X143325000Y-72540000D01*
G04 #@! TO.C,J2*
X141145000Y-80330000D02*
X141145000Y-79000000D01*
X142475000Y-80330000D02*
X141145000Y-80330000D01*
X143745000Y-80330000D02*
X148885000Y-80330000D01*
X143745000Y-80330000D02*
X143745000Y-77730000D01*
X148885000Y-80330000D02*
X148885000Y-75130000D01*
X141145000Y-77730000D02*
X141145000Y-75130000D01*
X143745000Y-77730000D02*
X141145000Y-77730000D01*
X141145000Y-75130000D02*
X148885000Y-75130000D01*
G04 #@! TO.C,R2*
X151290000Y-77258578D02*
X151290000Y-76741422D01*
X152710000Y-77258578D02*
X152710000Y-76741422D01*
D15*
G04 #@! TO.C,SW1*
X136900180Y-80499740D02*
X136501400Y-80499740D01*
X139498600Y-80499740D02*
X139099820Y-80499740D01*
X136252480Y-80248280D02*
X136252480Y-74751720D01*
X137250700Y-78998600D02*
X137250700Y-76001400D01*
X138749300Y-78998600D02*
X137250700Y-78998600D01*
X138749300Y-76001400D02*
X138749300Y-78998600D01*
X138749300Y-76001400D02*
X137250700Y-76001400D01*
X139747520Y-74751720D02*
X139747520Y-80248280D01*
X136900180Y-74500260D02*
X136501400Y-74500260D01*
X139498600Y-74500260D02*
X139099820Y-74500260D01*
X136249940Y-80248280D02*
G75*
G03*
X136501400Y-80499740I251460J0D01*
G01*
X139498600Y-80497200D02*
G75*
G03*
X139747520Y-80248280I0J248920D01*
G01*
X136501400Y-74502780D02*
G75*
G03*
X136252480Y-74751720I0J-248920D01*
G01*
X139750040Y-74751720D02*
G75*
G03*
X139498600Y-74500260I-251440J20D01*
G01*
D11*
G04 #@! TO.C,U1*
X141365000Y-90155000D02*
X141590000Y-90155000D01*
X141365000Y-90155000D02*
X141365000Y-89830000D01*
X141590000Y-90155000D02*
X141590000Y-91580000D01*
X148615000Y-90155000D02*
X148290000Y-90155000D01*
X148615000Y-90155000D02*
X148615000Y-89830000D01*
X141365000Y-82905000D02*
X141365000Y-83230000D01*
X141365000Y-82905000D02*
X141690000Y-82905000D01*
X148615000Y-82905000D02*
X148615000Y-83230000D01*
X148615000Y-82905000D02*
X148290000Y-82905000D01*
D15*
G04 #@! TO.C,Y1*
X141561000Y-97286000D02*
X148419000Y-97286000D01*
X148419000Y-92714000D02*
X141561000Y-92714000D01*
X141561000Y-92714000D02*
G75*
G03*
X141561000Y-97286000I0J-2286000D01*
G01*
X148419000Y-97286000D02*
G75*
G03*
X148419000Y-92714000I0J2286000D01*
G01*
D14*
G04 #@! TO.C,R1*
X138710000Y-84241422D02*
X138710000Y-84758578D01*
X137290000Y-84241422D02*
X137290000Y-84758578D01*
G04 #@! TO.C,C2*
X137290000Y-89258578D02*
X137290000Y-88741422D01*
X138710000Y-89258578D02*
X138710000Y-88741422D01*
G04 #@! TO.C,J1*
X138595000Y-101330000D02*
X138595000Y-100000000D01*
X139925000Y-101330000D02*
X138595000Y-101330000D01*
X141195000Y-101330000D02*
X151415000Y-101330000D01*
X141195000Y-101330000D02*
X141195000Y-98670000D01*
X151415000Y-101330000D02*
X151415000Y-98670000D01*
X141195000Y-98670000D02*
X151415000Y-98670000D01*
G04 #@! TD*
M02*
